{"glyphs":{"0":{"ha":850,"x_min":71,"x_max":847,"o":"m 847 646 q 833 478 847 568 q 789 300 819 388 q 706 140 758 213 q 578 25 654 68 q 397 -18 501 -18 q 155 75 239 -18 q 71 336 71 168 q 87 508 71 418 q 137 683 103 597 q 224 837 171 768 q 352 947 278 906 q 524 988 426 988 q 761 899 675 988 q 847 646 847 811 m 610 682 q 522 819 610 819 q 447 783 481 819 q 387 688 413 747 q 344 556 361 628 q 317 415 326 485 q 308 288 308 344 q 331 187 308 224 q 396 150 354 150 q 465 181 435 150 q 519 264 496 213 q 560 376 543 315 q 588 497 578 438 q 604 606 599 557 q 610 682 610 656 z "},"1":{"ha":850,"x_min":164,"x_max":750,"o":"m 543 0 l 288 0 l 385 435 q 401 506 392 464 q 422 591 411 547 q 444 671 433 635 q 460 728 454 707 l 457 728 q 390 674 440 711 q 261 583 340 638 l 164 761 l 524 969 l 750 969 l 543 0 z "},"2":{"ha":850,"x_min":11,"x_max":821,"o":"m 700 0 l 11 0 l 44 174 q 356 392 240 301 q 524 551 472 482 q 575 685 575 621 q 536 777 575 750 q 436 804 497 804 q 317 787 385 804 q 192 738 249 769 l 208 935 q 340 975 271 963 q 479 988 408 988 q 644 960 567 988 q 772 874 722 933 q 821 714 821 814 q 782 543 821 621 q 660 391 743 465 q 446 231 578 317 q 395 201 425 217 q 344 174 365 185 l 344 171 q 479 175 414 174 q 593 176 544 176 l 736 176 l 700 0 z "},"3":{"ha":850,"x_min":10,"x_max":833,"o":"m 756 292 q 642 65 756 149 q 332 -18 529 -18 q 164 -2 247 -18 q 10 44 81 14 l 58 231 q 181 188 115 203 q 311 172 247 172 q 455 205 399 172 q 511 303 511 238 q 457 385 511 357 q 313 413 403 413 q 244 408 285 413 l 279 585 q 318 583 300 583 q 354 582 336 582 q 593 703 593 582 q 548 780 593 754 q 421 806 503 806 q 314 795 371 806 q 200 765 257 785 l 225 954 q 350 978 282 969 q 481 988 418 988 q 738 926 642 988 q 833 740 833 864 q 763 571 833 631 q 582 493 692 511 l 582 489 q 704 422 653 472 q 756 292 756 371 z "},"4":{"ha":850,"x_min":7,"x_max":836,"o":"m 631 0 l 388 0 l 432 190 l 7 190 l 53 401 l 553 969 l 836 969 l 704 361 l 835 361 l 797 190 l 671 190 l 631 0 m 472 361 l 503 488 q 526 577 513 525 q 553 685 539 629 q 581 786 568 740 l 578 786 q 537 730 564 767 q 469 643 510 693 l 233 361 l 472 361 z "},"5":{"ha":850,"x_min":51,"x_max":871,"o":"m 779 357 q 717 152 779 236 q 553 25 656 68 q 328 -18 450 -18 q 183 -6 261 -18 q 51 29 104 7 l 92 218 q 206 181 149 192 q 317 171 263 171 q 420 188 372 171 q 498 242 468 204 q 528 343 528 281 q 472 447 528 411 q 321 482 415 482 q 229 475 274 482 q 140 453 185 468 l 254 969 l 871 969 l 842 793 l 442 793 l 399 633 q 425 636 414 636 q 446 636 436 636 q 615 603 539 636 q 735 508 690 569 q 779 357 779 446 z "},"6":{"ha":850,"x_min":63,"x_max":878,"o":"m 813 369 q 766 169 813 257 q 632 32 719 82 q 421 -18 544 -18 q 251 12 319 -18 q 140 92 182 42 q 81 203 99 142 q 63 328 63 265 q 97 563 63 446 q 199 776 131 679 q 372 930 268 872 q 617 988 476 988 q 763 974 694 988 q 878 936 831 960 l 813 765 q 722 798 772 789 q 636 807 672 807 q 444 744 518 807 q 338 564 369 681 l 342 564 q 429 616 378 597 q 533 635 481 635 q 735 565 658 635 q 813 369 813 494 m 579 340 q 547 433 579 397 q 457 468 514 468 q 341 418 389 468 q 293 289 293 368 q 324 190 293 229 q 415 151 356 151 q 532 204 485 151 q 579 340 579 257 z "},"7":{"ha":850,"x_min":71,"x_max":899,"o":"m 360 0 l 71 0 l 596 788 l 158 788 l 194 969 l 899 969 l 853 747 l 360 0 z "},"8":{"ha":850,"x_min":42,"x_max":856,"o":"m 800 282 q 744 113 800 179 q 597 14 688 46 q 403 -18 507 -18 q 219 12 301 -18 q 90 99 138 42 q 42 242 42 157 q 110 417 42 353 q 282 511 178 481 q 176 606 207 556 q 146 717 146 657 q 193 858 146 797 q 324 953 240 918 q 518 988 408 988 q 685 963 608 988 q 808 887 761 938 q 856 757 856 836 q 812 606 856 671 q 644 492 768 540 q 760 403 719 453 q 800 282 800 353 m 553 279 q 527 358 553 324 q 440 418 501 393 q 322 354 357 396 q 286 261 286 313 q 322 179 286 210 q 411 149 357 149 q 513 185 474 149 q 553 279 553 221 m 622 725 q 592 796 622 767 q 510 825 563 825 q 417 794 454 825 q 381 711 381 763 q 482 579 381 631 q 586 636 550 601 q 622 725 622 671 z "},"9":{"ha":850,"x_min":40,"x_max":851,"o":"m 101 610 q 154 808 101 722 q 297 940 207 893 q 497 988 388 988 q 703 940 625 988 q 816 813 781 892 q 851 642 851 735 q 817 407 851 524 q 715 194 783 290 q 542 40 646 97 q 297 -18 438 -18 q 154 -4 219 -18 q 40 33 89 10 l 101 207 q 190 175 142 185 q 274 165 239 165 q 472 232 397 165 q 579 415 547 299 l 575 415 q 491 363 540 382 q 385 343 442 343 q 181 414 260 343 q 101 610 101 485 m 339 632 q 372 542 339 576 q 460 507 404 507 q 574 556 526 507 q 621 683 621 606 q 590 781 621 743 q 500 818 560 818 q 385 766 432 818 q 339 632 339 714 z "},"\r":{"ha":0,"x_min":0,"x_max":0,"o":""}," ":{"ha":361,"x_min":0,"x_max":0,"o":""},"!":{"ha":500,"x_min":71,"x_max":521,"o":"m 250 969 l 521 969 l 349 318 l 144 318 l 250 969 m 115 222 l 350 222 l 304 0 l 71 0 l 115 222 z "},"\"":{"ha":664,"x_min":178,"x_max":664,"o":"m 296 560 l 178 560 l 235 969 l 417 969 l 296 560 m 543 560 l 426 560 l 483 969 l 664 969 l 543 560 z "},"#":{"ha":850,"x_min":40,"x_max":856,"o":"m 271 0 l 110 0 l 165 258 l 40 258 l 71 396 l 194 396 l 232 575 l 108 575 l 136 717 l 263 717 l 317 969 l 478 969 l 422 717 l 571 717 l 625 969 l 786 969 l 732 717 l 856 717 l 826 575 l 701 575 l 664 396 l 789 396 l 758 258 l 636 258 l 579 0 l 418 0 l 474 258 l 325 258 l 271 0 m 504 396 l 540 575 l 396 575 l 357 396 l 504 396 z "},"$":{"ha":850,"x_min":25,"x_max":846,"o":"m 846 935 l 796 760 q 692 800 749 786 q 593 814 635 814 l 583 814 l 526 583 q 685 503 628 544 q 767 414 743 463 q 792 303 792 365 q 739 135 792 203 q 595 33 686 68 q 390 -7 504 -1 l 363 -124 l 268 -124 l 296 -7 q 153 11 226 -4 q 25 49 81 26 l 75 239 q 203 192 135 208 q 333 172 271 175 l 393 418 q 242 496 297 456 q 165 583 188 536 q 142 688 142 631 q 192 844 142 779 q 330 943 243 908 q 525 981 417 978 l 556 1100 l 653 1100 l 622 981 q 753 963 700 975 q 846 935 807 950 m 438 611 l 489 813 q 394 775 428 807 q 361 699 361 743 q 378 650 361 669 q 438 611 396 631 m 481 389 l 429 172 q 531 215 500 182 q 561 296 561 249 q 543 348 561 326 q 481 389 525 369 z "},"%":{"ha":1304,"x_min":118,"x_max":1242,"o":"m 1006 1031 l 1157 1031 l 374 -31 l 222 -31 l 1006 1031 m 1028 517 q 1187 458 1132 517 q 1242 310 1242 400 q 1225 193 1242 251 q 1174 87 1208 135 q 1085 10 1139 39 q 960 -18 1032 -18 q 797 36 853 -18 q 742 186 742 90 q 777 347 742 272 q 877 469 813 422 q 1028 517 942 517 m 1019 388 q 962 356 988 388 q 922 278 936 325 q 907 181 907 231 q 921 131 907 150 q 965 113 935 113 q 1023 141 997 113 q 1063 215 1049 169 q 1078 314 1078 261 q 1065 367 1078 346 q 1019 388 1051 388 m 404 988 q 563 929 508 988 q 618 781 618 871 q 601 664 618 722 q 550 558 585 606 q 462 481 515 510 q 336 453 408 453 q 174 507 229 453 q 118 657 118 561 q 153 818 118 743 q 253 940 189 893 q 404 988 318 988 m 396 858 q 338 827 364 858 q 298 749 313 796 q 283 651 283 701 q 297 602 283 621 q 342 583 311 583 q 399 612 374 583 q 440 686 425 640 q 454 785 454 732 q 441 838 454 817 q 396 858 428 858 z "},"&":{"ha":1069,"x_min":51,"x_max":1054,"o":"m 599 479 l 736 311 q 798 408 772 351 q 836 522 824 464 l 1054 522 q 985 330 1036 422 q 861 171 935 238 l 1011 0 l 722 0 l 678 53 q 551 0 622 18 q 404 -18 481 -18 q 142 58 233 -18 q 51 260 51 133 q 118 440 51 369 q 299 549 185 511 q 224 732 224 642 q 272 876 224 819 q 399 960 321 933 q 563 988 476 988 q 713 960 646 988 q 821 883 781 933 q 861 760 861 832 q 839 647 861 699 q 760 553 817 594 q 599 479 703 513 m 501 608 l 528 617 q 627 670 601 640 q 653 740 653 700 q 623 803 653 781 q 553 826 593 826 q 475 799 504 826 q 446 725 446 771 q 501 608 446 679 m 568 192 l 394 413 q 311 358 339 394 q 283 276 283 322 q 328 188 283 217 q 435 158 374 158 q 506 166 471 158 q 568 192 540 174 z "},"'":{"ha":417,"x_min":178,"x_max":417,"o":"m 296 560 l 178 560 l 235 969 l 417 969 l 296 560 z "},"(":{"ha":528,"x_min":78,"x_max":639,"o":"m 424 1056 l 639 1056 q 376 688 465 874 q 288 290 288 503 q 315 45 288 172 q 392 -194 343 -82 l 206 -194 q 112 61 146 -72 q 78 319 78 194 q 424 1056 78 708 z "},")":{"ha":528,"x_min":-76,"x_max":485,"o":"m 139 -194 l -76 -194 q 186 173 97 -12 q 275 571 275 358 q 247 816 275 689 q 171 1056 219 943 l 357 1056 q 451 800 418 933 q 485 542 485 667 q 139 -194 485 153 z "},"*":{"ha":838,"x_min":186,"x_max":758,"o":"m 453 675 l 315 511 l 204 633 l 378 750 l 186 824 l 268 971 l 435 844 l 442 1054 l 607 1025 l 542 831 l 736 881 l 758 718 l 556 718 l 658 556 l 514 486 l 453 675 z "},"+":{"ha":850,"x_min":68,"x_max":818,"o":"m 354 0 l 354 288 l 68 288 l 68 463 l 354 463 l 354 750 l 532 750 l 532 463 l 818 463 l 818 288 l 532 288 l 532 0 l 354 0 z "},",":{"ha":385,"x_min":-71,"x_max":319,"o":"m 83 219 l 319 219 l 103 -156 l -71 -156 l 83 219 z "},"-":{"ha":451,"x_min":32,"x_max":444,"o":"m 69 479 l 444 479 l 408 297 l 32 297 l 69 479 z "},".":{"ha":385,"x_min":11,"x_max":290,"o":"m 56 231 l 290 231 l 244 0 l 11 0 l 56 231 z "},"/":{"ha":708,"x_min":0,"x_max":781,"o":"m 192 0 l 0 0 l 593 969 l 781 969 l 192 0 z "},":":{"ha":406,"x_min":19,"x_max":399,"o":"m 64 231 l 299 231 l 253 0 l 19 0 l 64 231 m 164 722 l 399 722 l 353 492 l 119 492 l 164 722 z "},";":{"ha":406,"x_min":-57,"x_max":399,"o":"m 97 219 l 333 219 l 117 -156 l -57 -156 l 97 219 m 164 722 l 399 722 l 353 492 l 119 492 l 164 722 z "},"<":{"ha":850,"x_min":69,"x_max":819,"o":"m 819 567 l 501 453 q 444 433 479 444 q 370 411 408 422 q 299 391 332 400 q 247 378 267 382 l 247 375 q 299 361 267 371 q 370 340 332 351 q 444 316 408 328 q 501 296 479 304 l 819 183 l 819 -14 l 69 281 l 69 471 l 819 764 l 819 567 z "},"=":{"ha":850,"x_min":82,"x_max":832,"o":"m 82 454 l 82 629 l 832 629 l 832 454 l 82 454 m 82 121 l 82 296 l 832 296 l 832 121 l 82 121 z "},">":{"ha":850,"x_min":79,"x_max":829,"o":"m 397 453 l 79 567 l 79 764 l 829 471 l 829 281 l 79 -14 l 79 183 l 397 296 q 456 316 421 304 q 528 340 490 328 q 600 361 567 351 q 651 375 633 371 l 651 378 q 600 391 633 382 q 528 411 567 400 q 456 433 490 422 q 397 453 421 444 z "},"?":{"ha":735,"x_min":138,"x_max":740,"o":"m 138 767 l 158 956 q 275 979 219 971 q 385 988 331 988 q 647 926 554 988 q 740 757 740 865 q 726 660 740 703 q 674 574 713 618 q 558 472 635 531 q 489 413 513 438 q 456 367 465 388 q 442 322 447 346 l 439 306 l 232 306 l 235 321 q 255 398 243 363 q 297 472 267 433 q 390 564 328 511 q 473 648 454 617 q 492 711 492 679 q 451 788 492 764 q 336 811 410 811 q 237 801 288 811 q 138 767 186 790 m 207 222 l 442 222 l 396 0 l 163 0 l 207 222 z "},"@":{"ha":1389,"x_min":108,"x_max":1286,"o":"m 1053 24 l 1085 -111 q 901 -172 1000 -150 q 690 -193 801 -193 q 387 -133 518 -193 q 182 45 256 -72 q 108 331 108 163 q 156 590 108 471 q 292 799 204 710 q 502 939 381 889 q 771 989 624 989 q 1042 937 926 989 q 1222 786 1157 885 q 1286 546 1286 688 q 1265 388 1286 467 q 1200 244 1243 310 q 1090 140 1157 179 q 933 100 1024 100 q 820 130 865 100 q 772 215 775 160 q 772 223 772 218 q 774 233 772 228 l 771 233 q 683 135 739 171 q 565 100 626 100 q 429 163 475 100 q 383 319 383 225 q 408 468 383 394 q 475 601 432 542 q 576 697 518 661 q 703 733 635 733 q 847 633 822 733 l 850 633 l 871 706 l 1054 706 q 1013 585 1035 650 q 971 458 990 519 q 939 349 951 396 q 926 283 926 303 q 935 253 926 265 q 967 242 944 242 q 1055 285 1017 242 q 1114 397 1093 329 q 1135 539 1135 465 q 1092 710 1135 638 q 969 822 1049 782 q 781 863 890 863 q 587 826 679 863 q 424 722 494 790 q 312 556 353 653 q 271 340 271 460 q 326 122 271 210 q 480 -10 382 35 q 703 -54 578 -54 q 888 -34 799 -54 q 1053 24 976 -14 m 747 599 q 690 572 718 599 q 638 505 661 546 q 600 417 614 464 q 586 331 586 371 q 597 273 586 301 q 639 244 607 244 q 721 307 682 244 q 756 381 739 336 q 785 470 774 426 q 797 536 797 514 q 786 578 797 558 q 747 599 775 599 z "},"A":{"ha":1069,"x_min":-65,"x_max":999,"o":"m 832 969 l 999 0 l 735 0 l 707 208 l 336 208 l 218 0 l -65 0 l 521 969 l 832 969 m 435 389 l 689 389 q 664 592 674 513 q 651 717 654 671 q 646 783 647 763 l 643 783 q 612 717 635 763 q 547 593 589 672 q 435 389 504 514 z "},"B":{"ha":892,"x_min":11,"x_max":903,"o":"m 217 969 l 538 969 q 726 953 643 969 q 856 889 808 936 q 903 749 903 842 q 835 585 903 651 q 654 501 768 519 l 654 499 q 794 434 746 485 q 843 301 843 383 q 803 157 843 215 q 699 64 764 99 q 557 15 633 29 q 406 0 481 0 l 11 0 l 217 969 m 431 797 l 385 581 l 444 581 q 509 585 474 581 q 576 601 544 589 q 627 638 607 614 q 647 704 647 663 q 610 775 647 753 q 479 797 574 797 l 431 797 m 351 414 l 299 176 l 358 176 q 477 187 426 176 q 556 227 528 197 q 585 315 585 257 q 540 392 585 371 q 396 414 496 414 l 351 414 z "},"C":{"ha":892,"x_min":69,"x_max":951,"o":"m 951 935 l 894 740 q 799 773 849 763 q 689 783 750 783 q 502 738 582 783 q 378 615 422 693 q 335 439 335 538 q 410 248 335 313 q 608 183 486 183 q 701 192 653 183 q 803 224 750 201 l 771 18 q 547 -11 679 -11 q 364 15 450 -11 q 211 93 278 40 q 107 227 144 146 q 69 419 69 308 q 117 646 69 543 q 247 823 164 749 q 441 938 331 897 q 679 979 551 979 q 951 935 835 979 z "},"D":{"ha":1039,"x_min":11,"x_max":1025,"o":"m 11 0 l 217 969 l 504 969 q 781 923 664 969 q 961 782 897 876 q 1025 543 1025 688 q 977 311 1025 413 q 845 140 929 210 q 650 35 761 71 q 413 0 539 0 l 11 0 m 435 788 l 308 186 l 357 186 q 576 231 485 186 q 715 355 667 275 q 764 542 764 435 q 686 725 764 663 q 465 788 608 788 l 435 788 z "},"E":{"ha":796,"x_min":11,"x_max":860,"o":"m 217 969 l 860 969 l 824 788 l 426 788 l 385 586 l 760 586 l 722 404 l 346 404 l 300 186 l 708 186 l 672 0 l 11 0 l 217 969 z "},"F":{"ha":753,"x_min":11,"x_max":843,"o":"m 217 969 l 843 969 l 807 785 l 432 785 l 388 574 l 746 574 l 706 392 l 353 392 l 268 0 l 11 0 l 217 969 z "},"G":{"ha":1003,"x_min":69,"x_max":1011,"o":"m 1011 931 l 954 733 q 699 792 839 792 q 504 744 586 792 q 378 615 422 696 q 335 432 335 533 q 363 303 335 361 q 449 210 392 244 q 588 176 506 176 q 626 178 608 176 q 667 185 644 179 l 714 385 l 549 385 l 588 557 l 981 557 l 864 26 q 724 -1 794 7 q 581 -10 653 -10 q 385 14 478 -10 q 222 88 293 38 q 110 219 151 139 q 69 411 69 299 q 114 642 69 538 q 241 822 158 746 q 438 938 324 897 q 690 979 551 979 q 866 967 789 979 q 1011 931 943 954 z "},"H":{"ha":1013,"x_min":11,"x_max":1063,"o":"m 217 969 l 475 969 l 399 604 l 728 604 l 804 969 l 1063 969 l 856 0 l 599 0 l 686 410 l 357 410 l 268 0 l 11 0 l 217 969 z "},"I":{"ha":425,"x_min":11,"x_max":475,"o":"m 217 969 l 475 969 l 269 0 l 11 0 l 217 969 z "},"J":{"ha":572,"x_min":-51,"x_max":629,"o":"m 369 969 l 629 969 l 481 271 q 423 128 464 193 q 309 23 382 63 q 122 -17 236 -17 q 38 -10 83 -17 q -51 10 -7 -4 l 1 206 q 43 194 21 199 q 90 189 65 189 q 189 226 158 189 q 240 361 219 264 l 369 969 z "},"K":{"ha":961,"x_min":11,"x_max":1081,"o":"m 361 465 l 267 0 l 11 0 l 217 969 l 472 969 l 386 574 l 389 574 q 489 688 407 594 q 746 969 571 782 l 1081 969 l 614 503 l 906 0 l 607 0 q 458 281 519 161 q 364 465 396 400 l 361 465 z "},"L":{"ha":761,"x_min":11,"x_max":718,"o":"m 217 969 l 475 969 l 308 189 l 718 189 l 678 0 l 11 0 l 217 969 z "},"M":{"ha":1351,"x_min":7,"x_max":1401,"o":"m 226 969 l 622 969 q 630 814 626 899 q 637 644 633 729 q 643 485 640 560 q 647 359 646 411 q 649 290 649 307 l 651 290 q 686 369 664 321 q 747 496 708 418 q 846 690 786 574 q 992 969 906 806 l 1401 969 l 1196 0 l 938 0 l 1047 499 q 1067 583 1054 531 q 1093 694 1079 636 q 1119 797 1107 753 l 1117 797 q 1067 698 1106 774 q 972 510 1029 622 q 847 267 915 399 q 708 0 779 135 l 458 0 q 447 183 453 85 q 435 380 440 282 q 425 563 429 478 q 418 710 421 649 q 415 793 415 771 l 413 793 q 401 734 408 772 q 384 651 393 696 q 366 565 375 606 q 351 499 357 524 l 244 0 l 7 0 l 226 969 z "},"N":{"ha":1035,"x_min":11,"x_max":1085,"o":"m 760 532 l 842 969 l 1085 969 l 879 0 l 553 0 q 436 483 475 299 q 390 725 397 668 l 388 725 q 379 665 385 706 q 365 574 374 624 q 349 478 357 525 q 335 397 342 431 l 257 0 l 11 0 l 217 969 l 553 969 q 643 601 610 747 q 693 373 676 456 q 715 254 710 290 l 718 254 q 728 331 721 281 q 744 438 735 382 q 760 532 753 493 z "},"O":{"ha":1075,"x_min":72,"x_max":1067,"o":"m 644 988 q 959 885 851 988 q 1067 589 1067 782 q 1030 354 1067 464 q 921 161 993 244 q 742 30 849 78 q 496 -18 636 -18 q 186 85 300 -18 q 72 385 72 188 q 112 617 72 508 q 226 810 151 726 q 406 940 300 893 q 644 988 511 988 m 626 803 q 516 770 568 803 q 424 680 464 738 q 362 547 385 622 q 339 385 339 471 q 383 224 339 279 q 507 168 426 168 q 656 224 589 168 q 762 377 722 281 q 801 593 801 474 q 756 750 801 697 q 626 803 711 803 z "},"P":{"ha":851,"x_min":11,"x_max":894,"o":"m 340 346 l 268 0 l 11 0 l 217 969 l 493 969 q 651 958 578 969 q 778 917 724 946 q 864 833 833 888 q 894 693 894 779 q 833 494 894 572 q 667 380 772 417 q 426 343 561 343 q 384 344 404 343 q 340 346 364 344 m 433 792 l 378 528 q 401 526 389 526 q 422 526 413 526 q 583 563 528 526 q 639 683 639 599 q 613 755 639 732 q 545 785 588 778 q 453 792 503 792 l 433 792 z "},"Q":{"ha":1075,"x_min":72,"x_max":1067,"o":"m 644 988 q 959 885 851 988 q 1067 589 1067 782 q 1031 356 1067 465 q 924 163 994 247 q 749 32 854 79 l 931 -185 l 629 -185 l 521 -17 q 509 -18 515 -18 q 496 -18 503 -18 q 186 85 300 -18 q 72 385 72 188 q 112 617 72 508 q 226 810 151 726 q 406 940 300 893 q 644 988 511 988 m 626 803 q 516 770 568 803 q 424 680 464 738 q 362 547 385 622 q 339 385 339 471 q 383 222 339 279 q 507 165 426 165 q 656 222 589 165 q 762 376 722 279 q 801 593 801 474 q 756 750 801 697 q 626 803 711 803 z "},"R":{"ha":915,"x_min":11,"x_max":931,"o":"m 217 969 l 488 969 q 653 960 574 969 q 794 926 732 951 q 894 854 857 901 q 931 732 931 807 q 890 589 931 646 q 783 503 850 532 q 633 467 715 474 l 633 464 q 694 432 671 451 q 735 376 717 413 q 771 276 753 340 l 851 0 l 589 0 l 531 233 q 499 326 515 293 q 454 372 483 358 q 369 385 425 385 l 344 385 l 264 0 l 11 0 l 217 969 m 425 792 l 378 556 q 412 554 394 554 q 451 554 429 554 q 613 586 557 554 q 668 689 668 618 q 619 774 668 757 q 486 792 569 792 l 425 792 z "},"S":{"ha":826,"x_min":-4,"x_max":856,"o":"m 856 946 l 793 753 q 686 788 746 775 q 568 800 626 800 q 440 774 486 800 q 393 701 393 749 q 430 637 393 664 q 546 579 467 610 q 662 522 611 554 q 742 440 713 489 q 772 313 772 390 q 717 137 772 211 q 561 22 663 63 q 322 -18 460 -18 q 153 -5 231 -18 q -4 35 75 8 l 57 232 q 190 189 126 203 q 310 175 254 175 q 499 286 499 175 q 469 351 499 322 q 349 415 439 381 q 235 472 286 439 q 155 552 185 504 q 125 668 125 600 q 164 820 125 758 q 268 919 203 882 q 413 972 333 956 q 576 989 493 989 q 727 978 654 989 q 856 946 800 967 z "},"T":{"ha":761,"x_min":108,"x_max":885,"o":"m 150 969 l 885 969 l 843 778 l 608 781 l 444 0 l 186 0 l 353 781 l 108 778 l 150 969 z "},"U":{"ha":1000,"x_min":79,"x_max":1063,"o":"m 211 969 l 475 969 l 372 513 q 349 387 357 444 q 340 301 340 329 q 374 199 340 232 q 468 165 407 165 q 576 192 536 165 q 642 281 617 219 q 690 446 668 343 l 807 969 l 1063 969 l 928 364 q 844 149 899 233 q 698 23 789 64 q 469 -18 607 -18 q 266 10 354 -18 q 128 104 178 39 q 79 283 79 169 q 85 358 79 314 q 100 450 90 401 l 211 969 z "},"V":{"ha":969,"x_min":126,"x_max":1108,"o":"m 126 969 l 389 969 q 437 435 422 614 q 453 224 451 257 l 456 224 q 560 437 471 257 q 832 969 649 617 l 1108 969 l 574 0 l 254 0 l 126 969 z "},"W":{"ha":1463,"x_min":129,"x_max":1588,"o":"m 807 0 q 811 372 808 208 q 818 642 814 536 q 825 786 822 749 l 822 786 q 771 642 811 749 q 667 372 731 535 q 517 0 603 208 l 176 0 l 129 969 l 390 969 q 393 665 392 789 q 395 460 394 540 q 396 331 396 379 q 396 258 396 283 q 396 215 396 232 l 399 215 q 410 249 403 229 q 433 313 417 269 q 479 435 449 356 q 560 644 510 514 q 685 969 610 774 l 1029 969 q 1028 685 1029 803 q 1026 489 1026 568 q 1024 358 1025 410 q 1020 274 1022 307 q 1017 215 1018 242 l 1019 215 q 1035 258 1025 231 q 1065 334 1046 285 q 1119 465 1085 383 q 1204 670 1153 547 q 1331 969 1256 793 l 1588 969 l 1149 0 l 807 0 z "},"X":{"ha":992,"x_min":-62,"x_max":1097,"o":"m 551 653 q 627 759 575 686 q 782 969 679 832 l 1097 969 l 706 506 l 921 0 l 639 0 q 561 213 593 119 q 514 353 529 307 q 413 213 482 307 q 249 0 343 119 l -62 0 l 368 514 l 167 969 l 439 969 q 516 760 492 835 q 551 653 540 686 z "},"Y":{"ha":922,"x_min":111,"x_max":1057,"o":"m 111 969 l 375 969 q 435 776 413 850 q 472 657 458 703 q 493 575 485 611 l 494 575 q 532 633 511 601 q 583 708 553 664 q 659 815 614 751 q 771 969 704 878 l 1057 969 l 588 374 l 513 0 l 251 0 l 333 372 l 111 969 z "},"Z":{"ha":846,"x_min":-32,"x_max":931,"o":"m 888 769 q 501 367 650 515 q 317 186 351 218 l 772 186 l 735 0 l -32 0 l 15 197 q 291 486 171 361 q 487 690 411 611 q 585 788 563 768 l 154 788 l 194 969 l 931 969 l 888 769 z "},"[":{"ha":528,"x_min":-1,"x_max":624,"o":"m 265 1056 l 624 1056 l 594 903 l 435 903 l 236 -40 l 397 -40 l 367 -194 l -1 -194 l 265 1056 z "},"\\":{"ha":708,"x_min":158,"x_max":615,"o":"m 444 0 l 158 969 l 328 969 l 615 0 l 444 0 z "},"]":{"ha":528,"x_min":-56,"x_max":569,"o":"m 201 1056 l 569 1056 l 303 -194 l -56 -194 l -26 -40 l 135 -40 l 332 903 l 171 903 l 201 1056 z "},"^":{"ha":850,"x_min":115,"x_max":794,"o":"m 393 600 l 314 363 l 115 363 l 360 971 l 550 971 l 794 363 l 594 363 l 514 600 q 494 664 507 622 q 469 747 481 706 q 454 808 458 788 l 451 808 q 436 746 447 788 q 413 663 425 704 q 393 600 400 622 z "},"_":{"ha":694,"x_min":0,"x_max":694,"o":"m 0 -108 l 694 -108 l 694 -178 l 0 -178 l 0 -108 z "},"`":{"ha":694,"x_min":236,"x_max":522,"o":"m 401 804 l 236 1050 l 451 1050 l 522 804 l 401 804 z "},"a":{"ha":822,"x_min":7,"x_max":768,"o":"m 519 321 q 490 324 506 324 q 460 325 474 325 q 297 298 350 325 q 244 217 244 271 q 268 161 244 182 q 333 140 292 140 q 458 189 407 140 q 519 321 510 238 m 497 106 l 494 106 q 240 -14 410 -14 q 71 43 135 -14 q 7 194 7 100 q 119 388 7 324 q 431 453 231 453 q 481 451 456 453 q 539 447 506 450 q 542 472 542 458 q 505 556 542 531 q 393 581 468 581 q 272 566 338 581 q 158 526 206 551 l 178 699 q 319 731 254 722 q 453 740 385 740 q 686 683 604 740 q 768 508 768 625 q 760 427 768 478 q 740 319 751 376 q 718 209 729 261 q 703 125 707 157 q 694 65 699 100 q 690 0 690 31 l 486 0 q 497 106 488 54 z "},"b":{"ha":915,"x_min":10,"x_max":878,"o":"m 378 626 l 381 626 q 480 710 418 679 q 611 740 542 740 q 807 661 736 740 q 878 443 878 582 q 851 265 878 349 q 772 118 824 182 q 650 18 721 54 q 492 -18 579 -18 q 352 18 408 -18 q 268 117 296 54 l 265 117 l 244 0 l 10 0 l 232 1050 l 479 1050 l 422 800 q 399 707 413 756 q 378 626 386 658 m 506 567 q 409 531 453 567 q 340 437 365 496 q 315 308 315 378 q 349 201 315 244 q 443 158 383 158 q 538 194 496 158 q 603 290 579 231 q 626 418 626 349 q 597 523 626 479 q 506 567 567 567 z "},"c":{"ha":672,"x_min":44,"x_max":701,"o":"m 701 697 l 647 518 q 580 540 613 533 q 517 546 547 546 q 355 485 414 546 q 296 329 296 425 q 338 216 296 260 q 461 172 381 172 q 527 177 494 172 q 599 196 560 182 l 565 10 q 485 -6 522 -1 q 406 -11 447 -11 q 141 76 238 -11 q 44 317 44 164 q 101 535 44 442 q 259 681 157 629 q 497 732 361 732 q 606 723 556 732 q 701 697 657 714 z "},"d":{"ha":915,"x_min":43,"x_max":990,"o":"m 415 157 q 513 192 469 157 q 581 287 556 228 q 606 415 606 346 q 572 522 606 479 q 478 565 539 565 q 383 529 425 565 q 318 434 342 493 q 294 306 294 375 q 324 201 294 244 q 415 157 354 157 m 561 119 l 558 119 q 453 19 518 56 q 307 -18 388 -18 q 163 23 222 -18 q 74 133 104 64 q 43 286 43 203 q 71 460 43 378 q 151 605 99 542 q 274 704 203 668 q 432 740 344 740 q 573 701 518 740 q 650 599 628 661 l 653 599 q 667 688 657 631 q 689 800 678 746 l 742 1050 l 990 1050 l 803 208 q 783 107 793 165 q 769 0 774 49 l 539 0 q 546 47 540 17 q 561 119 551 78 z "},"e":{"ha":838,"x_min":46,"x_max":817,"o":"m 799 297 l 282 297 q 281 287 281 292 q 281 279 281 282 q 333 180 281 213 q 471 147 386 147 q 594 162 528 147 q 717 203 660 176 l 690 29 q 571 -6 640 7 q 440 -18 501 -18 q 149 67 251 -18 q 46 303 46 151 q 97 524 46 425 q 247 681 147 622 q 490 740 346 740 q 728 663 640 740 q 817 453 817 585 q 799 297 817 383 m 299 433 l 597 433 q 599 450 599 440 q 600 469 600 460 q 569 565 600 535 q 479 594 538 594 q 365 553 413 594 q 299 433 317 511 z "},"f":{"ha":569,"x_min":38,"x_max":711,"o":"m 711 1036 l 669 872 q 637 881 653 878 q 601 883 621 883 q 524 849 554 883 q 478 740 494 814 l 474 722 l 640 722 l 603 547 l 436 547 l 321 0 l 69 0 q 78 33 74 14 q 90 84 82 51 q 109 174 97 117 q 140 322 121 231 q 186 547 158 413 l 38 547 l 76 722 l 224 722 l 235 769 q 292 918 254 854 q 395 1019 329 982 q 565 1056 461 1056 q 638 1051 603 1056 q 711 1036 672 1047 z "},"g":{"ha":915,"x_min":26,"x_max":917,"o":"m 656 603 l 681 722 l 917 722 l 765 26 q 692 -154 743 -79 q 549 -269 640 -229 q 311 -308 457 -308 q 163 -296 242 -308 q 26 -261 85 -283 l 75 -75 q 192 -117 132 -101 q 311 -133 251 -133 q 478 -74 422 -133 q 564 128 535 -15 l 561 128 q 451 32 515 64 q 317 0 386 0 q 115 81 186 0 q 43 297 43 163 q 70 463 43 383 q 149 604 97 542 q 272 703 200 667 q 435 740 344 740 q 576 701 521 740 q 653 603 631 663 l 656 603 m 415 175 q 512 210 468 175 q 582 301 556 244 q 608 425 608 358 q 575 528 608 486 q 481 569 542 569 q 387 535 429 569 q 319 443 344 500 q 294 318 294 386 q 324 217 294 258 q 415 175 354 175 z "},"h":{"ha":915,"x_min":7,"x_max":856,"o":"m 481 1050 l 433 833 q 416 758 426 801 q 395 674 406 714 q 378 615 385 635 l 381 615 q 490 713 431 685 q 615 740 549 740 q 792 674 728 740 q 856 492 856 607 q 850 410 856 453 q 835 325 844 368 l 767 0 l 522 0 l 592 335 q 601 389 597 358 q 606 436 606 419 q 583 515 606 486 q 511 543 560 543 q 397 490 446 543 q 329 346 349 436 l 257 0 l 7 0 l 231 1050 l 481 1050 z "},"i":{"ha":417,"x_min":7,"x_max":469,"o":"m 469 1014 l 431 831 l 179 831 l 219 1014 l 469 1014 m 260 0 l 7 0 l 161 722 l 413 722 l 260 0 z "},"j":{"ha":417,"x_min":-187,"x_max":474,"o":"m 474 1014 l 435 831 l 183 831 l 224 1014 l 474 1014 m 161 722 l 413 722 l 254 -32 q 201 -181 236 -119 q 101 -276 165 -243 q -71 -308 38 -308 q -131 -303 -99 -308 q -187 -292 -164 -297 l -146 -106 q -119 -112 -133 -110 q -94 -114 -104 -114 q -29 -92 -53 -114 q 4 -21 -6 -69 l 161 722 z "},"k":{"ha":838,"x_min":7,"x_max":888,"o":"m 333 381 l 258 0 l 7 0 l 231 1050 l 482 1050 l 346 440 l 349 440 q 378 476 356 449 q 451 563 400 504 q 589 722 501 621 l 888 722 l 583 399 l 771 0 l 488 0 q 399 210 431 133 q 354 326 368 288 q 336 381 340 364 l 333 381 z "},"l":{"ha":417,"x_min":7,"x_max":481,"o":"m 231 1050 l 481 1050 l 258 0 l 7 0 l 231 1050 z "},"m":{"ha":1375,"x_min":6,"x_max":1322,"o":"m 358 604 l 361 604 q 478 707 413 674 q 617 740 543 740 q 747 707 693 740 q 815 610 801 674 q 925 703 857 667 q 1078 740 993 740 q 1260 674 1197 740 q 1322 493 1322 608 q 1317 411 1322 454 q 1301 325 1311 368 l 1233 0 l 989 0 l 1058 335 q 1068 389 1064 358 q 1072 436 1072 419 q 1049 515 1072 486 q 978 543 1026 543 q 878 499 921 543 q 819 383 835 456 l 742 0 l 497 0 l 567 335 q 576 389 572 358 q 581 436 581 419 q 565 515 581 486 q 500 543 549 543 q 390 490 435 543 q 326 346 346 436 l 254 0 l 6 0 l 124 563 q 138 641 131 599 q 150 722 144 683 l 378 722 q 370 664 376 699 q 358 604 364 629 z "},"n":{"ha":906,"x_min":6,"x_max":853,"o":"m 358 604 l 361 604 q 476 707 413 674 q 613 740 539 740 q 789 674 725 740 q 853 493 853 608 q 847 411 853 454 q 832 325 842 368 l 764 0 l 519 0 l 589 335 q 599 389 594 358 q 603 436 603 419 q 580 515 603 486 q 508 543 557 543 q 394 490 443 543 q 326 346 346 436 l 254 0 l 6 0 l 124 563 q 138 641 131 599 q 150 722 144 683 l 378 722 q 370 664 376 699 q 358 604 364 629 z "},"o":{"ha":903,"x_min":44,"x_max":857,"o":"m 504 740 q 692 698 613 740 q 814 581 771 656 q 857 406 857 506 q 800 178 857 274 q 641 33 743 83 q 406 -18 539 -18 q 140 67 235 -18 q 44 306 44 151 q 101 529 44 431 q 262 684 158 628 q 504 740 365 740 m 483 569 q 389 535 432 569 q 319 442 346 500 q 293 313 293 383 q 328 194 293 238 q 424 151 363 151 q 520 186 478 151 q 586 281 563 221 q 610 415 610 340 q 577 527 610 485 q 483 569 544 569 z "},"p":{"ha":915,"x_min":-61,"x_max":874,"o":"m 228 -58 l 179 -292 l -61 -292 l 128 601 q 140 666 135 636 q 147 722 144 696 l 378 722 q 369 661 374 690 q 358 604 365 632 l 361 604 q 471 706 404 671 q 607 740 538 740 q 758 701 699 740 q 845 595 817 663 q 874 443 874 528 q 847 265 874 349 q 768 118 819 182 q 645 18 717 54 q 483 -18 574 -18 q 344 22 404 -18 q 264 124 283 63 l 261 124 q 246 37 256 92 q 228 -58 236 -18 m 501 567 q 405 531 449 567 q 336 437 361 496 q 311 308 311 378 q 345 201 311 244 q 439 158 379 158 q 533 194 492 158 q 599 290 575 231 q 622 418 622 349 q 592 523 622 479 q 501 567 563 567 z "},"q":{"ha":915,"x_min":29,"x_max":914,"o":"m 636 599 l 639 599 q 655 661 646 626 q 672 722 664 696 l 914 722 q 900 665 908 700 q 885 600 892 631 l 692 -292 l 447 -292 l 543 113 l 540 113 q 433 16 500 50 q 296 -18 365 -18 q 103 63 176 -18 q 29 283 29 144 q 57 459 29 376 q 137 605 85 542 q 262 704 189 668 q 424 740 335 740 q 560 701 506 740 q 636 599 615 663 m 401 157 q 499 192 456 157 q 567 287 542 228 q 592 415 592 346 q 558 522 592 479 q 464 565 525 565 q 369 529 411 565 q 304 434 328 493 q 281 306 281 375 q 310 201 281 244 q 401 157 340 157 z "},"r":{"ha":606,"x_min":6,"x_max":660,"o":"m 363 604 l 365 604 q 465 706 413 671 q 590 740 517 740 q 626 738 607 740 q 660 731 646 736 l 607 517 q 563 531 586 526 q 515 535 539 535 q 388 478 435 535 q 322 331 342 421 l 254 0 l 6 0 l 124 563 q 138 641 131 599 q 150 722 144 683 l 378 722 q 372 664 376 699 q 363 604 368 629 z "},"s":{"ha":657,"x_min":-12,"x_max":664,"o":"m 664 699 l 614 532 q 522 563 571 551 q 428 574 472 574 q 355 563 383 574 q 326 522 326 551 q 350 479 326 496 q 428 436 374 463 q 559 347 518 393 q 600 228 600 301 q 567 105 600 153 q 479 30 533 57 q 362 -8 425 3 q 238 -18 299 -18 q 105 -8 172 -18 q -12 21 38 3 l 35 200 q 133 169 76 182 q 233 156 189 156 q 319 171 293 156 q 344 217 344 186 q 318 264 344 244 q 222 314 292 283 q 113 390 151 346 q 75 499 75 433 q 122 631 75 576 q 249 713 168 685 q 432 740 331 740 q 551 730 494 740 q 664 699 608 719 z "},"t":{"ha":582,"x_min":49,"x_max":636,"o":"m 247 881 l 511 950 l 461 722 l 636 722 l 603 547 l 424 547 l 365 275 q 358 226 358 244 q 379 174 358 192 q 436 156 400 156 q 469 159 454 156 q 504 168 485 163 l 478 1 q 358 -12 422 -12 q 169 44 232 -12 q 107 200 107 101 q 115 276 107 235 l 175 547 l 49 547 l 86 722 l 213 722 l 247 881 z "},"u":{"ha":915,"x_min":57,"x_max":904,"o":"m 547 104 l 544 104 q 432 13 493 44 q 297 -18 371 -18 q 121 49 185 -18 q 57 232 57 117 q 63 313 57 272 q 78 397 68 354 l 146 722 l 390 722 l 321 388 q 311 334 315 365 q 307 286 307 303 q 331 208 307 236 q 401 179 354 179 q 515 233 467 179 q 583 376 564 288 l 656 722 l 904 722 l 786 160 q 772 83 779 125 q 760 0 765 40 l 532 0 q 547 104 536 53 z "},"v":{"ha":843,"x_min":89,"x_max":928,"o":"m 89 722 l 342 722 q 368 478 358 574 q 383 326 378 382 q 389 241 388 269 q 390 199 390 213 l 393 199 q 413 242 400 214 q 454 326 426 271 q 531 478 482 382 q 658 722 581 574 l 928 722 l 504 0 l 210 0 l 89 722 z "},"w":{"ha":1306,"x_min":78,"x_max":1392,"o":"m 464 0 l 158 0 l 78 722 l 324 722 q 338 467 332 567 q 346 308 343 367 q 350 220 349 250 q 351 175 351 190 l 354 175 q 371 219 360 190 q 405 306 382 249 q 471 464 428 364 q 583 722 514 564 l 874 722 q 881 474 878 574 q 887 314 885 375 q 890 220 889 253 q 890 172 890 188 l 893 172 q 910 217 900 188 q 945 303 921 246 q 1015 463 969 361 q 1135 722 1060 564 l 1392 722 l 1008 0 l 703 0 q 696 247 699 150 q 692 400 693 343 q 690 486 690 457 q 689 531 689 515 l 688 531 q 674 494 683 518 q 642 415 665 469 q 577 260 619 360 q 464 0 535 161 z "},"x":{"ha":838,"x_min":-64,"x_max":906,"o":"m 451 500 q 503 574 467 525 q 614 722 539 624 l 906 722 l 593 369 l 772 0 l 499 0 q 442 142 464 81 q 410 235 421 204 q 347 144 390 204 q 238 0 303 83 l -64 0 l 267 379 l 101 722 l 369 722 q 426 575 408 625 q 451 500 443 525 z "},"y":{"ha":843,"x_min":-64,"x_max":918,"o":"m 83 722 l 338 722 q 366 469 356 568 q 382 314 376 371 q 390 228 388 257 q 393 185 393 200 l 396 185 q 415 228 401 200 q 455 314 428 257 q 531 469 482 371 q 656 722 579 568 l 918 722 l 492 -42 q 392 -190 442 -131 q 274 -278 342 -249 q 101 -308 206 -308 q 15 -299 61 -308 q -64 -276 -31 -290 l -14 -104 q 29 -117 6 -111 q 79 -122 53 -122 q 169 -96 136 -122 q 225 -17 203 -69 l 83 722 z "},"z":{"ha":713,"x_min":-35,"x_max":742,"o":"m 742 722 l 700 526 q 438 297 544 388 q 303 183 332 206 l 303 181 l 636 181 l 599 0 l -35 0 l 6 189 q 183 349 113 285 q 298 451 254 413 q 365 511 342 490 q 399 540 388 532 l 399 543 l 89 543 l 131 722 l 742 722 z "},"{":{"ha":528,"x_min":26,"x_max":601,"o":"m 26 379 l 50 482 q 134 505 104 485 q 180 565 164 525 q 207 665 196 606 l 226 764 q 291 935 247 871 q 410 1027 335 999 q 601 1056 485 1056 l 574 922 q 472 883 501 922 q 428 769 443 843 l 414 701 q 375 558 397 615 q 313 470 353 501 q 203 432 274 439 l 201 429 q 321 304 321 406 q 317 257 321 283 q 305 190 314 231 q 281 83 296 150 q 272 46 275 60 q 269 14 269 32 q 290 -44 269 -25 q 360 -68 311 -62 l 336 -194 q 142 -147 214 -186 q 69 -29 69 -107 q 75 35 69 1 q 90 111 81 68 q 110 207 104 172 q 119 260 117 242 q 122 290 122 278 q 103 352 122 332 q 26 379 83 372 z "},"|":{"ha":356,"x_min":115,"x_max":293,"o":"m 115 -297 l 115 1092 l 293 1092 l 293 -297 l 115 -297 z "},"}":{"ha":528,"x_min":-29,"x_max":546,"o":"m 546 482 l 522 379 q 438 357 468 378 q 393 296 408 336 q 365 196 378 256 l 346 97 q 282 -74 325 -10 q 163 -166 239 -137 q -29 -194 88 -194 l -1 -61 q 101 -21 71 -61 q 144 92 131 19 l 158 160 q 198 303 176 246 q 260 392 219 361 q 369 429 300 422 l 371 432 q 251 557 251 456 q 255 605 251 579 q 267 672 258 631 q 292 778 276 713 q 300 815 297 801 q 303 847 303 829 q 282 905 303 886 q 213 929 261 924 l 236 1056 q 431 1008 358 1047 q 503 890 503 968 q 498 827 503 860 q 482 750 493 794 q 463 654 469 689 q 453 601 456 619 q 450 571 450 583 q 469 509 450 529 q 546 482 489 489 z "},"~":{"ha":850,"x_min":79,"x_max":799,"o":"m 799 490 l 799 289 q 717 224 767 250 q 611 199 667 199 q 508 217 553 199 q 423 260 463 236 q 342 302 383 283 q 251 321 301 321 q 151 288 194 321 q 79 211 107 254 l 79 413 q 161 478 111 453 q 267 503 211 503 q 370 484 325 503 q 455 442 415 465 q 535 399 494 418 q 626 381 576 381 q 727 414 683 381 q 799 490 771 447 z "}," ":{"ha":361,"x_min":0,"x_max":0,"o":""},"À":{"ha":1069,"x_min":-65,"x_max":999,"o":"m 832 969 l 999 0 l 735 0 l 707 208 l 336 208 l 218 0 l -65 0 l 521 969 l 832 969 m 435 389 l 689 389 q 664 592 674 513 q 651 717 654 671 q 646 783 647 763 l 643 783 q 612 717 635 763 q 547 593 589 672 q 435 389 504 514 m 447 1261 l 681 1261 l 769 1042 l 625 1042 l 447 1261 z "},"Á":{"ha":1069,"x_min":-65,"x_max":1007,"o":"m 832 969 l 999 0 l 735 0 l 707 208 l 336 208 l 218 0 l -65 0 l 521 969 l 832 969 m 435 389 l 689 389 q 664 592 674 513 q 651 717 654 671 q 646 783 647 763 l 643 783 q 612 717 635 763 q 547 593 589 672 q 435 389 504 514 m 1007 1261 l 736 1042 l 590 1042 l 753 1261 l 1007 1261 z "},"Â":{"ha":1069,"x_min":-65,"x_max":999,"o":"m 832 969 l 999 0 l 735 0 l 707 208 l 336 208 l 218 0 l -65 0 l 521 969 l 832 969 m 435 389 l 689 389 q 664 592 674 513 q 651 717 654 671 q 646 783 647 763 l 643 783 q 612 717 635 763 q 547 593 589 672 q 435 389 504 514 m 919 1042 l 790 1042 l 717 1146 l 607 1042 l 458 1042 l 665 1260 l 818 1260 l 919 1042 z "},"Ã":{"ha":1069,"x_min":-65,"x_max":999,"o":"m 832 969 l 999 0 l 735 0 l 707 208 l 336 208 l 218 0 l -65 0 l 521 969 l 832 969 m 435 389 l 689 389 q 664 592 674 513 q 651 717 654 671 q 646 783 647 763 l 643 783 q 612 717 635 763 q 547 593 589 672 q 435 389 504 514 m 539 1053 l 444 1053 q 505 1194 461 1139 q 613 1250 549 1250 q 663 1241 640 1250 q 717 1213 686 1232 q 772 1183 751 1192 q 810 1175 792 1175 q 851 1191 836 1175 q 875 1246 865 1207 l 971 1246 q 914 1103 954 1160 q 807 1047 874 1047 q 750 1058 776 1047 q 690 1088 724 1068 q 643 1113 663 1104 q 606 1122 624 1122 q 568 1106 586 1122 q 539 1053 550 1089 z "},"Ä":{"ha":1069,"x_min":-65,"x_max":999,"o":"m 832 969 l 999 0 l 735 0 l 707 208 l 336 208 l 218 0 l -65 0 l 521 969 l 832 969 m 435 389 l 689 389 q 664 592 674 513 q 651 717 654 671 q 646 783 647 763 l 643 783 q 612 717 635 763 q 547 593 589 672 q 435 389 504 514 m 676 1263 l 638 1078 l 449 1078 l 488 1263 l 676 1263 m 985 1263 l 946 1078 l 756 1078 l 794 1263 l 985 1263 z "},"Ā":{"ha":1069,"x_min":-65,"x_max":999,"o":"m 832 969 l 999 0 l 735 0 l 707 208 l 336 208 l 218 0 l -65 0 l 521 969 l 832 969 m 435 389 l 689 389 q 664 592 674 513 q 651 717 654 671 q 646 783 647 763 l 643 783 q 612 717 635 763 q 547 593 589 672 q 435 389 504 514 m 932 1215 l 910 1111 l 488 1111 l 510 1215 l 932 1215 z "},"Ă":{"ha":1069,"x_min":-65,"x_max":999,"o":"m 832 969 l 999 0 l 735 0 l 707 208 l 336 208 l 218 0 l -65 0 l 521 969 l 832 969 m 435 389 l 689 389 q 664 592 674 513 q 651 717 654 671 q 646 783 647 763 l 643 783 q 612 717 635 763 q 547 593 589 672 q 435 389 504 514 m 847 1257 l 971 1257 q 874 1088 940 1154 q 683 1022 807 1022 q 565 1049 610 1022 q 501 1121 521 1076 q 482 1214 482 1165 q 483 1236 482 1225 q 485 1257 483 1247 l 599 1257 q 597 1243 597 1250 q 596 1229 596 1236 q 620 1158 596 1186 q 694 1131 644 1131 q 794 1167 757 1131 q 847 1257 832 1203 z "},"Å":{"ha":1069,"x_min":-65,"x_max":999,"o":"m 703 1081 q 756 1103 735 1081 q 776 1158 776 1126 q 755 1210 776 1188 q 703 1232 733 1232 q 651 1210 672 1232 q 629 1158 629 1188 q 651 1103 629 1126 q 703 1081 672 1081 m 703 1014 q 599 1054 643 1014 q 554 1158 554 1094 q 598 1260 554 1219 q 703 1300 642 1300 q 808 1260 764 1300 q 851 1158 851 1219 q 808 1054 851 1094 q 703 1014 764 1014 m 832 969 l 999 0 l 735 0 l 707 208 l 336 208 l 218 0 l -65 0 l 521 969 l 832 969 m 435 389 l 689 389 q 664 592 674 513 q 651 717 654 671 q 646 783 647 763 l 643 783 q 612 717 635 763 q 547 593 589 672 q 435 389 504 514 z "},"Ą":{"ha":1069,"x_min":-65,"x_max":999,"o":"m 832 969 l 999 0 l 854 0 q 774 -77 807 -39 q 742 -154 742 -115 q 801 -206 742 -206 q 834 -203 817 -206 q 874 -194 851 -200 l 868 -289 q 809 -301 838 -297 q 749 -306 781 -306 q 643 -280 688 -306 q 599 -194 599 -254 q 635 -90 599 -137 q 735 0 671 -43 l 707 208 l 336 208 l 218 0 l -65 0 l 521 969 l 832 969 m 435 389 l 689 389 q 664 592 674 513 q 651 717 654 671 q 646 783 647 763 l 643 783 q 612 717 635 763 q 547 593 589 672 q 435 389 504 514 z "},"Æ":{"ha":1308,"x_min":-78,"x_max":1372,"o":"m 590 969 l 1372 969 l 1336 788 l 961 788 l 933 586 l 1272 586 l 1235 404 l 913 404 l 881 186 l 1221 186 l 1185 0 l 604 0 l 633 208 l 356 208 l 224 0 l -78 0 l 590 969 m 463 383 l 660 383 q 682 529 671 454 q 705 674 693 604 q 728 799 717 744 l 725 799 q 613 613 679 718 q 463 383 546 508 z "},"Ć":{"ha":892,"x_min":69,"x_max":999,"o":"m 951 935 l 894 740 q 799 773 849 763 q 689 783 750 783 q 502 738 582 783 q 378 615 422 693 q 335 439 335 538 q 410 248 335 313 q 608 183 486 183 q 701 192 653 183 q 803 224 750 201 l 771 18 q 547 -11 679 -11 q 364 15 450 -11 q 211 93 278 40 q 107 227 144 146 q 69 419 69 308 q 117 646 69 543 q 247 823 164 749 q 441 938 331 897 q 679 979 551 979 q 951 935 835 979 m 999 1261 l 728 1042 l 582 1042 l 744 1261 l 999 1261 z "},"Ĉ":{"ha":892,"x_min":69,"x_max":951,"o":"m 951 935 l 894 740 q 799 773 849 763 q 689 783 750 783 q 502 738 582 783 q 378 615 422 693 q 335 439 335 538 q 410 248 335 313 q 608 183 486 183 q 701 192 653 183 q 803 224 750 201 l 771 18 q 547 -11 679 -11 q 364 15 450 -11 q 211 93 278 40 q 107 227 144 146 q 69 419 69 308 q 117 646 69 543 q 247 823 164 749 q 441 938 331 897 q 679 979 551 979 q 951 935 835 979 m 911 1042 l 782 1042 l 708 1146 l 599 1042 l 450 1042 l 657 1260 l 810 1260 l 911 1042 z "},"Č":{"ha":892,"x_min":69,"x_max":961,"o":"m 951 935 l 894 740 q 799 773 849 763 q 689 783 750 783 q 502 738 582 783 q 378 615 422 693 q 335 439 335 538 q 410 248 335 313 q 608 183 486 183 q 701 192 653 183 q 803 224 750 201 l 771 18 q 547 -11 679 -11 q 364 15 450 -11 q 211 93 278 40 q 107 227 144 146 q 69 419 69 308 q 117 646 69 543 q 247 823 164 749 q 441 938 331 897 q 679 979 551 979 q 951 935 835 979 m 500 1261 l 631 1261 l 704 1157 l 814 1261 l 961 1261 l 754 1043 l 601 1043 l 500 1261 z "},"Ċ":{"ha":892,"x_min":69,"x_max":951,"o":"m 951 935 l 894 740 q 799 773 849 763 q 689 783 750 783 q 502 738 582 783 q 378 615 422 693 q 335 439 335 538 q 410 248 335 313 q 608 183 486 183 q 701 192 653 183 q 803 224 750 201 l 771 18 q 547 -11 679 -11 q 364 15 450 -11 q 211 93 278 40 q 107 227 144 146 q 69 419 69 308 q 117 646 69 543 q 247 823 164 749 q 441 938 331 897 q 679 979 551 979 q 951 935 835 979 m 838 1254 l 799 1071 l 547 1071 l 588 1254 l 838 1254 z "},"Ç":{"ha":892,"x_min":69,"x_max":951,"o":"m 951 935 l 894 740 q 799 773 849 763 q 689 783 750 783 q 502 738 582 783 q 378 615 422 693 q 335 439 335 538 q 410 248 335 313 q 608 183 486 183 q 701 192 653 183 q 803 224 750 201 l 771 18 q 547 -11 679 -11 q 527 -11 538 -11 q 506 -10 517 -11 l 476 -86 q 492 -85 483 -85 q 507 -85 501 -85 q 597 -110 564 -85 q 629 -182 629 -135 q 598 -262 629 -232 q 518 -306 567 -293 q 415 -319 469 -319 q 364 -317 388 -319 q 318 -310 340 -314 l 342 -237 q 414 -244 383 -244 q 453 -241 431 -244 q 492 -226 475 -237 q 508 -196 508 -215 q 486 -163 508 -171 q 432 -156 464 -156 q 403 -157 421 -156 q 368 -162 386 -158 l 418 0 q 240 72 319 19 q 115 210 161 124 q 69 419 69 297 q 117 646 69 543 q 247 823 164 749 q 441 938 331 897 q 679 979 551 979 q 951 935 835 979 z "},"Ď":{"ha":1039,"x_min":11,"x_max":1025,"o":"m 11 0 l 217 969 l 504 969 q 781 923 664 969 q 961 782 897 876 q 1025 543 1025 688 q 977 311 1025 413 q 845 140 929 210 q 650 35 761 71 q 413 0 539 0 l 11 0 m 435 788 l 308 186 l 357 186 q 576 231 485 186 q 715 355 667 275 q 764 542 764 435 q 686 725 764 663 q 465 788 608 788 l 435 788 m 360 1261 l 490 1261 l 564 1157 l 674 1261 l 821 1261 l 614 1043 l 461 1043 l 360 1261 z "},"Đ":{"ha":1039,"x_min":11,"x_max":1025,"o":"m 11 0 l 106 446 l 17 446 l 39 551 l 128 551 l 217 969 l 504 969 q 781 923 664 969 q 961 782 897 876 q 1025 543 1025 688 q 977 311 1025 413 q 845 140 929 210 q 650 35 761 71 q 413 0 539 0 l 11 0 m 435 788 l 385 551 l 563 551 l 540 446 l 363 446 l 308 186 l 357 186 q 576 231 485 186 q 715 355 667 275 q 764 542 764 435 q 686 725 764 663 q 465 788 608 788 l 435 788 z "},"Ð":{"ha":1039,"x_min":11,"x_max":1025,"o":"m 11 0 l 106 446 l 17 446 l 39 551 l 128 551 l 217 969 l 504 969 q 781 923 664 969 q 961 782 897 876 q 1025 543 1025 688 q 977 311 1025 413 q 845 140 929 210 q 650 35 761 71 q 413 0 539 0 l 11 0 m 435 788 l 385 551 l 563 551 l 540 446 l 363 446 l 308 186 l 357 186 q 576 231 485 186 q 715 355 667 275 q 764 542 764 435 q 686 725 764 663 q 465 788 608 788 l 435 788 z "},"È":{"ha":796,"x_min":11,"x_max":860,"o":"m 217 969 l 860 969 l 824 788 l 426 788 l 385 586 l 760 586 l 722 404 l 346 404 l 300 186 l 708 186 l 672 0 l 11 0 l 217 969 m 307 1261 l 540 1261 l 629 1042 l 485 1042 l 307 1261 z "},"É":{"ha":796,"x_min":11,"x_max":860,"o":"m 217 969 l 860 969 l 824 788 l 426 788 l 385 586 l 760 586 l 722 404 l 346 404 l 300 186 l 708 186 l 672 0 l 11 0 l 217 969 m 839 1261 l 568 1042 l 422 1042 l 585 1261 l 839 1261 z "},"Ê":{"ha":796,"x_min":11,"x_max":860,"o":"m 217 969 l 860 969 l 824 788 l 426 788 l 385 586 l 760 586 l 722 404 l 346 404 l 300 186 l 708 186 l 672 0 l 11 0 l 217 969 m 788 1042 l 658 1042 l 585 1146 l 475 1042 l 326 1042 l 533 1260 l 686 1260 l 788 1042 z "},"Ě":{"ha":796,"x_min":11,"x_max":860,"o":"m 217 969 l 860 969 l 824 788 l 426 788 l 385 586 l 760 586 l 722 404 l 346 404 l 300 186 l 708 186 l 672 0 l 11 0 l 217 969 m 358 1261 l 489 1261 l 563 1157 l 672 1261 l 819 1261 l 613 1043 l 460 1043 l 358 1261 z "},"Ë":{"ha":796,"x_min":11,"x_max":860,"o":"m 217 969 l 860 969 l 824 788 l 426 788 l 385 586 l 760 586 l 722 404 l 346 404 l 300 186 l 708 186 l 672 0 l 11 0 l 217 969 m 532 1263 l 493 1078 l 304 1078 l 343 1263 l 532 1263 m 840 1263 l 801 1078 l 611 1078 l 650 1263 l 840 1263 z "},"Ē":{"ha":796,"x_min":11,"x_max":860,"o":"m 217 969 l 860 969 l 824 788 l 426 788 l 385 586 l 760 586 l 722 404 l 346 404 l 300 186 l 708 186 l 672 0 l 11 0 l 217 969 m 793 1215 l 771 1111 l 349 1111 l 371 1215 l 793 1215 z "},"Ĕ":{"ha":796,"x_min":11,"x_max":860,"o":"m 217 969 l 860 969 l 824 788 l 426 788 l 385 586 l 760 586 l 722 404 l 346 404 l 300 186 l 708 186 l 672 0 l 11 0 l 217 969 m 696 1257 l 819 1257 q 722 1088 789 1154 q 532 1022 656 1022 q 414 1049 458 1022 q 350 1121 369 1076 q 331 1214 331 1165 q 331 1236 331 1225 q 333 1257 332 1247 l 447 1257 q 445 1243 446 1250 q 444 1229 444 1236 q 469 1158 444 1186 q 543 1131 493 1131 q 643 1167 606 1131 q 696 1257 681 1203 z "},"Ė":{"ha":796,"x_min":11,"x_max":860,"o":"m 217 969 l 860 969 l 824 788 l 426 788 l 385 586 l 760 586 l 722 404 l 346 404 l 300 186 l 708 186 l 672 0 l 11 0 l 217 969 m 708 1254 l 669 1071 l 418 1071 l 458 1254 l 708 1254 z "},"Ę":{"ha":796,"x_min":11,"x_max":860,"o":"m 217 969 l 860 969 l 824 788 l 426 788 l 385 586 l 756 586 l 715 404 l 346 404 l 300 186 l 708 186 l 672 0 l 621 0 q 541 -77 574 -39 q 508 -154 508 -115 q 568 -206 508 -206 q 601 -203 583 -206 q 640 -194 618 -200 l 635 -289 q 576 -301 604 -297 q 515 -306 547 -306 q 410 -280 454 -306 q 365 -194 365 -254 q 401 -90 365 -137 q 500 0 438 -43 l 11 0 l 217 969 z "},"Ĝ":{"ha":1003,"x_min":69,"x_max":1011,"o":"m 1011 931 l 954 733 q 699 792 839 792 q 504 744 586 792 q 378 615 422 696 q 335 432 335 533 q 363 303 335 361 q 449 210 392 244 q 588 176 506 176 q 626 178 608 176 q 667 185 644 179 l 714 385 l 549 385 l 588 557 l 981 557 l 864 26 q 724 -1 794 7 q 581 -10 653 -10 q 385 14 478 -10 q 222 88 293 38 q 110 219 151 139 q 69 411 69 299 q 114 642 69 538 q 241 822 158 746 q 438 938 324 897 q 690 979 551 979 q 866 967 789 979 q 1011 931 943 954 m 917 1042 l 788 1042 l 714 1146 l 604 1042 l 456 1042 l 663 1260 l 815 1260 l 917 1042 z "},"Ğ":{"ha":1003,"x_min":69,"x_max":1011,"o":"m 1011 931 l 954 733 q 699 792 839 792 q 504 744 586 792 q 378 615 422 696 q 335 432 335 533 q 363 303 335 361 q 449 210 392 244 q 588 176 506 176 q 626 178 608 176 q 667 185 644 179 l 714 385 l 549 385 l 588 557 l 981 557 l 864 26 q 724 -1 794 7 q 581 -10 653 -10 q 385 14 478 -10 q 222 88 293 38 q 110 219 151 139 q 69 411 69 299 q 114 642 69 538 q 241 822 158 746 q 438 938 324 897 q 690 979 551 979 q 866 967 789 979 q 1011 931 943 954 m 846 1257 l 969 1257 q 872 1088 939 1154 q 682 1022 806 1022 q 564 1049 608 1022 q 500 1121 519 1076 q 481 1214 481 1165 q 481 1236 481 1225 q 483 1257 482 1247 l 597 1257 q 595 1243 596 1250 q 594 1229 594 1236 q 619 1158 594 1186 q 693 1131 643 1131 q 793 1167 756 1131 q 846 1257 831 1203 z "},"Ġ":{"ha":1003,"x_min":69,"x_max":1011,"o":"m 1011 931 l 954 733 q 699 792 839 792 q 504 744 586 792 q 378 615 422 696 q 335 432 335 533 q 363 303 335 361 q 449 210 392 244 q 588 176 506 176 q 626 178 608 176 q 667 185 644 179 l 714 385 l 549 385 l 588 557 l 981 557 l 864 26 q 724 -1 794 7 q 581 -10 653 -10 q 385 14 478 -10 q 222 88 293 38 q 110 219 151 139 q 69 411 69 299 q 114 642 69 538 q 241 822 158 746 q 438 938 324 897 q 690 979 551 979 q 866 967 789 979 q 1011 931 943 954 m 851 1254 l 813 1071 l 561 1071 l 601 1254 l 851 1254 z "},"Ģ":{"ha":1003,"x_min":69,"x_max":1011,"o":"m 1011 931 l 954 733 q 699 792 839 792 q 504 744 586 792 q 378 615 422 696 q 335 432 335 533 q 363 303 335 361 q 449 210 392 244 q 588 176 506 176 q 626 178 608 176 q 667 185 644 179 l 714 385 l 549 385 l 588 557 l 981 557 l 864 26 q 724 -1 794 7 q 581 -10 653 -10 q 385 14 478 -10 q 222 88 293 38 q 110 219 151 139 q 69 411 69 299 q 114 642 69 538 q 241 822 158 746 q 438 938 324 897 q 690 979 551 979 q 866 967 789 979 q 1011 931 943 954 m 671 -86 l 426 -329 l 292 -329 l 436 -86 l 671 -86 z "},"Ĥ":{"ha":1013,"x_min":11,"x_max":1063,"o":"m 217 969 l 475 969 l 399 604 l 728 604 l 804 969 l 1063 969 l 856 0 l 599 0 l 686 410 l 357 410 l 268 0 l 11 0 l 217 969 m 881 1042 l 751 1042 l 678 1146 l 568 1042 l 419 1042 l 626 1260 l 779 1260 l 881 1042 z "},"Ħ":{"ha":1013,"x_min":11,"x_max":1111,"o":"m 217 969 l 475 969 l 450 846 l 779 846 l 804 969 l 1063 969 l 1038 846 l 1111 846 l 1088 743 l 1014 743 l 856 0 l 599 0 l 683 393 l 354 393 l 268 0 l 11 0 l 168 743 l 93 743 l 117 846 l 192 846 l 217 969 m 396 588 l 725 588 l 757 743 l 428 743 l 396 588 z "},"Ì":{"ha":425,"x_min":11,"x_max":475,"o":"m 217 969 l 475 969 l 269 0 l 11 0 l 217 969 m 118 1261 l 351 1261 l 440 1042 l 296 1042 l 118 1261 z "},"Í":{"ha":425,"x_min":11,"x_max":679,"o":"m 217 969 l 475 969 l 269 0 l 11 0 l 217 969 m 679 1261 l 408 1042 l 263 1042 l 425 1261 l 679 1261 z "},"Î":{"ha":425,"x_min":11,"x_max":588,"o":"m 217 969 l 475 969 l 269 0 l 11 0 l 217 969 m 588 1042 l 458 1042 l 385 1146 l 275 1042 l 126 1042 l 333 1260 l 486 1260 l 588 1042 z "},"Ĩ":{"ha":425,"x_min":11,"x_max":650,"o":"m 217 969 l 475 969 l 269 0 l 11 0 l 217 969 m 218 1053 l 124 1053 q 184 1194 140 1139 q 292 1250 228 1250 q 342 1241 319 1250 q 396 1213 365 1232 q 451 1183 431 1192 q 489 1175 471 1175 q 530 1191 515 1175 q 554 1246 544 1207 l 650 1246 q 593 1103 633 1160 q 486 1047 553 1047 q 429 1058 456 1047 q 369 1088 403 1068 q 322 1113 342 1104 q 285 1122 303 1122 q 247 1106 265 1122 q 218 1053 229 1089 z "},"Ï":{"ha":425,"x_min":11,"x_max":654,"o":"m 217 969 l 475 969 l 269 0 l 11 0 l 217 969 m 346 1263 l 307 1078 l 118 1078 l 157 1263 l 346 1263 m 654 1263 l 615 1078 l 425 1078 l 464 1263 l 654 1263 z "},"Ī":{"ha":425,"x_min":11,"x_max":601,"o":"m 217 969 l 475 969 l 269 0 l 11 0 l 217 969 m 601 1215 l 579 1111 l 157 1111 l 179 1215 l 601 1215 z "},"İ":{"ha":425,"x_min":11,"x_max":531,"o":"m 217 969 l 475 969 l 269 0 l 11 0 l 217 969 m 531 1254 l 492 1071 l 240 1071 l 281 1254 l 531 1254 z "},"Ĭ":{"ha":425,"x_min":11,"x_max":651,"o":"m 217 969 l 475 969 l 269 0 l 11 0 l 217 969 m 528 1257 l 651 1257 q 554 1088 621 1154 q 364 1022 488 1022 q 246 1049 290 1022 q 182 1121 201 1076 q 163 1214 163 1165 q 163 1236 163 1225 q 165 1257 164 1247 l 279 1257 q 277 1243 278 1250 q 276 1229 276 1236 q 301 1158 276 1186 q 375 1131 325 1131 q 475 1167 438 1131 q 528 1257 513 1203 z "},"Į":{"ha":425,"x_min":-31,"x_max":475,"o":"m 217 969 l 475 969 l 269 0 l 225 0 q 145 -77 178 -39 q 113 -154 113 -115 q 172 -206 113 -206 q 205 -203 188 -206 q 244 -194 222 -200 l 239 -289 q 180 -301 208 -297 q 119 -306 151 -306 q 14 -280 58 -306 q -31 -194 -31 -254 q 6 -90 -31 -137 q 104 0 42 -43 l 11 0 l 217 969 z "},"Ĵ":{"ha":572,"x_min":-51,"x_max":732,"o":"m 369 969 l 629 969 l 481 271 q 423 128 464 193 q 309 23 382 63 q 122 -17 236 -17 q 38 -10 83 -17 q -51 10 -7 -4 l 1 206 q 43 194 21 199 q 90 189 65 189 q 189 226 158 189 q 240 361 219 264 l 369 969 m 732 1042 l 603 1042 l 529 1146 l 419 1042 l 271 1042 l 478 1260 l 631 1260 l 732 1042 z "},"Ķ":{"ha":961,"x_min":11,"x_max":1081,"o":"m 361 465 l 267 0 l 11 0 l 217 969 l 472 969 l 386 574 l 389 574 q 489 688 407 594 q 746 969 571 782 l 1081 969 l 614 503 l 906 0 l 607 0 q 458 281 519 161 q 364 465 396 400 l 361 465 m 553 -86 l 308 -329 l 174 -329 l 318 -86 l 553 -86 z "},"Ĺ":{"ha":761,"x_min":11,"x_max":718,"o":"m 217 969 l 475 969 l 308 189 l 718 189 l 678 0 l 11 0 l 217 969 m 688 1261 l 417 1042 l 271 1042 l 433 1261 l 688 1261 z "},"Ľ":{"ha":761,"x_min":11,"x_max":789,"o":"m 217 969 l 475 969 l 308 189 l 718 189 l 678 0 l 11 0 l 217 969 m 789 1050 l 644 804 l 521 804 l 599 1050 l 789 1050 z "},"Ļ":{"ha":761,"x_min":11,"x_max":718,"o":"m 217 969 l 475 969 l 308 189 l 718 189 l 678 0 l 11 0 l 217 969 m 467 -86 l 222 -329 l 88 -329 l 232 -86 l 467 -86 z "},"Ł":{"ha":761,"x_min":11,"x_max":718,"o":"m 217 969 l 475 969 l 419 707 l 551 778 l 528 656 l 393 583 l 308 189 l 718 189 l 678 0 l 11 0 l 106 447 l 15 399 l 40 519 l 131 567 l 217 969 z "},"Ŀ":{"ha":761,"x_min":11,"x_max":782,"o":"m 217 969 l 475 969 l 308 189 l 718 189 l 678 0 l 11 0 l 217 969 m 782 653 l 743 469 l 492 469 l 532 653 l 782 653 z "},"Ń":{"ha":1035,"x_min":11,"x_max":1085,"o":"m 760 532 l 842 969 l 1085 969 l 879 0 l 553 0 q 436 483 475 299 q 390 725 397 668 l 388 725 q 379 665 385 706 q 365 574 374 624 q 349 478 357 525 q 335 397 342 431 l 257 0 l 11 0 l 217 969 l 553 969 q 643 601 610 747 q 693 373 676 456 q 715 254 710 290 l 718 254 q 728 331 721 281 q 744 438 735 382 q 760 532 753 493 m 953 1261 l 682 1042 l 536 1042 l 699 1261 l 953 1261 z "},"Ň":{"ha":1035,"x_min":11,"x_max":1085,"o":"m 760 532 l 842 969 l 1085 969 l 879 0 l 553 0 q 436 483 475 299 q 390 725 397 668 l 388 725 q 379 665 385 706 q 365 574 374 624 q 349 478 357 525 q 335 397 342 431 l 257 0 l 11 0 l 217 969 l 553 969 q 643 601 610 747 q 693 373 676 456 q 715 254 710 290 l 718 254 q 728 331 721 281 q 744 438 735 382 q 760 532 753 493 m 460 1261 l 590 1261 l 664 1157 l 774 1261 l 921 1261 l 714 1043 l 561 1043 l 460 1261 z "},"Ñ":{"ha":1035,"x_min":11,"x_max":1085,"o":"m 760 532 l 842 969 l 1085 969 l 879 0 l 553 0 q 436 483 475 299 q 390 725 397 668 l 388 725 q 379 665 385 706 q 365 574 374 624 q 349 478 357 525 q 335 397 342 431 l 257 0 l 11 0 l 217 969 l 553 969 q 643 601 610 747 q 693 373 676 456 q 715 254 710 290 l 718 254 q 728 331 721 281 q 744 438 735 382 q 760 532 753 493 m 522 1053 l 428 1053 q 488 1194 444 1139 q 596 1250 532 1250 q 647 1241 624 1250 q 700 1213 669 1232 q 755 1183 735 1192 q 793 1175 775 1175 q 834 1191 819 1175 q 858 1246 849 1207 l 954 1246 q 897 1103 938 1160 q 790 1047 857 1047 q 733 1058 760 1047 q 674 1088 707 1068 q 626 1113 646 1104 q 589 1122 607 1122 q 551 1106 569 1122 q 522 1053 533 1089 z "},"Ņ":{"ha":1035,"x_min":11,"x_max":1085,"o":"m 760 532 l 842 969 l 1085 969 l 879 0 l 553 0 q 436 483 475 299 q 390 725 397 668 l 388 725 q 379 665 385 706 q 365 574 374 624 q 349 478 357 525 q 335 397 342 431 l 257 0 l 11 0 l 217 969 l 553 969 q 643 601 610 747 q 693 373 676 456 q 715 254 710 290 l 718 254 q 728 331 721 281 q 744 438 735 382 q 760 532 753 493 m 596 -86 l 351 -329 l 217 -329 l 361 -86 l 596 -86 z "},"Ŋ":{"ha":1035,"x_min":11,"x_max":1085,"o":"m 1085 969 l 879 0 q 767 -224 849 -142 q 528 -306 685 -306 q 451 -301 488 -306 q 378 -285 414 -296 l 418 -100 q 459 -110 438 -106 q 503 -114 481 -114 q 599 -87 560 -114 q 651 0 638 -61 l 553 0 q 436 483 475 299 q 390 725 397 668 l 388 725 q 379 665 385 706 q 365 574 374 624 q 349 478 357 525 q 335 397 342 431 l 257 0 l 11 0 l 217 969 l 553 969 q 643 601 610 747 q 693 373 676 456 q 715 254 710 290 l 718 254 q 728 331 721 281 q 744 438 735 382 q 760 532 753 493 l 842 969 l 1085 969 z "},"Ò":{"ha":1075,"x_min":72,"x_max":1067,"o":"m 644 988 q 959 885 851 988 q 1067 589 1067 782 q 1030 354 1067 464 q 921 161 993 244 q 742 30 849 78 q 496 -18 636 -18 q 186 85 300 -18 q 72 385 72 188 q 112 617 72 508 q 226 810 151 726 q 406 940 300 893 q 644 988 511 988 m 626 803 q 516 770 568 803 q 424 680 464 738 q 362 547 385 622 q 339 385 339 471 q 383 224 339 279 q 507 168 426 168 q 656 224 589 168 q 762 377 722 281 q 801 593 801 474 q 756 750 801 697 q 626 803 711 803 m 436 1261 l 669 1261 l 758 1042 l 614 1042 l 436 1261 z "},"Ó":{"ha":1075,"x_min":72,"x_max":1067,"o":"m 644 988 q 959 885 851 988 q 1067 589 1067 782 q 1030 354 1067 464 q 921 161 993 244 q 742 30 849 78 q 496 -18 636 -18 q 186 85 300 -18 q 72 385 72 188 q 112 617 72 508 q 226 810 151 726 q 406 940 300 893 q 644 988 511 988 m 626 803 q 516 770 568 803 q 424 680 464 738 q 362 547 385 622 q 339 385 339 471 q 383 224 339 279 q 507 168 426 168 q 656 224 589 168 q 762 377 722 281 q 801 593 801 474 q 756 750 801 697 q 626 803 711 803 m 971 1261 l 700 1042 l 554 1042 l 717 1261 l 971 1261 z "},"Ô":{"ha":1075,"x_min":72,"x_max":1067,"o":"m 644 988 q 959 885 851 988 q 1067 589 1067 782 q 1030 354 1067 464 q 921 161 993 244 q 742 30 849 78 q 496 -18 636 -18 q 186 85 300 -18 q 72 385 72 188 q 112 617 72 508 q 226 810 151 726 q 406 940 300 893 q 644 988 511 988 m 626 803 q 516 770 568 803 q 424 680 464 738 q 362 547 385 622 q 339 385 339 471 q 383 224 339 279 q 507 168 426 168 q 656 224 589 168 q 762 377 722 281 q 801 593 801 474 q 756 750 801 697 q 626 803 711 803 m 924 1042 l 794 1042 l 721 1146 l 611 1042 l 463 1042 l 669 1260 l 822 1260 l 924 1042 z "},"Õ":{"ha":1075,"x_min":72,"x_max":1067,"o":"m 644 988 q 959 885 851 988 q 1067 589 1067 782 q 1030 354 1067 464 q 921 161 993 244 q 742 30 849 78 q 496 -18 636 -18 q 186 85 300 -18 q 72 385 72 188 q 112 617 72 508 q 226 810 151 726 q 406 940 300 893 q 644 988 511 988 m 626 803 q 516 770 568 803 q 424 680 464 738 q 362 547 385 622 q 339 385 339 471 q 383 224 339 279 q 507 168 426 168 q 656 224 589 168 q 762 377 722 281 q 801 593 801 474 q 756 750 801 697 q 626 803 711 803 m 535 1053 l 440 1053 q 501 1194 457 1139 q 608 1250 544 1250 q 659 1241 636 1250 q 713 1213 682 1232 q 767 1183 747 1192 q 806 1175 788 1175 q 847 1191 832 1175 q 871 1246 861 1207 l 967 1246 q 910 1103 950 1160 q 803 1047 869 1047 q 746 1058 772 1047 q 686 1088 719 1068 q 639 1113 658 1104 q 601 1122 619 1122 q 564 1106 582 1122 q 535 1053 546 1089 z "},"Ö":{"ha":1075,"x_min":72,"x_max":1067,"o":"m 644 988 q 959 885 851 988 q 1067 589 1067 782 q 1030 354 1067 464 q 921 161 993 244 q 742 30 849 78 q 496 -18 636 -18 q 186 85 300 -18 q 72 385 72 188 q 112 617 72 508 q 226 810 151 726 q 406 940 300 893 q 644 988 511 988 m 626 803 q 516 770 568 803 q 424 680 464 738 q 362 547 385 622 q 339 385 339 471 q 383 224 339 279 q 507 168 426 168 q 656 224 589 168 q 762 377 722 281 q 801 593 801 474 q 756 750 801 697 q 626 803 711 803 m 665 1263 l 626 1078 l 438 1078 l 476 1263 l 665 1263 m 974 1263 l 935 1078 l 744 1078 l 783 1263 l 974 1263 z "},"Ō":{"ha":1075,"x_min":72,"x_max":1067,"o":"m 644 988 q 959 885 851 988 q 1067 589 1067 782 q 1030 354 1067 464 q 921 161 993 244 q 742 30 849 78 q 496 -18 636 -18 q 186 85 300 -18 q 72 385 72 188 q 112 617 72 508 q 226 810 151 726 q 406 940 300 893 q 644 988 511 988 m 626 803 q 516 770 568 803 q 424 680 464 738 q 362 547 385 622 q 339 385 339 471 q 383 224 339 279 q 507 168 426 168 q 656 224 589 168 q 762 377 722 281 q 801 593 801 474 q 756 750 801 697 q 626 803 711 803 m 932 1215 l 910 1111 l 488 1111 l 510 1215 l 932 1215 z "},"Ŏ":{"ha":1075,"x_min":72,"x_max":1067,"o":"m 644 988 q 959 885 851 988 q 1067 589 1067 782 q 1030 354 1067 464 q 921 161 993 244 q 742 30 849 78 q 496 -18 636 -18 q 186 85 300 -18 q 72 385 72 188 q 112 617 72 508 q 226 810 151 726 q 406 940 300 893 q 644 988 511 988 m 626 803 q 516 770 568 803 q 424 680 464 738 q 362 547 385 622 q 339 385 339 471 q 383 224 339 279 q 507 168 426 168 q 656 224 589 168 q 762 377 722 281 q 801 593 801 474 q 756 750 801 697 q 626 803 711 803 m 831 1257 l 954 1257 q 857 1088 924 1154 q 667 1022 790 1022 q 549 1049 593 1022 q 485 1121 504 1076 q 465 1214 465 1165 q 466 1236 465 1225 q 468 1257 467 1247 l 582 1257 q 580 1243 581 1250 q 579 1229 579 1236 q 603 1158 579 1186 q 678 1131 628 1131 q 778 1167 740 1131 q 831 1257 815 1203 z "},"Ő":{"ha":1075,"x_min":72,"x_max":1115,"o":"m 644 988 q 959 885 851 988 q 1067 589 1067 782 q 1030 354 1067 464 q 921 161 993 244 q 742 30 849 78 q 496 -18 636 -18 q 186 85 300 -18 q 72 385 72 188 q 112 617 72 508 q 226 810 151 726 q 406 940 300 893 q 644 988 511 988 m 626 803 q 516 770 568 803 q 424 680 464 738 q 362 547 385 622 q 339 385 339 471 q 383 224 339 279 q 507 168 426 168 q 656 224 589 168 q 762 377 722 281 q 801 593 801 474 q 756 750 801 697 q 626 803 711 803 m 1115 1250 l 853 1042 l 719 1042 l 878 1250 l 1115 1250 m 811 1250 l 547 1042 l 419 1042 l 567 1250 l 811 1250 z "},"Ø":{"ha":1075,"x_min":72,"x_max":1067,"o":"m 96 -50 l 194 78 q 103 206 135 129 q 72 385 72 283 q 112 617 72 508 q 226 810 151 726 q 406 940 300 893 q 644 988 511 988 q 765 976 710 988 q 865 946 821 965 l 957 1064 l 1036 1013 l 946 896 q 1067 589 1067 792 q 1030 354 1067 464 q 921 161 993 244 q 742 30 849 78 q 496 -18 636 -18 q 274 26 367 -18 l 175 -101 l 96 -50 m 628 810 q 514 776 568 810 q 419 685 460 743 q 356 549 379 626 q 332 385 332 472 q 347 276 332 325 l 736 778 q 628 810 692 810 m 807 596 q 793 697 807 657 l 403 194 q 504 164 443 164 q 657 221 589 164 q 766 376 725 278 q 807 596 807 474 z "},"Œ":{"ha":1388,"x_min":72,"x_max":1451,"o":"m 1451 969 l 1415 788 l 1056 788 l 1013 586 l 1350 586 l 1314 404 l 978 404 l 931 186 l 1300 186 l 1264 0 l 693 0 q 661 -1 682 0 q 629 -3 640 -1 q 573 -6 603 -4 q 514 -7 543 -7 q 282 45 382 -7 q 127 194 182 97 q 72 421 72 290 q 115 642 72 540 q 236 818 158 743 q 422 935 314 893 q 658 976 529 976 q 706 976 676 976 q 771 972 736 975 q 817 970 794 971 q 869 969 839 969 l 1451 969 m 672 186 l 800 778 q 744 783 778 781 q 682 785 711 785 q 497 734 575 785 q 378 598 419 683 q 338 408 338 513 q 405 241 338 303 q 583 179 472 179 q 624 181 601 179 q 672 186 646 182 z "},"Ŕ":{"ha":915,"x_min":11,"x_max":931,"o":"m 217 969 l 488 969 q 653 960 574 969 q 794 926 732 951 q 894 854 857 901 q 931 732 931 807 q 890 589 931 646 q 783 503 850 532 q 633 467 715 474 l 633 464 q 694 432 671 451 q 735 376 717 413 q 771 276 753 340 l 851 0 l 589 0 l 531 233 q 499 326 515 293 q 454 372 483 358 q 369 385 425 385 l 344 385 l 264 0 l 11 0 l 217 969 m 425 792 l 378 556 q 412 554 394 554 q 451 554 429 554 q 613 586 557 554 q 668 689 668 618 q 619 774 668 757 q 486 792 569 792 l 425 792 m 813 1261 l 542 1042 l 396 1042 l 558 1261 l 813 1261 z "},"Ř":{"ha":915,"x_min":11,"x_max":931,"o":"m 217 969 l 488 969 q 653 960 574 969 q 794 926 732 951 q 894 854 857 901 q 931 732 931 807 q 890 589 931 646 q 783 503 850 532 q 633 467 715 474 l 633 464 q 694 432 671 451 q 735 376 717 413 q 771 276 753 340 l 851 0 l 589 0 l 531 233 q 499 326 515 293 q 454 372 483 358 q 369 385 425 385 l 344 385 l 264 0 l 11 0 l 217 969 m 425 792 l 378 556 q 412 554 394 554 q 451 554 429 554 q 613 586 557 554 q 668 689 668 618 q 619 774 668 757 q 486 792 569 792 l 425 792 m 360 1261 l 490 1261 l 564 1157 l 674 1261 l 821 1261 l 614 1043 l 461 1043 l 360 1261 z "},"Ŗ":{"ha":915,"x_min":11,"x_max":931,"o":"m 217 969 l 488 969 q 653 960 574 969 q 794 926 732 951 q 894 854 857 901 q 931 732 931 807 q 890 589 931 646 q 783 503 850 532 q 633 467 715 474 l 633 464 q 694 432 671 451 q 735 376 717 413 q 771 276 753 340 l 851 0 l 589 0 l 531 233 q 499 326 515 293 q 454 372 483 358 q 369 385 425 385 l 344 385 l 264 0 l 11 0 l 217 969 m 425 792 l 378 556 q 412 554 394 554 q 451 554 429 554 q 613 586 557 554 q 668 689 668 618 q 619 774 668 757 q 486 792 569 792 l 425 792 m 546 -86 l 301 -329 l 167 -329 l 311 -86 l 546 -86 z "},"Ś":{"ha":826,"x_min":-4,"x_max":856,"o":"m 856 946 l 793 753 q 686 788 746 775 q 568 800 626 800 q 440 774 486 800 q 393 701 393 749 q 430 637 393 664 q 546 579 467 610 q 662 522 611 554 q 742 440 713 489 q 772 313 772 390 q 717 137 772 211 q 561 22 663 63 q 322 -18 460 -18 q 153 -5 231 -18 q -4 35 75 8 l 57 232 q 190 189 126 203 q 310 175 254 175 q 499 286 499 175 q 469 351 499 322 q 349 415 439 381 q 235 472 286 439 q 155 552 185 504 q 125 668 125 600 q 164 820 125 758 q 268 919 203 882 q 413 972 333 956 q 576 989 493 989 q 727 978 654 989 q 856 946 800 967 m 839 1261 l 568 1042 l 422 1042 l 585 1261 l 839 1261 z "},"Ŝ":{"ha":826,"x_min":-4,"x_max":856,"o":"m 856 946 l 793 753 q 686 788 746 775 q 568 800 626 800 q 440 774 486 800 q 393 701 393 749 q 430 637 393 664 q 546 579 467 610 q 662 522 611 554 q 742 440 713 489 q 772 313 772 390 q 717 137 772 211 q 561 22 663 63 q 322 -18 460 -18 q 153 -5 231 -18 q -4 35 75 8 l 57 232 q 190 189 126 203 q 310 175 254 175 q 499 286 499 175 q 469 351 499 322 q 349 415 439 381 q 235 472 286 439 q 155 552 185 504 q 125 668 125 600 q 164 820 125 758 q 268 919 203 882 q 413 972 333 956 q 576 989 493 989 q 727 978 654 989 q 856 946 800 967 m 783 1042 l 654 1042 l 581 1146 l 471 1042 l 322 1042 l 529 1260 l 682 1260 l 783 1042 z "},"Š":{"ha":826,"x_min":-4,"x_max":856,"o":"m 856 946 l 793 753 q 686 788 746 775 q 568 800 626 800 q 440 774 486 800 q 393 701 393 749 q 430 637 393 664 q 546 579 467 610 q 662 522 611 554 q 742 440 713 489 q 772 313 772 390 q 717 137 772 211 q 561 22 663 63 q 322 -18 460 -18 q 153 -5 231 -18 q -4 35 75 8 l 57 232 q 190 189 126 203 q 310 175 254 175 q 499 286 499 175 q 469 351 499 322 q 349 415 439 381 q 235 472 286 439 q 155 552 185 504 q 125 668 125 600 q 164 820 125 758 q 268 919 203 882 q 413 972 333 956 q 576 989 493 989 q 727 978 654 989 q 856 946 800 967 m 369 1261 l 500 1261 l 574 1157 l 683 1261 l 831 1261 l 624 1043 l 471 1043 l 369 1261 z "},"Ş":{"ha":826,"x_min":-4,"x_max":856,"o":"m 856 946 l 793 753 q 686 788 746 775 q 568 800 626 800 q 440 774 486 800 q 393 701 393 749 q 430 638 393 664 q 546 582 467 613 q 661 525 611 557 q 740 443 711 493 q 769 313 769 393 q 663 78 769 165 q 374 -17 557 -8 l 347 -86 q 363 -85 354 -85 q 378 -85 372 -85 q 467 -110 435 -85 q 500 -182 500 -135 q 469 -262 500 -232 q 389 -306 438 -293 q 286 -319 340 -319 q 235 -317 258 -319 q 189 -310 211 -314 l 213 -237 q 285 -244 254 -244 q 324 -241 301 -244 q 363 -226 346 -237 q 379 -196 379 -215 q 357 -163 379 -171 q 303 -156 335 -156 q 274 -157 292 -156 q 239 -162 257 -158 l 283 -17 q 135 -1 204 -14 q -4 35 65 13 l 57 232 q 314 174 194 174 q 453 203 407 174 q 499 289 499 233 q 469 354 499 325 q 349 418 439 383 q 226 478 276 446 q 151 555 176 510 q 125 668 125 600 q 164 820 125 758 q 268 919 203 882 q 413 972 333 956 q 576 989 493 989 q 727 978 654 989 q 856 946 800 967 z "},"Ș":{"ha":826,"x_min":-4,"x_max":856,"o":"m 856 946 l 793 753 q 686 788 746 775 q 568 800 626 800 q 440 774 486 800 q 393 701 393 749 q 430 637 393 664 q 546 579 467 610 q 662 522 611 554 q 742 440 713 489 q 772 313 772 390 q 717 137 772 211 q 561 22 663 63 q 322 -18 460 -18 q 153 -5 231 -18 q -4 35 75 8 l 57 232 q 190 189 126 203 q 310 175 254 175 q 499 286 499 175 q 469 351 499 322 q 349 415 439 381 q 235 472 286 439 q 155 552 185 504 q 125 668 125 600 q 164 820 125 758 q 268 919 203 882 q 413 972 333 956 q 576 989 493 989 q 727 978 654 989 q 856 946 800 967 m 494 -86 l 250 -329 l 115 -329 l 260 -86 l 494 -86 z "},"Ť":{"ha":761,"x_min":108,"x_max":885,"o":"m 150 969 l 885 969 l 843 778 l 608 781 l 444 0 l 186 0 l 353 781 l 108 778 l 150 969 m 349 1261 l 479 1261 l 553 1157 l 663 1261 l 810 1261 l 603 1043 l 450 1043 l 349 1261 z "},"Ţ":{"ha":761,"x_min":56,"x_max":885,"o":"m 150 969 l 885 969 l 843 778 l 608 781 l 444 0 l 186 0 l 353 781 l 108 778 l 150 969 m 435 -86 l 190 -329 l 56 -329 l 200 -86 l 435 -86 z "},"Ț":{"ha":761,"x_min":56,"x_max":885,"o":"m 150 969 l 885 969 l 843 778 l 608 781 l 444 0 l 186 0 l 353 781 l 108 778 l 150 969 m 435 -86 l 190 -329 l 56 -329 l 200 -86 l 435 -86 z "},"Ŧ":{"ha":761,"x_min":108,"x_max":885,"o":"m 150 969 l 885 969 l 843 778 l 611 781 l 581 638 l 711 638 l 686 531 l 557 531 l 444 0 l 186 0 l 300 531 l 171 531 l 196 638 l 324 638 l 356 781 l 108 778 l 150 969 z "},"Þ":{"ha":838,"x_min":11,"x_max":868,"o":"m 449 822 l 467 822 q 624 810 551 822 q 752 769 697 799 q 838 686 807 740 q 868 546 868 632 q 807 347 868 425 q 640 233 746 269 q 400 196 535 196 q 358 197 378 196 q 314 199 338 197 l 272 0 l 11 0 l 219 969 l 481 969 l 449 822 m 407 644 l 351 381 q 374 379 363 379 q 396 379 386 379 q 557 415 501 379 q 613 536 613 451 q 587 608 613 585 q 519 638 561 631 q 426 644 476 644 l 407 644 z "},"Ù":{"ha":1000,"x_min":79,"x_max":1063,"o":"m 211 969 l 475 969 l 372 513 q 349 387 357 444 q 340 301 340 329 q 374 199 340 232 q 468 165 407 165 q 576 192 536 165 q 642 281 617 219 q 690 446 668 343 l 807 969 l 1063 969 l 928 364 q 844 149 899 233 q 698 23 789 64 q 469 -18 607 -18 q 266 10 354 -18 q 128 104 178 39 q 79 283 79 169 q 85 358 79 314 q 100 450 90 401 l 211 969 m 415 1261 l 649 1261 l 738 1042 l 593 1042 l 415 1261 z "},"Ú":{"ha":1000,"x_min":79,"x_max":1063,"o":"m 211 969 l 475 969 l 372 513 q 349 387 357 444 q 340 301 340 329 q 374 199 340 232 q 468 165 407 165 q 576 192 536 165 q 642 281 617 219 q 690 446 668 343 l 807 969 l 1063 969 l 928 364 q 844 149 899 233 q 698 23 789 64 q 469 -18 607 -18 q 266 10 354 -18 q 128 104 178 39 q 79 283 79 169 q 85 358 79 314 q 100 450 90 401 l 211 969 m 979 1261 l 708 1042 l 563 1042 l 725 1261 l 979 1261 z "},"Û":{"ha":1000,"x_min":79,"x_max":1063,"o":"m 211 969 l 475 969 l 372 513 q 349 387 357 444 q 340 301 340 329 q 374 199 340 232 q 468 165 407 165 q 576 192 536 165 q 642 281 617 219 q 690 446 668 343 l 807 969 l 1063 969 l 928 364 q 844 149 899 233 q 698 23 789 64 q 469 -18 607 -18 q 266 10 354 -18 q 128 104 178 39 q 79 283 79 169 q 85 358 79 314 q 100 450 90 401 l 211 969 m 882 1042 l 753 1042 l 679 1146 l 569 1042 l 421 1042 l 628 1260 l 781 1260 l 882 1042 z "},"Ũ":{"ha":1000,"x_min":79,"x_max":1063,"o":"m 211 969 l 475 969 l 372 513 q 349 387 357 444 q 340 301 340 329 q 374 199 340 232 q 468 165 407 165 q 576 192 536 165 q 642 281 617 219 q 690 446 668 343 l 807 969 l 1063 969 l 928 364 q 844 149 899 233 q 698 23 789 64 q 469 -18 607 -18 q 266 10 354 -18 q 128 104 178 39 q 79 283 79 169 q 85 358 79 314 q 100 450 90 401 l 211 969 m 497 1053 l 403 1053 q 463 1194 419 1139 q 571 1250 507 1250 q 622 1241 599 1250 q 675 1213 644 1232 q 730 1183 710 1192 q 768 1175 750 1175 q 809 1191 794 1175 q 833 1246 824 1207 l 929 1246 q 872 1103 913 1160 q 765 1047 832 1047 q 708 1058 735 1047 q 649 1088 682 1068 q 601 1113 621 1104 q 564 1122 582 1122 q 526 1106 544 1122 q 497 1053 508 1089 z "},"Ü":{"ha":1000,"x_min":79,"x_max":1063,"o":"m 211 969 l 475 969 l 372 513 q 349 387 357 444 q 340 301 340 329 q 374 199 340 232 q 468 165 407 165 q 576 192 536 165 q 642 281 617 219 q 690 446 668 343 l 807 969 l 1063 969 l 928 364 q 844 149 899 233 q 698 23 789 64 q 469 -18 607 -18 q 266 10 354 -18 q 128 104 178 39 q 79 283 79 169 q 85 358 79 314 q 100 450 90 401 l 211 969 m 626 1263 l 588 1078 l 399 1078 l 438 1263 l 626 1263 m 935 1263 l 896 1078 l 706 1078 l 744 1263 l 935 1263 z "},"Ū":{"ha":1000,"x_min":79,"x_max":1063,"o":"m 211 969 l 475 969 l 372 513 q 349 387 357 444 q 340 301 340 329 q 374 199 340 232 q 468 165 407 165 q 576 192 536 165 q 642 281 617 219 q 690 446 668 343 l 807 969 l 1063 969 l 928 364 q 844 149 899 233 q 698 23 789 64 q 469 -18 607 -18 q 266 10 354 -18 q 128 104 178 39 q 79 283 79 169 q 85 358 79 314 q 100 450 90 401 l 211 969 m 890 1215 l 868 1111 l 446 1111 l 468 1215 l 890 1215 z "},"Ŭ":{"ha":1000,"x_min":79,"x_max":1063,"o":"m 211 969 l 475 969 l 372 513 q 349 387 357 444 q 340 301 340 329 q 374 199 340 232 q 468 165 407 165 q 576 192 536 165 q 642 281 617 219 q 690 446 668 343 l 807 969 l 1063 969 l 928 364 q 844 149 899 233 q 698 23 789 64 q 469 -18 607 -18 q 266 10 354 -18 q 128 104 178 39 q 79 283 79 169 q 85 358 79 314 q 100 450 90 401 l 211 969 m 796 1257 l 919 1257 q 822 1088 889 1154 q 632 1022 756 1022 q 514 1049 558 1022 q 450 1121 469 1076 q 431 1214 431 1165 q 431 1236 431 1225 q 433 1257 432 1247 l 547 1257 q 545 1243 546 1250 q 544 1229 544 1236 q 569 1158 544 1186 q 643 1131 593 1131 q 743 1167 706 1131 q 796 1257 781 1203 z "},"Ů":{"ha":1000,"x_min":79,"x_max":1063,"o":"m 211 969 l 475 969 l 372 513 q 349 387 357 444 q 340 301 340 329 q 374 199 340 232 q 468 165 407 165 q 576 192 536 165 q 642 281 617 219 q 690 446 668 343 l 807 969 l 1063 969 l 928 364 q 844 149 899 233 q 698 23 789 64 q 469 -18 607 -18 q 266 10 354 -18 q 128 104 178 39 q 79 283 79 169 q 85 358 79 314 q 100 450 90 401 l 211 969 m 651 1081 q 704 1103 683 1081 q 725 1158 725 1126 q 703 1210 725 1188 q 651 1232 682 1232 q 599 1210 621 1232 q 578 1158 578 1188 q 599 1103 578 1126 q 651 1081 621 1081 m 651 1014 q 547 1054 592 1014 q 503 1158 503 1094 q 547 1260 503 1219 q 651 1300 590 1300 q 756 1260 713 1300 q 800 1158 800 1219 q 756 1054 800 1094 q 651 1014 713 1014 z "},"Ű":{"ha":1000,"x_min":79,"x_max":1082,"o":"m 211 969 l 475 969 l 372 513 q 349 387 357 444 q 340 301 340 329 q 374 199 340 232 q 468 165 407 165 q 576 192 536 165 q 642 281 617 219 q 690 446 668 343 l 807 969 l 1063 969 l 928 364 q 844 149 899 233 q 698 23 789 64 q 469 -18 607 -18 q 266 10 354 -18 q 128 104 178 39 q 79 283 79 169 q 85 358 79 314 q 100 450 90 401 l 211 969 m 1082 1250 l 819 1042 l 686 1042 l 844 1250 l 1082 1250 m 778 1250 l 514 1042 l 386 1042 l 533 1250 l 778 1250 z "},"Ų":{"ha":1000,"x_min":79,"x_max":1063,"o":"m 211 969 l 475 969 l 372 513 q 349 387 358 444 q 340 301 340 329 q 374 199 340 232 q 468 165 407 165 q 576 192 536 165 q 642 281 617 219 q 690 446 668 343 l 807 969 l 1063 969 l 928 364 q 801 94 889 188 q 549 -14 714 1 q 481 -83 508 -49 q 454 -154 454 -118 q 514 -206 454 -206 q 547 -203 529 -206 q 586 -194 564 -200 l 581 -289 q 522 -301 550 -297 q 461 -306 493 -306 q 356 -280 400 -306 q 311 -194 311 -254 q 341 -99 311 -142 q 422 -17 371 -56 q 242 19 319 -11 q 122 114 165 50 q 79 283 79 178 q 85 358 79 314 q 100 450 90 401 l 211 969 z "},"Ŵ":{"ha":1463,"x_min":129,"x_max":1588,"o":"m 807 0 q 811 372 808 208 q 818 642 814 536 q 825 786 822 749 l 822 786 q 771 642 811 749 q 667 372 731 535 q 517 0 603 208 l 176 0 l 129 969 l 390 969 q 393 665 392 789 q 395 460 394 540 q 396 331 396 379 q 396 258 396 283 q 396 215 396 232 l 399 215 q 410 249 403 229 q 433 313 417 269 q 479 435 449 356 q 560 644 510 514 q 685 969 610 774 l 1029 969 q 1028 685 1029 803 q 1026 489 1026 568 q 1024 358 1025 410 q 1020 274 1022 307 q 1017 215 1018 242 l 1019 215 q 1035 258 1025 231 q 1065 334 1046 285 q 1119 465 1085 383 q 1204 670 1153 547 q 1331 969 1256 793 l 1588 969 l 1149 0 l 807 0 m 1104 1042 l 975 1042 l 901 1146 l 792 1042 l 643 1042 l 850 1260 l 1003 1260 l 1104 1042 z "},"Ẃ":{"ha":1463,"x_min":129,"x_max":1588,"o":"m 807 0 q 811 372 808 208 q 818 642 814 536 q 825 786 822 749 l 822 786 q 771 642 811 749 q 667 372 731 535 q 517 0 603 208 l 176 0 l 129 969 l 390 969 q 393 665 392 789 q 395 460 394 540 q 396 331 396 379 q 396 258 396 283 q 396 215 396 232 l 399 215 q 410 249 403 229 q 433 313 417 269 q 479 435 449 356 q 560 644 510 514 q 685 969 610 774 l 1029 969 q 1028 685 1029 803 q 1026 489 1026 568 q 1024 358 1025 410 q 1020 274 1022 307 q 1017 215 1018 242 l 1019 215 q 1035 258 1025 231 q 1065 334 1046 285 q 1119 465 1085 383 q 1204 670 1153 547 q 1331 969 1256 793 l 1588 969 l 1149 0 l 807 0 m 1182 1261 l 911 1042 l 765 1042 l 928 1261 l 1182 1261 z "},"Ẅ":{"ha":1463,"x_min":129,"x_max":1588,"o":"m 807 0 q 811 372 808 208 q 818 642 814 536 q 825 786 822 749 l 822 786 q 771 642 811 749 q 667 372 731 535 q 517 0 603 208 l 176 0 l 129 969 l 390 969 q 393 665 392 789 q 395 460 394 540 q 396 331 396 379 q 396 258 396 283 q 396 215 396 232 l 399 215 q 410 249 403 229 q 433 313 417 269 q 479 435 449 356 q 560 644 510 514 q 685 969 610 774 l 1029 969 q 1028 685 1029 803 q 1026 489 1026 568 q 1024 358 1025 410 q 1020 274 1022 307 q 1017 215 1018 242 l 1019 215 q 1035 258 1025 231 q 1065 334 1046 285 q 1119 465 1085 383 q 1204 670 1153 547 q 1331 969 1256 793 l 1588 969 l 1149 0 l 807 0 m 858 1263 l 819 1078 l 631 1078 l 669 1263 l 858 1263 m 1167 1263 l 1128 1078 l 938 1078 l 976 1263 l 1167 1263 z "},"Ẁ":{"ha":1463,"x_min":129,"x_max":1588,"o":"m 807 0 q 811 372 808 208 q 818 642 814 536 q 825 786 822 749 l 822 786 q 771 642 811 749 q 667 372 731 535 q 517 0 603 208 l 176 0 l 129 969 l 390 969 q 393 665 392 789 q 395 460 394 540 q 396 331 396 379 q 396 258 396 283 q 396 215 396 232 l 399 215 q 410 249 403 229 q 433 313 417 269 q 479 435 449 356 q 560 644 510 514 q 685 969 610 774 l 1029 969 q 1028 685 1029 803 q 1026 489 1026 568 q 1024 358 1025 410 q 1020 274 1022 307 q 1017 215 1018 242 l 1019 215 q 1035 258 1025 231 q 1065 334 1046 285 q 1119 465 1085 383 q 1204 670 1153 547 q 1331 969 1256 793 l 1588 969 l 1149 0 l 807 0 m 633 1261 l 867 1261 l 956 1042 l 811 1042 l 633 1261 z "},"Ý":{"ha":922,"x_min":111,"x_max":1057,"o":"m 111 969 l 375 969 q 435 776 413 850 q 472 657 458 703 q 493 575 485 611 l 494 575 q 532 633 511 601 q 583 708 553 664 q 659 815 614 751 q 771 969 704 878 l 1057 969 l 588 374 l 513 0 l 251 0 l 333 372 l 111 969 m 892 1261 l 621 1042 l 475 1042 l 638 1261 l 892 1261 z "},"Ŷ":{"ha":922,"x_min":111,"x_max":1057,"o":"m 111 969 l 375 969 q 435 776 413 850 q 472 657 458 703 q 493 575 485 611 l 494 575 q 532 633 511 601 q 583 708 553 664 q 659 815 614 751 q 771 969 704 878 l 1057 969 l 588 374 l 513 0 l 251 0 l 333 372 l 111 969 m 819 1042 l 690 1042 l 617 1146 l 507 1042 l 358 1042 l 565 1260 l 718 1260 l 819 1042 z "},"Ÿ":{"ha":922,"x_min":111,"x_max":1057,"o":"m 111 969 l 375 969 q 435 776 413 850 q 472 657 458 703 q 493 575 485 611 l 494 575 q 532 633 511 601 q 583 708 553 664 q 659 815 614 751 q 771 969 704 878 l 1057 969 l 588 374 l 513 0 l 251 0 l 333 372 l 111 969 m 578 1263 l 539 1078 l 350 1078 l 389 1263 l 578 1263 m 886 1263 l 847 1078 l 657 1078 l 696 1263 l 886 1263 z "},"Ỳ":{"ha":922,"x_min":111,"x_max":1057,"o":"m 111 969 l 375 969 q 435 776 413 850 q 472 657 458 703 q 493 575 485 611 l 494 575 q 532 633 511 601 q 583 708 553 664 q 659 815 614 751 q 771 969 704 878 l 1057 969 l 588 374 l 513 0 l 251 0 l 333 372 l 111 969 m 338 1261 l 571 1261 l 660 1042 l 515 1042 l 338 1261 z "},"Ź":{"ha":846,"x_min":-32,"x_max":931,"o":"m 888 769 q 501 367 650 515 q 317 186 351 218 l 772 186 l 735 0 l -32 0 l 15 197 q 291 486 171 361 q 487 690 411 611 q 585 788 563 768 l 154 788 l 194 969 l 931 969 l 888 769 m 875 1261 l 604 1042 l 458 1042 l 621 1261 l 875 1261 z "},"Ž":{"ha":846,"x_min":-32,"x_max":931,"o":"m 888 769 q 501 367 650 515 q 317 186 351 218 l 772 186 l 735 0 l -32 0 l 15 197 q 291 486 171 361 q 487 690 411 611 q 585 788 563 768 l 154 788 l 194 969 l 931 969 l 888 769 m 376 1261 l 507 1261 l 581 1157 l 690 1261 l 838 1261 l 631 1043 l 478 1043 l 376 1261 z "},"Ż":{"ha":846,"x_min":-32,"x_max":931,"o":"m 888 769 q 501 367 650 515 q 317 186 351 218 l 772 186 l 735 0 l -32 0 l 15 197 q 291 486 171 361 q 487 690 411 611 q 585 788 563 768 l 154 788 l 194 969 l 931 969 l 888 769 m 731 1254 l 692 1071 l 440 1071 l 481 1254 l 731 1254 z "},"à":{"ha":822,"x_min":7,"x_max":768,"o":"m 519 321 q 490 324 506 324 q 460 325 474 325 q 297 298 350 325 q 244 217 244 271 q 268 161 244 182 q 333 140 292 140 q 458 189 407 140 q 519 321 510 238 m 497 106 l 494 106 q 240 -14 410 -14 q 71 43 135 -14 q 7 194 7 100 q 119 388 7 324 q 431 453 231 453 q 481 451 456 453 q 539 447 506 450 q 542 472 542 458 q 505 556 542 531 q 393 581 468 581 q 272 566 338 581 q 158 526 206 551 l 178 699 q 319 731 254 722 q 453 740 385 740 q 686 683 604 740 q 768 508 768 625 q 760 427 768 478 q 740 319 751 376 q 718 209 729 261 q 703 125 707 157 q 694 65 699 100 q 690 0 690 31 l 486 0 q 497 106 488 54 m 435 804 l 269 1050 l 485 1050 l 556 804 l 435 804 z "},"á":{"ha":822,"x_min":7,"x_max":774,"o":"m 519 321 q 490 324 506 324 q 460 325 474 325 q 297 298 350 325 q 244 217 244 271 q 268 161 244 182 q 333 140 292 140 q 458 189 407 140 q 519 321 510 238 m 497 106 l 494 106 q 240 -14 410 -14 q 71 43 135 -14 q 7 194 7 100 q 119 388 7 324 q 431 453 231 453 q 481 451 456 453 q 539 447 506 450 q 542 472 542 458 q 505 556 542 531 q 393 581 468 581 q 272 566 338 581 q 158 526 206 551 l 178 699 q 319 731 254 722 q 453 740 385 740 q 686 683 604 740 q 768 508 768 625 q 760 427 768 478 q 740 319 751 376 q 718 209 729 261 q 703 125 707 157 q 694 65 699 100 q 690 0 690 31 l 486 0 q 497 106 488 54 m 774 1050 l 504 804 l 361 804 l 522 1050 l 774 1050 z "},"â":{"ha":822,"x_min":7,"x_max":768,"o":"m 519 321 q 490 324 506 324 q 460 325 474 325 q 297 298 350 325 q 244 217 244 271 q 268 161 244 182 q 333 140 292 140 q 458 189 407 140 q 519 321 510 238 m 497 106 l 494 106 q 240 -14 410 -14 q 71 43 135 -14 q 7 194 7 100 q 119 388 7 324 q 431 453 231 453 q 481 451 456 453 q 539 447 506 450 q 542 472 542 458 q 505 556 542 531 q 393 581 468 581 q 272 566 338 581 q 158 526 206 551 l 178 699 q 319 731 254 722 q 453 740 385 740 q 686 683 604 740 q 768 508 768 625 q 760 427 768 478 q 740 319 751 376 q 718 209 729 261 q 703 125 707 157 q 694 65 699 100 q 690 0 690 31 l 486 0 q 497 106 488 54 m 733 804 l 604 804 l 539 936 l 422 804 l 274 804 l 485 1050 l 638 1050 l 733 804 z "},"ã":{"ha":822,"x_min":7,"x_max":774,"o":"m 519 321 q 490 324 506 324 q 460 325 474 325 q 297 298 350 325 q 244 217 244 271 q 268 161 244 182 q 333 140 292 140 q 458 189 407 140 q 519 321 510 238 m 497 106 l 494 106 q 240 -14 410 -14 q 71 43 135 -14 q 7 194 7 100 q 119 388 7 324 q 431 453 231 453 q 481 451 456 453 q 539 447 506 450 q 542 472 542 458 q 505 556 542 531 q 393 581 468 581 q 272 566 338 581 q 158 526 206 551 l 178 699 q 319 731 254 722 q 453 740 385 740 q 686 683 604 740 q 768 508 768 625 q 760 427 768 478 q 740 319 751 376 q 718 209 729 261 q 703 125 707 157 q 694 65 699 100 q 690 0 690 31 l 486 0 q 497 106 488 54 m 342 815 l 247 815 q 308 957 264 901 q 415 1013 351 1013 q 466 1003 443 1013 q 519 975 489 994 q 574 946 554 954 q 613 938 594 938 q 653 953 639 938 q 678 1008 668 969 l 774 1008 q 717 866 757 922 q 610 810 676 810 q 553 820 579 810 q 493 850 526 831 q 446 876 465 867 q 408 885 426 885 q 371 868 389 885 q 342 815 353 851 z "},"ä":{"ha":822,"x_min":7,"x_max":785,"o":"m 519 321 q 490 324 506 324 q 460 325 474 325 q 297 298 350 325 q 244 217 244 271 q 268 161 244 182 q 333 140 292 140 q 458 189 407 140 q 519 321 510 238 m 497 106 l 494 106 q 240 -14 410 -14 q 71 43 135 -14 q 7 194 7 100 q 119 388 7 324 q 431 453 231 453 q 481 451 456 453 q 539 447 506 450 q 542 472 542 458 q 505 556 542 531 q 393 581 468 581 q 272 566 338 581 q 158 526 206 551 l 178 699 q 319 731 254 722 q 453 740 385 740 q 686 683 604 740 q 768 508 768 625 q 760 427 768 478 q 740 319 751 376 q 718 209 729 261 q 703 125 707 157 q 694 65 699 100 q 690 0 690 31 l 486 0 q 497 106 488 54 m 476 1014 l 438 831 l 247 831 l 288 1014 l 476 1014 m 785 1014 l 746 831 l 556 831 l 596 1014 l 785 1014 z "},"ā":{"ha":822,"x_min":7,"x_max":768,"o":"m 519 321 q 490 324 506 324 q 460 325 474 325 q 297 298 350 325 q 244 217 244 271 q 268 161 244 182 q 333 140 292 140 q 458 189 407 140 q 519 321 510 238 m 497 106 l 494 106 q 240 -14 410 -14 q 71 43 135 -14 q 7 194 7 100 q 119 388 7 324 q 431 453 231 453 q 481 451 456 453 q 539 447 506 450 q 542 472 542 458 q 505 556 542 531 q 393 581 468 581 q 272 566 338 581 q 158 526 206 551 l 178 699 q 319 731 254 722 q 453 740 385 740 q 686 683 604 740 q 768 508 768 625 q 760 427 768 478 q 740 319 751 376 q 718 209 729 261 q 703 125 707 157 q 694 65 699 100 q 690 0 690 31 l 486 0 q 497 106 488 54 m 275 874 l 297 978 l 735 978 l 713 874 l 275 874 z "},"ă":{"ha":822,"x_min":7,"x_max":768,"o":"m 519 321 q 490 324 506 324 q 460 325 474 325 q 297 298 350 325 q 244 217 244 271 q 268 161 244 182 q 333 140 292 140 q 458 189 407 140 q 519 321 510 238 m 497 106 l 494 106 q 240 -14 410 -14 q 71 43 135 -14 q 7 194 7 100 q 119 388 7 324 q 431 453 231 453 q 481 451 456 453 q 539 447 506 450 q 542 472 542 458 q 505 556 542 531 q 393 581 468 581 q 272 566 338 581 q 158 526 206 551 l 178 699 q 319 731 254 722 q 453 740 385 740 q 686 683 604 740 q 768 508 768 625 q 760 427 768 478 q 740 319 751 376 q 718 209 729 261 q 703 125 707 157 q 694 65 699 100 q 690 0 690 31 l 486 0 q 497 106 488 54 m 636 1050 l 760 1050 q 663 881 729 947 q 472 815 596 815 q 354 842 399 815 q 290 914 310 869 q 271 1007 271 958 q 272 1029 271 1018 q 274 1050 272 1040 l 388 1050 q 385 1036 386 1043 q 385 1022 385 1029 q 409 951 385 979 q 483 924 433 924 q 583 960 546 924 q 636 1050 621 996 z "},"å":{"ha":822,"x_min":7,"x_max":768,"o":"m 519 321 q 490 324 506 324 q 460 325 474 325 q 297 298 350 325 q 244 217 244 271 q 268 161 244 182 q 333 140 292 140 q 458 189 407 140 q 519 321 510 238 m 497 106 l 494 106 q 240 -14 410 -14 q 71 43 135 -14 q 7 194 7 100 q 119 388 7 324 q 431 453 231 453 q 481 451 456 453 q 539 447 506 450 q 542 472 542 458 q 505 556 542 531 q 393 581 468 581 q 272 566 338 581 q 158 526 206 551 l 178 699 q 319 731 254 722 q 453 740 385 740 q 686 683 604 740 q 768 508 768 625 q 760 427 768 478 q 740 319 751 376 q 718 209 729 261 q 703 125 707 157 q 694 65 699 100 q 690 0 690 31 l 486 0 q 497 106 488 54 m 490 849 q 543 872 522 849 q 564 926 564 894 q 542 978 564 956 q 490 1000 521 1000 q 438 978 460 1000 q 417 926 417 956 q 438 872 417 894 q 490 849 460 849 m 490 782 q 386 822 431 782 q 342 926 342 863 q 385 1028 342 988 q 490 1068 429 1068 q 595 1028 551 1068 q 639 926 639 988 q 595 822 639 863 q 490 782 551 782 z "},"ą":{"ha":822,"x_min":7,"x_max":768,"o":"m 497 106 l 494 106 q 240 -14 410 -14 q 71 43 135 -14 q 7 194 7 100 q 119 388 7 324 q 431 453 231 453 q 481 451 456 453 q 539 447 506 450 q 542 472 542 458 q 505 556 542 531 q 393 581 468 581 q 272 566 338 581 q 158 526 206 551 l 178 699 q 319 731 254 722 q 453 740 385 740 q 686 683 604 740 q 768 508 768 625 q 760 427 768 478 q 740 319 751 376 q 718 209 729 261 q 703 125 707 157 q 694 65 699 100 q 690 0 690 31 l 607 0 q 527 -77 560 -39 q 494 -154 494 -115 q 554 -206 494 -206 q 587 -203 569 -206 q 626 -194 604 -200 l 621 -289 q 562 -301 590 -297 q 501 -306 533 -306 q 396 -280 440 -306 q 351 -194 351 -254 q 388 -90 351 -137 q 486 0 424 -43 q 497 106 488 54 m 519 321 q 490 324 506 324 q 460 325 474 325 q 297 298 350 325 q 244 217 244 271 q 268 161 244 182 q 333 140 292 140 q 458 189 407 140 q 519 321 510 238 z "},"æ":{"ha":1289,"x_min":7,"x_max":1268,"o":"m 510 322 q 462 326 482 325 q 431 326 442 326 q 288 296 339 326 q 238 214 238 265 q 263 159 238 179 q 325 139 288 139 q 453 190 407 139 q 510 322 500 242 m 892 -18 q 712 12 794 -18 q 585 117 629 42 q 441 12 521 42 q 263 -18 361 -18 q 131 8 189 -18 q 40 83 72 35 q 7 193 7 131 q 45 322 7 271 q 144 401 83 372 q 275 441 204 429 q 410 453 346 453 q 471 451 440 453 q 531 447 501 450 q 533 461 533 456 q 533 472 533 467 q 494 560 533 538 q 382 583 456 583 q 281 571 338 583 q 175 533 224 558 l 196 706 q 324 735 258 726 q 438 743 390 743 q 537 733 488 743 q 627 701 586 724 q 690 640 668 679 q 799 717 738 690 q 942 743 861 743 q 1180 664 1092 743 q 1268 453 1268 585 q 1250 297 1268 383 l 733 297 q 732 287 732 292 q 732 279 732 282 q 785 180 732 213 q 922 147 838 147 q 1045 162 979 147 q 1168 203 1111 176 l 1142 29 q 1022 -6 1092 7 q 892 -18 953 -18 m 750 433 l 1049 433 q 1051 450 1050 440 q 1051 469 1051 460 q 931 597 1051 597 q 816 554 864 597 q 750 433 768 511 z "},"ć":{"ha":672,"x_min":44,"x_max":794,"o":"m 701 697 l 647 518 q 580 540 613 533 q 517 546 547 546 q 355 485 414 546 q 296 329 296 425 q 338 216 296 260 q 461 172 381 172 q 527 177 494 172 q 599 196 560 182 l 565 10 q 485 -6 522 -1 q 406 -11 447 -11 q 141 76 238 -11 q 44 317 44 164 q 101 535 44 442 q 259 681 157 629 q 497 732 361 732 q 606 723 556 732 q 701 697 657 714 m 794 1050 l 525 804 l 382 804 l 543 1050 l 794 1050 z "},"ĉ":{"ha":672,"x_min":44,"x_max":715,"o":"m 701 697 l 647 518 q 580 540 613 533 q 517 546 547 546 q 355 485 414 546 q 296 329 296 425 q 338 216 296 260 q 461 172 381 172 q 527 177 494 172 q 599 196 560 182 l 565 10 q 485 -6 522 -1 q 406 -11 447 -11 q 141 76 238 -11 q 44 317 44 164 q 101 535 44 442 q 259 681 157 629 q 497 732 361 732 q 606 723 556 732 q 701 697 657 714 m 715 804 l 586 804 l 521 936 l 404 804 l 256 804 l 467 1050 l 619 1050 l 715 804 z "},"č":{"ha":672,"x_min":44,"x_max":768,"o":"m 701 697 l 647 518 q 580 540 613 533 q 517 546 547 546 q 355 485 414 546 q 296 329 296 425 q 338 216 296 260 q 461 172 381 172 q 527 177 494 172 q 599 196 560 182 l 565 10 q 485 -6 522 -1 q 406 -11 447 -11 q 141 76 238 -11 q 44 317 44 164 q 101 535 44 442 q 259 681 157 629 q 497 732 361 732 q 606 723 556 732 q 701 697 657 714 m 308 1050 l 438 1050 l 503 918 l 619 1050 l 768 1050 l 557 804 l 404 804 l 308 1050 z "},"ċ":{"ha":672,"x_min":44,"x_max":701,"o":"m 701 697 l 647 518 q 580 540 613 533 q 517 546 547 546 q 355 485 414 546 q 296 329 296 425 q 338 216 296 260 q 461 172 381 172 q 527 177 494 172 q 599 196 560 182 l 565 10 q 485 -6 522 -1 q 406 -11 447 -11 q 141 76 238 -11 q 44 317 44 164 q 101 535 44 442 q 259 681 157 629 q 497 732 361 732 q 606 723 556 732 q 701 697 657 714 m 656 1014 l 617 831 l 365 831 l 406 1014 l 656 1014 z "},"ç":{"ha":672,"x_min":44,"x_max":701,"o":"m 701 697 l 647 518 q 580 540 613 533 q 517 546 547 546 q 355 485 414 546 q 296 329 296 425 q 338 216 296 260 q 461 172 381 172 q 527 177 494 172 q 599 196 560 182 l 565 10 q 485 -6 522 -1 q 406 -11 447 -11 q 386 -10 396 -11 q 368 -10 376 -10 l 339 -86 q 355 -85 346 -85 q 369 -85 364 -85 q 459 -110 426 -85 q 492 -182 492 -135 q 460 -262 492 -232 q 381 -306 429 -293 q 278 -319 332 -319 q 226 -317 250 -319 q 181 -310 203 -314 l 204 -237 q 276 -244 246 -244 q 315 -241 293 -244 q 354 -226 338 -237 q 371 -196 371 -215 q 349 -163 371 -171 q 294 -156 326 -156 q 266 -157 283 -156 q 231 -162 249 -158 l 283 3 q 107 113 169 31 q 44 317 44 194 q 101 535 44 442 q 259 681 157 629 q 497 732 361 732 q 606 723 556 732 q 701 697 657 714 z "},"ď":{"ha":915,"x_min":43,"x_max":1269,"o":"m 415 157 q 513 192 469 157 q 581 287 556 228 q 606 415 606 346 q 572 522 606 479 q 478 565 539 565 q 383 529 425 565 q 318 434 342 493 q 294 306 294 375 q 324 201 294 244 q 415 157 354 157 m 561 119 l 558 119 q 453 19 518 56 q 307 -18 388 -18 q 163 23 222 -18 q 74 133 104 64 q 43 286 43 203 q 71 460 43 378 q 151 605 99 542 q 274 704 203 668 q 432 740 344 740 q 573 701 518 740 q 650 599 628 661 l 653 599 q 667 688 657 631 q 689 800 678 746 l 742 1050 l 990 1050 l 803 208 q 783 107 793 165 q 769 0 774 49 l 539 0 q 546 47 540 17 q 561 119 551 78 m 1269 1050 l 1125 804 l 1001 804 l 1079 1050 l 1269 1050 z "},"đ":{"ha":915,"x_min":43,"x_max":1038,"o":"m 535 847 l 556 946 l 719 946 l 742 1050 l 990 1050 l 967 946 l 1038 946 l 1017 847 l 944 847 l 803 208 q 783 107 793 165 q 769 0 774 49 l 539 0 q 546 47 540 17 q 561 119 551 78 l 558 119 q 453 19 518 56 q 307 -18 388 -18 q 163 23 222 -18 q 74 133 104 64 q 43 286 43 203 q 71 460 43 378 q 151 605 99 542 q 274 704 203 668 q 432 740 344 740 q 573 701 518 740 q 650 599 628 661 l 653 599 q 667 688 657 631 q 689 800 678 746 l 699 847 l 535 847 m 415 157 q 513 192 469 157 q 581 287 556 228 q 606 415 606 346 q 572 522 606 479 q 478 565 539 565 q 383 529 425 565 q 318 434 342 493 q 294 306 294 375 q 324 201 294 244 q 415 157 354 157 z "},"ð":{"ha":926,"x_min":47,"x_max":854,"o":"m 703 1063 l 763 986 l 650 928 q 804 726 754 840 q 854 481 854 613 q 801 219 854 332 q 647 44 747 107 q 408 -18 547 -18 q 213 25 293 -18 q 90 139 132 68 q 47 293 47 210 q 96 507 47 418 q 228 644 144 596 q 417 692 313 692 q 507 681 464 692 q 592 642 550 669 l 594 643 q 544 749 576 704 q 463 838 513 794 l 300 758 l 240 833 l 382 904 q 261 979 322 951 l 419 1081 q 507 1035 471 1057 q 571 994 543 1014 l 703 1063 m 468 535 q 385 504 425 535 q 321 419 346 474 q 296 292 296 365 q 326 199 296 239 q 424 158 357 158 q 519 192 479 158 q 581 281 558 226 q 603 394 603 335 q 569 495 603 456 q 468 535 536 535 z "},"è":{"ha":838,"x_min":46,"x_max":817,"o":"m 799 297 l 282 297 q 281 287 281 292 q 281 279 281 282 q 333 180 281 213 q 471 147 386 147 q 594 162 528 147 q 717 203 660 176 l 690 29 q 571 -6 640 7 q 440 -18 501 -18 q 149 67 251 -18 q 46 303 46 151 q 97 524 46 425 q 247 681 147 622 q 490 740 346 740 q 728 663 640 740 q 817 453 817 585 q 799 297 817 383 m 299 433 l 597 433 q 599 450 599 440 q 600 469 600 460 q 569 565 600 535 q 479 594 538 594 q 365 553 413 594 q 299 433 317 511 m 458 804 l 293 1050 l 508 1050 l 579 804 l 458 804 z "},"é":{"ha":838,"x_min":46,"x_max":817,"o":"m 799 297 l 282 297 q 281 287 281 292 q 281 279 281 282 q 333 180 281 213 q 471 147 386 147 q 594 162 528 147 q 717 203 660 176 l 690 29 q 571 -6 640 7 q 440 -18 501 -18 q 149 67 251 -18 q 46 303 46 151 q 97 524 46 425 q 247 681 147 622 q 490 740 346 740 q 728 663 640 740 q 817 453 817 585 q 799 297 817 383 m 299 433 l 597 433 q 599 450 599 440 q 600 469 600 460 q 569 565 600 535 q 479 594 538 594 q 365 553 413 594 q 299 433 317 511 m 810 1050 l 540 804 l 397 804 l 558 1050 l 810 1050 z "},"ê":{"ha":838,"x_min":46,"x_max":817,"o":"m 799 297 l 282 297 q 281 287 281 292 q 281 279 281 282 q 333 180 281 213 q 471 147 386 147 q 594 162 528 147 q 717 203 660 176 l 690 29 q 571 -6 640 7 q 440 -18 501 -18 q 149 67 251 -18 q 46 303 46 151 q 97 524 46 425 q 247 681 147 622 q 490 740 346 740 q 728 663 640 740 q 817 453 817 585 q 799 297 817 383 m 299 433 l 597 433 q 599 450 599 440 q 600 469 600 460 q 569 565 600 535 q 479 594 538 594 q 365 553 413 594 q 299 433 317 511 m 739 804 l 610 804 l 544 936 l 428 804 l 279 804 l 490 1050 l 643 1050 l 739 804 z "},"ě":{"ha":838,"x_min":46,"x_max":817,"o":"m 799 297 l 282 297 q 281 287 281 292 q 281 279 281 282 q 333 180 281 213 q 471 147 386 147 q 594 162 528 147 q 717 203 660 176 l 690 29 q 571 -6 640 7 q 440 -18 501 -18 q 149 67 251 -18 q 46 303 46 151 q 97 524 46 425 q 247 681 147 622 q 490 740 346 740 q 728 663 640 740 q 817 453 817 585 q 799 297 817 383 m 299 433 l 597 433 q 599 450 599 440 q 600 469 600 460 q 569 565 600 535 q 479 594 538 594 q 365 553 413 594 q 299 433 317 511 m 328 1050 l 457 1050 l 522 918 l 639 1050 l 788 1050 l 576 804 l 424 804 l 328 1050 z "},"ë":{"ha":838,"x_min":46,"x_max":817,"o":"m 799 297 l 282 297 q 281 287 281 292 q 281 279 281 282 q 333 180 281 213 q 471 147 386 147 q 594 162 528 147 q 717 203 660 176 l 690 29 q 571 -6 640 7 q 440 -18 501 -18 q 149 67 251 -18 q 46 303 46 151 q 97 524 46 425 q 247 681 147 622 q 490 740 346 740 q 728 663 640 740 q 817 453 817 585 q 799 297 817 383 m 299 433 l 597 433 q 599 450 599 440 q 600 469 600 460 q 569 565 600 535 q 479 594 538 594 q 365 553 413 594 q 299 433 317 511 m 485 1014 l 446 831 l 256 831 l 296 1014 l 485 1014 m 793 1014 l 754 831 l 564 831 l 604 1014 l 793 1014 z "},"ē":{"ha":838,"x_min":46,"x_max":817,"o":"m 799 297 l 282 297 q 281 287 281 292 q 281 279 281 282 q 333 180 281 213 q 471 147 386 147 q 594 162 528 147 q 717 203 660 176 l 690 29 q 571 -6 640 7 q 440 -18 501 -18 q 149 67 251 -18 q 46 303 46 151 q 97 524 46 425 q 247 681 147 622 q 490 740 346 740 q 728 663 640 740 q 817 453 817 585 q 799 297 817 383 m 299 433 l 597 433 q 599 450 599 440 q 600 469 600 460 q 569 565 600 535 q 479 594 538 594 q 365 553 413 594 q 299 433 317 511 m 292 874 l 314 978 l 751 978 l 729 874 l 292 874 z "},"ĕ":{"ha":838,"x_min":46,"x_max":817,"o":"m 799 297 l 282 297 q 281 287 281 292 q 281 279 281 282 q 333 180 281 213 q 471 147 386 147 q 594 162 528 147 q 717 203 660 176 l 690 29 q 571 -6 640 7 q 440 -18 501 -18 q 149 67 251 -18 q 46 303 46 151 q 97 524 46 425 q 247 681 147 622 q 490 740 346 740 q 728 663 640 740 q 817 453 817 585 q 799 297 817 383 m 299 433 l 597 433 q 599 450 599 440 q 600 469 600 460 q 569 565 600 535 q 479 594 538 594 q 365 553 413 594 q 299 433 317 511 m 672 1050 l 796 1050 q 699 881 765 947 q 508 815 632 815 q 390 842 435 815 q 326 914 346 869 q 307 1007 307 958 q 308 1029 307 1018 q 310 1050 308 1040 l 424 1050 q 422 1036 422 1043 q 421 1022 421 1029 q 445 951 421 979 q 519 924 469 924 q 619 960 582 924 q 672 1050 657 996 z "},"ė":{"ha":838,"x_min":46,"x_max":817,"o":"m 799 297 l 282 297 q 281 287 281 292 q 281 279 281 282 q 333 180 281 213 q 471 147 386 147 q 594 162 528 147 q 717 203 660 176 l 690 29 q 571 -6 640 7 q 440 -18 501 -18 q 149 67 251 -18 q 46 303 46 151 q 97 524 46 425 q 247 681 147 622 q 490 740 346 740 q 728 663 640 740 q 817 453 817 585 q 799 297 817 383 m 299 433 l 597 433 q 599 450 599 440 q 600 469 600 460 q 569 565 600 535 q 479 594 538 594 q 365 553 413 594 q 299 433 317 511 m 671 1014 l 632 831 l 381 831 l 421 1014 l 671 1014 z "},"ę":{"ha":838,"x_min":46,"x_max":817,"o":"m 799 297 l 282 297 q 281 287 281 292 q 281 279 281 282 q 333 180 281 213 q 471 147 386 147 q 594 162 528 147 q 717 203 660 176 l 690 35 l 658 17 q 559 -65 599 -18 q 519 -154 519 -112 q 579 -206 519 -206 q 612 -203 594 -206 q 651 -194 629 -200 l 646 -289 q 587 -301 615 -297 q 526 -306 558 -306 q 421 -280 465 -306 q 376 -194 376 -254 q 409 -99 376 -142 q 501 -15 442 -56 l 501 -12 q 469 -17 488 -15 q 440 -18 451 -18 q 149 67 251 -18 q 46 303 46 151 q 97 524 46 425 q 247 681 147 622 q 490 740 346 740 q 728 663 640 740 q 817 453 817 585 q 799 297 817 383 m 299 433 l 597 433 q 599 450 599 440 q 600 469 600 460 q 569 565 600 535 q 479 594 538 594 q 365 553 413 594 q 299 433 317 511 z "},"ĝ":{"ha":915,"x_min":26,"x_max":917,"o":"m 656 603 l 681 722 l 917 722 l 765 26 q 692 -154 743 -79 q 549 -269 640 -229 q 311 -308 457 -308 q 163 -296 242 -308 q 26 -261 85 -283 l 75 -75 q 192 -117 132 -101 q 311 -133 251 -133 q 478 -74 422 -133 q 564 128 535 -15 l 561 128 q 451 32 515 64 q 317 0 386 0 q 115 81 186 0 q 43 297 43 163 q 70 463 43 383 q 149 604 97 542 q 272 703 200 667 q 435 740 344 740 q 576 701 521 740 q 653 603 631 663 l 656 603 m 415 175 q 512 210 468 175 q 582 301 556 244 q 608 425 608 358 q 575 528 608 486 q 481 569 542 569 q 387 535 429 569 q 319 443 344 500 q 294 318 294 386 q 324 217 294 258 q 415 175 354 175 m 768 804 l 639 804 l 574 936 l 457 804 l 308 804 l 519 1050 l 672 1050 l 768 804 z "},"ğ":{"ha":915,"x_min":26,"x_max":917,"o":"m 656 603 l 681 722 l 917 722 l 765 26 q 692 -154 743 -79 q 549 -269 640 -229 q 311 -308 457 -308 q 163 -296 242 -308 q 26 -261 85 -283 l 75 -75 q 192 -117 132 -101 q 311 -133 251 -133 q 478 -74 422 -133 q 564 128 535 -15 l 561 128 q 451 32 515 64 q 317 0 386 0 q 115 81 186 0 q 43 297 43 163 q 70 463 43 383 q 149 604 97 542 q 272 703 200 667 q 435 740 344 740 q 576 701 521 740 q 653 603 631 663 l 656 603 m 415 175 q 512 210 468 175 q 582 301 556 244 q 608 425 608 358 q 575 528 608 486 q 481 569 542 569 q 387 535 429 569 q 319 443 344 500 q 294 318 294 386 q 324 217 294 258 q 415 175 354 175 m 685 1050 l 808 1050 q 711 881 778 947 q 521 815 644 815 q 403 842 447 815 q 339 914 358 869 q 319 1007 319 958 q 320 1029 319 1018 q 322 1050 321 1040 l 436 1050 q 434 1036 435 1043 q 433 1022 433 1029 q 458 951 433 979 q 532 924 482 924 q 632 960 594 924 q 685 1050 669 996 z "},"ġ":{"ha":915,"x_min":26,"x_max":917,"o":"m 656 603 l 681 722 l 917 722 l 765 26 q 692 -154 743 -79 q 549 -269 640 -229 q 311 -308 457 -308 q 163 -296 242 -308 q 26 -261 85 -283 l 75 -75 q 192 -117 132 -101 q 311 -133 251 -133 q 478 -74 422 -133 q 564 128 535 -15 l 561 128 q 451 32 515 64 q 317 0 386 0 q 115 81 186 0 q 43 297 43 163 q 70 463 43 383 q 149 604 97 542 q 272 703 200 667 q 435 740 344 740 q 576 701 521 740 q 653 603 631 663 l 656 603 m 415 175 q 512 210 468 175 q 582 301 556 244 q 608 425 608 358 q 575 528 608 486 q 481 569 542 569 q 387 535 429 569 q 319 443 344 500 q 294 318 294 386 q 324 217 294 258 q 415 175 354 175 m 674 1014 l 635 831 l 383 831 l 424 1014 l 674 1014 z "},"ģ":{"ha":915,"x_min":26,"x_max":917,"o":"m 656 603 l 681 722 l 917 722 l 765 26 q 692 -154 743 -79 q 549 -269 640 -229 q 311 -308 457 -308 q 163 -296 242 -308 q 26 -261 85 -283 l 75 -75 q 192 -117 132 -101 q 311 -133 251 -133 q 478 -74 422 -133 q 564 128 535 -15 l 561 128 q 451 32 515 64 q 317 0 386 0 q 115 81 186 0 q 43 297 43 163 q 70 463 43 383 q 149 604 97 542 q 272 703 200 667 q 435 740 344 740 q 576 701 521 740 q 653 603 631 663 l 656 603 m 415 175 q 512 210 468 175 q 582 301 556 244 q 608 425 608 358 q 575 528 608 486 q 481 569 542 569 q 387 535 429 569 q 319 443 344 500 q 294 318 294 386 q 324 217 294 258 q 415 175 354 175 m 354 807 l 599 1050 l 733 1050 l 589 807 l 354 807 z "},"ĥ":{"ha":915,"x_min":7,"x_max":856,"o":"m 481 1050 l 433 833 q 416 758 426 801 q 395 674 406 714 q 378 615 385 635 l 381 615 q 490 713 431 685 q 615 740 549 740 q 792 674 728 740 q 856 492 856 607 q 850 410 856 453 q 835 325 844 368 l 767 0 l 522 0 l 592 335 q 601 389 597 358 q 606 436 606 419 q 583 515 606 486 q 511 543 560 543 q 397 490 446 543 q 329 346 349 436 l 257 0 l 7 0 l 231 1050 l 481 1050 m 799 1097 l 669 1097 l 596 1201 l 486 1097 l 338 1097 l 544 1315 l 697 1315 l 799 1097 z "},"ħ":{"ha":915,"x_min":7,"x_max":856,"o":"m 481 1050 l 457 944 l 613 944 l 592 849 l 435 849 l 428 815 q 412 744 421 783 q 394 669 403 704 q 378 615 385 635 l 381 615 q 490 714 431 685 q 615 743 549 743 q 792 675 728 743 q 856 492 856 607 q 850 410 856 453 q 835 325 844 368 l 767 0 l 522 0 l 592 335 q 601 389 597 358 q 606 436 606 419 q 583 515 606 486 q 511 543 560 543 q 397 490 446 543 q 329 346 349 436 l 257 0 l 7 0 l 188 849 l 110 849 l 131 944 l 207 944 l 231 1050 l 481 1050 z "},"ı":{"ha":417,"x_min":7,"x_max":413,"o":"m 260 0 l 7 0 l 161 722 l 413 722 l 260 0 z "},"ì":{"ha":417,"x_min":7,"x_max":413,"o":"m 260 0 l 7 0 l 161 722 l 413 722 l 260 0 m 256 804 l 90 1050 l 306 1050 l 376 804 l 256 804 z "},"í":{"ha":417,"x_min":7,"x_max":621,"o":"m 260 0 l 7 0 l 161 722 l 413 722 l 260 0 m 621 1050 l 351 804 l 208 804 l 369 1050 l 621 1050 z "},"î":{"ha":417,"x_min":7,"x_max":538,"o":"m 260 0 l 7 0 l 161 722 l 413 722 l 260 0 m 538 804 l 408 804 l 343 936 l 226 804 l 78 804 l 289 1050 l 442 1050 l 538 804 z "},"ĩ":{"ha":417,"x_min":7,"x_max":600,"o":"m 260 0 l 7 0 l 161 722 l 413 722 l 260 0 m 168 815 l 74 815 q 134 957 90 901 q 242 1013 178 1013 q 292 1003 269 1013 q 346 975 315 994 q 401 946 381 954 q 439 938 421 938 q 480 953 465 938 q 504 1008 494 969 l 600 1008 q 543 866 583 922 q 436 810 503 810 q 379 820 406 810 q 319 850 353 831 q 272 876 292 867 q 235 885 253 885 q 197 868 215 885 q 168 815 179 851 z "},"ï":{"ha":417,"x_min":7,"x_max":588,"o":"m 260 0 l 7 0 l 161 722 l 413 722 l 260 0 m 279 1014 l 240 831 l 50 831 l 90 1014 l 279 1014 m 588 1014 l 549 831 l 358 831 l 399 1014 l 588 1014 z "},"ī":{"ha":417,"x_min":7,"x_max":553,"o":"m 260 0 l 7 0 l 161 722 l 413 722 l 260 0 m 93 874 l 115 978 l 553 978 l 531 874 l 93 874 z "},"ĭ":{"ha":417,"x_min":7,"x_max":592,"o":"m 260 0 l 7 0 l 161 722 l 413 722 l 260 0 m 468 1050 l 592 1050 q 494 881 561 947 q 304 815 428 815 q 186 842 231 815 q 122 914 142 869 q 103 1007 103 958 q 103 1029 103 1018 q 106 1050 104 1040 l 219 1050 q 217 1036 218 1043 q 217 1022 217 1029 q 241 951 217 979 q 315 924 265 924 q 415 960 378 924 q 468 1050 453 996 z "},"į":{"ha":417,"x_min":-32,"x_max":469,"o":"m 260 0 l 224 0 q 144 -77 176 -39 q 111 -154 111 -115 q 171 -206 111 -206 q 203 -203 186 -206 q 243 -194 221 -200 l 238 -289 q 178 -301 207 -297 q 118 -306 150 -306 q 13 -280 57 -306 q -32 -194 -32 -254 q 4 -90 -32 -137 q 103 0 40 -43 l 7 0 l 161 722 l 413 722 l 260 0 m 469 1014 l 431 831 l 179 831 l 219 1014 l 469 1014 z "},"ȷ":{"ha":417,"x_min":-187,"x_max":413,"o":"m 161 722 l 413 722 l 254 -32 q 201 -181 236 -119 q 101 -276 165 -243 q -71 -308 38 -308 q -131 -303 -99 -308 q -187 -292 -164 -297 l -146 -106 q -119 -112 -133 -110 q -94 -114 -104 -114 q -29 -92 -53 -114 q 4 -21 -6 -69 l 161 722 z "},"ĵ":{"ha":417,"x_min":-187,"x_max":529,"o":"m 161 722 l 413 722 l 254 -32 q 201 -181 236 -119 q 101 -276 165 -243 q -71 -308 38 -308 q -131 -303 -99 -308 q -187 -292 -164 -297 l -146 -106 q -119 -112 -133 -110 q -94 -114 -104 -114 q -29 -92 -53 -114 q 4 -21 -6 -69 l 161 722 m 529 804 l 400 804 l 335 936 l 218 804 l 69 804 l 281 1050 l 433 1050 l 529 804 z "},"ķ":{"ha":838,"x_min":7,"x_max":888,"o":"m 333 381 l 258 0 l 7 0 l 231 1050 l 482 1050 l 346 440 l 349 440 q 378 476 356 449 q 451 563 400 504 q 589 722 501 621 l 888 722 l 583 399 l 771 0 l 488 0 q 399 210 431 133 q 354 326 368 288 q 336 381 340 364 l 333 381 m 482 -86 l 238 -329 l 103 -329 l 247 -86 l 482 -86 z "},"ĸ":{"ha":836,"x_min":6,"x_max":886,"o":"m 332 381 l 257 0 l 6 0 l 158 722 l 408 722 l 344 440 l 347 440 q 376 476 354 449 q 449 563 399 504 q 588 722 500 621 l 886 722 l 582 399 l 769 0 l 486 0 q 398 210 429 133 q 353 326 367 288 q 335 381 339 364 l 332 381 z "},"ĺ":{"ha":417,"x_min":7,"x_max":690,"o":"m 231 1050 l 481 1050 l 258 0 l 7 0 l 231 1050 m 690 1317 l 419 1097 l 274 1097 l 436 1317 l 690 1317 z "},"ľ":{"ha":417,"x_min":7,"x_max":763,"o":"m 231 1050 l 481 1050 l 258 0 l 7 0 l 231 1050 m 763 1050 l 618 804 l 494 804 l 572 1050 l 763 1050 z "},"ļ":{"ha":417,"x_min":-114,"x_max":481,"o":"m 231 1050 l 481 1050 l 258 0 l 7 0 l 231 1050 m 265 -86 l 21 -329 l -114 -329 l 31 -86 l 265 -86 z "},"ł":{"ha":444,"x_min":21,"x_max":519,"o":"m 519 804 l 494 685 l 406 632 l 272 0 l 21 0 l 126 493 l 35 439 l 61 557 l 151 610 l 244 1050 l 494 1050 l 432 753 l 519 804 z "},"ŀ":{"ha":678,"x_min":7,"x_max":731,"o":"m 231 1050 l 481 1050 l 258 0 l 7 0 l 231 1050 m 731 653 l 692 469 l 440 469 l 481 653 l 731 653 z "},"ń":{"ha":906,"x_min":6,"x_max":853,"o":"m 358 604 l 361 604 q 476 707 413 674 q 613 740 539 740 q 789 674 725 740 q 853 493 853 608 q 847 411 853 454 q 832 325 842 368 l 764 0 l 519 0 l 589 335 q 599 389 594 358 q 603 436 603 419 q 580 515 603 486 q 508 543 557 543 q 394 490 443 543 q 326 346 346 436 l 254 0 l 6 0 l 124 563 q 138 641 131 599 q 150 722 144 683 l 378 722 q 370 664 376 699 q 358 604 364 629 m 826 1050 l 557 804 l 414 804 l 575 1050 l 826 1050 z "},"ň":{"ha":906,"x_min":6,"x_max":853,"o":"m 358 604 l 361 604 q 476 707 413 674 q 613 740 539 740 q 789 674 725 740 q 853 493 853 608 q 847 411 853 454 q 832 325 842 368 l 764 0 l 519 0 l 589 335 q 599 389 594 358 q 603 436 603 419 q 580 515 603 486 q 508 543 557 543 q 394 490 443 543 q 326 346 346 436 l 254 0 l 6 0 l 124 563 q 138 641 131 599 q 150 722 144 683 l 378 722 q 370 664 376 699 q 358 604 364 629 m 335 1050 l 464 1050 l 529 918 l 646 1050 l 794 1050 l 583 804 l 431 804 l 335 1050 z "},"ñ":{"ha":906,"x_min":6,"x_max":853,"o":"m 358 604 l 361 604 q 476 707 413 674 q 613 740 539 740 q 789 674 725 740 q 853 493 853 608 q 847 411 853 454 q 832 325 842 368 l 764 0 l 519 0 l 589 335 q 599 389 594 358 q 603 436 603 419 q 580 515 603 486 q 508 543 557 543 q 394 490 443 543 q 326 346 346 436 l 254 0 l 6 0 l 124 563 q 138 641 131 599 q 150 722 144 683 l 378 722 q 370 664 376 699 q 358 604 364 629 m 397 815 l 303 815 q 363 957 319 901 q 471 1013 407 1013 q 522 1003 499 1013 q 575 975 544 994 q 630 946 610 954 q 668 938 650 938 q 709 953 694 938 q 733 1008 724 969 l 829 1008 q 772 866 813 922 q 665 810 732 810 q 608 820 635 810 q 549 850 582 831 q 501 876 521 867 q 464 885 482 885 q 426 868 444 885 q 397 815 408 851 z "},"ņ":{"ha":906,"x_min":6,"x_max":853,"o":"m 358 604 l 361 604 q 476 707 413 674 q 613 740 539 740 q 789 674 725 740 q 853 493 853 608 q 847 411 853 454 q 832 325 842 368 l 764 0 l 519 0 l 589 335 q 599 389 594 358 q 603 436 603 419 q 580 515 603 486 q 508 543 557 543 q 394 490 443 543 q 326 346 346 436 l 254 0 l 6 0 l 124 563 q 138 641 131 599 q 150 722 144 683 l 378 722 q 370 664 376 699 q 358 604 364 629 m 522 -86 l 278 -329 l 143 -329 l 288 -86 l 522 -86 z "},"ŉ":{"ha":906,"x_min":-21,"x_max":853,"o":"m 358 604 l 361 604 q 476 707 413 674 q 613 740 539 740 q 789 674 725 740 q 853 493 853 608 q 847 411 853 454 q 832 325 842 368 l 764 0 l 519 0 l 589 335 q 599 389 594 358 q 603 436 603 419 q 580 515 603 486 q 508 543 557 543 q 394 490 443 543 q 326 346 346 436 l 254 0 l 6 0 l 124 563 q 138 641 131 599 q 150 722 144 683 l 378 722 q 370 664 376 699 q 358 604 364 629 m 247 1050 l 103 804 l -21 804 l 57 1050 l 247 1050 z "},"ŋ":{"ha":906,"x_min":6,"x_max":853,"o":"m 515 -21 l 589 335 q 599 389 594 358 q 603 436 603 419 q 580 515 603 486 q 508 543 557 543 q 394 490 443 543 q 326 346 346 436 l 254 0 l 6 0 l 124 563 q 138 641 131 599 q 150 722 144 683 l 378 722 q 370 664 376 699 q 358 604 364 629 l 361 604 q 613 743 463 743 q 789 676 725 743 q 853 493 853 608 q 847 411 853 454 q 832 325 842 368 l 757 -32 q 704 -181 739 -119 q 606 -276 669 -243 q 438 -308 543 -308 q 377 -303 410 -308 q 321 -292 344 -297 l 363 -106 q 390 -112 375 -110 q 414 -114 404 -114 q 481 -92 456 -114 q 515 -21 506 -69 z "},"ò":{"ha":903,"x_min":44,"x_max":857,"o":"m 504 740 q 692 698 613 740 q 814 581 771 656 q 857 406 857 506 q 800 178 857 274 q 641 33 743 83 q 406 -18 539 -18 q 140 67 235 -18 q 44 306 44 151 q 101 529 44 431 q 262 684 158 628 q 504 740 365 740 m 483 569 q 389 535 432 569 q 319 442 346 500 q 293 313 293 383 q 328 194 293 238 q 424 151 363 151 q 520 186 478 151 q 586 281 563 221 q 610 415 610 340 q 577 527 610 485 q 483 569 544 569 m 479 804 l 314 1050 l 529 1050 l 600 804 l 479 804 z "},"ó":{"ha":903,"x_min":44,"x_max":857,"o":"m 504 740 q 692 698 613 740 q 814 581 771 656 q 857 406 857 506 q 800 178 857 274 q 641 33 743 83 q 406 -18 539 -18 q 140 67 235 -18 q 44 306 44 151 q 101 529 44 431 q 262 684 158 628 q 504 740 365 740 m 483 569 q 389 535 432 569 q 319 442 346 500 q 293 313 293 383 q 328 194 293 238 q 424 151 363 151 q 520 186 478 151 q 586 281 563 221 q 610 415 610 340 q 577 527 610 485 q 483 569 544 569 m 825 1050 l 556 804 l 413 804 l 574 1050 l 825 1050 z "},"ô":{"ha":903,"x_min":44,"x_max":857,"o":"m 504 740 q 692 698 613 740 q 814 581 771 656 q 857 406 857 506 q 800 178 857 274 q 641 33 743 83 q 406 -18 539 -18 q 140 67 235 -18 q 44 306 44 151 q 101 529 44 431 q 262 684 158 628 q 504 740 365 740 m 483 569 q 389 535 432 569 q 319 442 346 500 q 293 313 293 383 q 328 194 293 238 q 424 151 363 151 q 520 186 478 151 q 586 281 563 221 q 610 415 610 340 q 577 527 610 485 q 483 569 544 569 m 744 804 l 615 804 l 550 936 l 433 804 l 285 804 l 496 1050 l 649 1050 l 744 804 z "},"õ":{"ha":903,"x_min":44,"x_max":857,"o":"m 504 740 q 692 698 613 740 q 814 581 771 656 q 857 406 857 506 q 800 178 857 274 q 641 33 743 83 q 406 -18 539 -18 q 140 67 235 -18 q 44 306 44 151 q 101 529 44 431 q 262 684 158 628 q 504 740 365 740 m 483 569 q 389 535 432 569 q 319 442 346 500 q 293 313 293 383 q 328 194 293 238 q 424 151 363 151 q 520 186 478 151 q 586 281 563 221 q 610 415 610 340 q 577 527 610 485 q 483 569 544 569 m 378 815 l 283 815 q 344 957 300 901 q 451 1013 388 1013 q 502 1003 479 1013 q 556 975 525 994 q 610 946 590 954 q 649 938 631 938 q 690 953 675 938 q 714 1008 704 969 l 810 1008 q 753 866 793 922 q 646 810 713 810 q 589 820 615 810 q 529 850 563 831 q 482 876 501 867 q 444 885 463 885 q 407 868 425 885 q 378 815 389 851 z "},"ö":{"ha":903,"x_min":44,"x_max":857,"o":"m 504 740 q 692 698 613 740 q 814 581 771 656 q 857 406 857 506 q 800 178 857 274 q 641 33 743 83 q 406 -18 539 -18 q 140 67 235 -18 q 44 306 44 151 q 101 529 44 431 q 262 684 158 628 q 504 740 365 740 m 483 569 q 389 535 432 569 q 319 442 346 500 q 293 313 293 383 q 328 194 293 238 q 424 151 363 151 q 520 186 478 151 q 586 281 563 221 q 610 415 610 340 q 577 527 610 485 q 483 569 544 569 m 504 1014 l 465 831 l 275 831 l 315 1014 l 504 1014 m 813 1014 l 774 831 l 583 831 l 624 1014 l 813 1014 z "},"ō":{"ha":903,"x_min":44,"x_max":857,"o":"m 504 740 q 692 698 613 740 q 814 581 771 656 q 857 406 857 506 q 800 178 857 274 q 641 33 743 83 q 406 -18 539 -18 q 140 67 235 -18 q 44 306 44 151 q 101 529 44 431 q 262 684 158 628 q 504 740 365 740 m 483 569 q 389 535 432 569 q 319 442 346 500 q 293 313 293 383 q 328 194 293 238 q 424 151 363 151 q 520 186 478 151 q 586 281 563 221 q 610 415 610 340 q 577 527 610 485 q 483 569 544 569 m 306 874 l 328 978 l 765 978 l 743 874 l 306 874 z "},"ŏ":{"ha":903,"x_min":44,"x_max":857,"o":"m 504 740 q 692 698 613 740 q 814 581 771 656 q 857 406 857 506 q 800 178 857 274 q 641 33 743 83 q 406 -18 539 -18 q 140 67 235 -18 q 44 306 44 151 q 101 529 44 431 q 262 684 158 628 q 504 740 365 740 m 483 569 q 389 535 432 569 q 319 442 346 500 q 293 313 293 383 q 328 194 293 238 q 424 151 363 151 q 520 186 478 151 q 586 281 563 221 q 610 415 610 340 q 577 527 610 485 q 483 569 544 569 m 685 1050 l 808 1050 q 711 881 778 947 q 521 815 644 815 q 403 842 447 815 q 339 914 358 869 q 319 1007 319 958 q 320 1029 319 1018 q 322 1050 321 1040 l 436 1050 q 434 1036 435 1043 q 433 1022 433 1029 q 458 951 433 979 q 532 924 482 924 q 632 960 594 924 q 685 1050 669 996 z "},"ő":{"ha":903,"x_min":44,"x_max":974,"o":"m 504 740 q 692 698 613 740 q 814 581 771 656 q 857 406 857 506 q 800 178 857 274 q 641 33 743 83 q 406 -18 539 -18 q 140 67 235 -18 q 44 306 44 151 q 101 529 44 431 q 262 684 158 628 q 504 740 365 740 m 483 569 q 389 535 432 569 q 319 442 346 500 q 293 313 293 383 q 328 194 293 238 q 424 151 363 151 q 520 186 478 151 q 586 281 563 221 q 610 415 610 340 q 577 527 610 485 q 483 569 544 569 m 974 1050 l 697 804 l 560 804 l 756 1050 l 974 1050 m 653 1050 l 404 804 l 272 804 l 433 1050 l 653 1050 z "},"ø":{"ha":903,"x_min":8,"x_max":881,"o":"m 504 740 q 729 674 639 740 l 826 764 l 881 707 l 786 619 q 838 524 819 578 q 857 406 857 469 q 800 178 857 274 q 641 33 743 83 q 406 -18 539 -18 q 163 47 256 -18 l 63 -44 l 8 13 l 106 103 q 44 306 44 181 q 101 529 44 431 q 262 684 158 628 q 504 740 365 740 m 617 417 q 613 461 617 440 l 318 190 q 421 146 354 146 q 522 181 478 146 q 592 278 567 217 q 617 417 617 339 m 483 575 q 384 540 429 575 q 311 444 339 504 q 283 311 283 385 q 284 289 283 300 q 286 268 285 278 l 578 536 q 483 575 543 575 z "},"œ":{"ha":1392,"x_min":44,"x_max":1371,"o":"m 489 740 q 647 712 571 740 q 763 624 722 683 q 886 710 818 681 q 1044 740 954 740 q 1283 663 1194 740 q 1371 453 1371 585 q 1353 297 1371 383 l 836 297 q 835 287 835 292 q 835 279 835 282 q 888 180 835 213 q 1025 147 940 147 q 1148 162 1082 147 q 1271 203 1214 176 l 1244 29 q 1125 -6 1194 7 q 994 -18 1056 -18 q 815 12 882 -18 q 700 99 749 42 q 578 13 647 44 q 406 -18 508 -18 q 140 67 235 -18 q 44 306 44 151 q 99 528 44 429 q 254 683 154 626 q 489 740 354 740 m 483 569 q 389 535 432 569 q 319 442 346 500 q 293 313 293 383 q 328 194 293 238 q 424 151 363 151 q 520 186 478 151 q 586 281 563 221 q 610 415 610 340 q 577 527 610 485 q 483 569 544 569 m 853 433 l 1151 433 q 1153 450 1153 440 q 1154 469 1154 460 q 1033 597 1154 597 q 919 554 967 597 q 853 433 871 511 z "},"ŕ":{"ha":606,"x_min":6,"x_max":688,"o":"m 363 604 l 365 604 q 465 706 413 671 q 590 740 517 740 q 626 738 607 740 q 660 731 646 736 l 607 517 q 563 531 586 526 q 515 535 539 535 q 388 478 435 535 q 322 331 342 421 l 254 0 l 6 0 l 124 563 q 138 641 131 599 q 150 722 144 683 l 378 722 q 372 664 376 699 q 363 604 368 629 m 688 1050 l 418 804 l 275 804 l 436 1050 l 688 1050 z "},"ř":{"ha":606,"x_min":6,"x_max":699,"o":"m 363 604 l 365 604 q 465 706 413 671 q 590 740 517 740 q 626 738 607 740 q 660 731 646 736 l 607 517 q 563 531 586 526 q 515 535 539 535 q 388 478 435 535 q 322 331 342 421 l 254 0 l 6 0 l 124 563 q 138 641 131 599 q 150 722 144 683 l 378 722 q 372 664 376 699 q 363 604 368 629 m 239 1050 l 368 1050 l 433 918 l 550 1050 l 699 1050 l 488 804 l 335 804 l 239 1050 z "},"ŗ":{"ha":606,"x_min":-119,"x_max":660,"o":"m 363 604 l 365 604 q 465 706 413 671 q 590 740 517 740 q 626 738 607 740 q 660 731 646 736 l 607 517 q 563 531 586 526 q 515 535 539 535 q 388 478 435 535 q 322 331 342 421 l 254 0 l 6 0 l 124 563 q 138 641 131 599 q 150 722 144 683 l 378 722 q 372 664 376 699 q 363 604 368 629 m 260 -86 l 15 -329 l -119 -329 l 25 -86 l 260 -86 z "},"ś":{"ha":657,"x_min":-12,"x_max":717,"o":"m 664 699 l 614 532 q 522 563 571 551 q 428 574 472 574 q 355 563 383 574 q 326 522 326 551 q 350 479 326 496 q 428 436 374 463 q 559 347 518 393 q 600 228 600 301 q 567 105 600 153 q 479 30 533 57 q 362 -8 425 3 q 238 -18 299 -18 q 105 -8 172 -18 q -12 21 38 3 l 35 200 q 133 169 76 182 q 233 156 189 156 q 319 171 293 156 q 344 217 344 186 q 318 264 344 244 q 222 314 292 283 q 113 390 151 346 q 75 499 75 433 q 122 631 75 576 q 249 713 168 685 q 432 740 331 740 q 551 730 494 740 q 664 699 608 719 m 717 1050 l 447 804 l 304 804 l 465 1050 l 717 1050 z "},"ŝ":{"ha":657,"x_min":-12,"x_max":664,"o":"m 664 699 l 614 532 q 522 563 571 551 q 428 574 472 574 q 355 563 383 574 q 326 522 326 551 q 350 479 326 496 q 428 436 374 463 q 559 347 518 393 q 600 228 600 301 q 567 105 600 153 q 479 30 533 57 q 362 -8 425 3 q 238 -18 299 -18 q 105 -8 172 -18 q -12 21 38 3 l 35 200 q 133 169 76 182 q 233 156 189 156 q 319 171 293 156 q 344 217 344 186 q 318 264 344 244 q 222 314 292 283 q 113 390 151 346 q 75 499 75 433 q 122 631 75 576 q 249 713 168 685 q 432 740 331 740 q 551 730 494 740 q 664 699 608 719 m 664 804 l 535 804 l 469 936 l 353 804 l 204 804 l 415 1050 l 568 1050 l 664 804 z "},"š":{"ha":657,"x_min":-12,"x_max":715,"o":"m 664 699 l 614 532 q 522 563 571 551 q 428 574 472 574 q 355 563 383 574 q 326 522 326 551 q 350 479 326 496 q 428 436 374 463 q 559 347 518 393 q 600 228 600 301 q 567 105 600 153 q 479 30 533 57 q 362 -8 425 3 q 238 -18 299 -18 q 105 -8 172 -18 q -12 21 38 3 l 35 200 q 133 169 76 182 q 233 156 189 156 q 319 171 293 156 q 344 217 344 186 q 318 264 344 244 q 222 314 292 283 q 113 390 151 346 q 75 499 75 433 q 122 631 75 576 q 249 713 168 685 q 432 740 331 740 q 551 730 494 740 q 664 699 608 719 m 256 1050 l 385 1050 l 450 918 l 567 1050 l 715 1050 l 504 804 l 351 804 l 256 1050 z "},"ş":{"ha":657,"x_min":-12,"x_max":664,"o":"m 664 699 l 614 532 q 522 563 571 551 q 428 574 472 574 q 355 563 383 574 q 326 522 326 551 q 350 479 326 496 q 428 436 374 463 q 559 347 518 393 q 600 228 600 301 q 573 115 600 161 q 500 42 546 69 q 399 1 454 14 q 288 -17 344 -12 l 261 -86 q 277 -85 268 -85 q 292 -85 286 -85 q 381 -110 349 -85 q 414 -182 414 -135 q 383 -262 414 -232 q 303 -306 351 -293 q 200 -319 254 -319 q 149 -317 172 -319 q 103 -310 125 -314 l 126 -237 q 199 -244 168 -244 q 238 -241 215 -244 q 276 -226 260 -237 q 293 -196 293 -215 q 271 -163 293 -171 q 217 -156 249 -156 q 188 -157 206 -156 q 153 -162 171 -158 l 197 -17 q 86 -4 142 -14 q -12 21 31 6 l 35 200 q 133 169 76 182 q 233 156 189 156 q 319 171 293 156 q 344 217 344 186 q 318 264 344 244 q 222 314 292 283 q 113 390 151 346 q 75 499 75 433 q 122 631 75 576 q 249 713 168 685 q 432 740 331 740 q 551 730 494 740 q 664 699 608 719 z "},"ș":{"ha":657,"x_min":-12,"x_max":664,"o":"m 664 699 l 614 532 q 522 563 571 551 q 428 574 472 574 q 355 563 383 574 q 326 522 326 551 q 350 479 326 496 q 428 436 374 463 q 559 347 518 393 q 600 228 600 301 q 567 105 600 153 q 479 30 533 57 q 362 -8 425 3 q 238 -18 299 -18 q 105 -8 172 -18 q -12 21 38 3 l 35 200 q 133 169 76 182 q 233 156 189 156 q 319 171 293 156 q 344 217 344 186 q 318 264 344 244 q 222 314 292 283 q 113 390 151 346 q 75 499 75 433 q 122 631 75 576 q 249 713 168 685 q 432 740 331 740 q 551 730 494 740 q 664 699 608 719 m 425 -86 l 181 -329 l 46 -329 l 190 -86 l 425 -86 z "},"ß":{"ha":926,"x_min":7,"x_max":938,"o":"m 7 0 l 161 722 q 234 898 183 824 q 371 1014 285 972 q 583 1056 457 1056 q 843 990 749 1056 q 938 804 938 924 q 868 627 938 694 q 681 544 799 560 l 681 542 q 821 465 772 521 q 869 321 869 408 q 823 147 869 221 q 691 31 776 72 q 489 -10 606 -10 q 412 -6 450 -10 q 340 4 374 -1 l 381 182 q 421 174 401 176 q 461 171 440 171 q 583 214 538 171 q 628 333 628 257 q 471 457 628 457 l 458 457 l 492 626 q 506 625 500 625 q 518 625 511 625 q 645 667 596 625 q 694 776 694 708 q 663 858 694 828 q 575 889 632 889 q 464 838 501 889 q 407 692 426 786 l 258 0 l 7 0 z "},"ť":{"ha":582,"x_min":49,"x_max":829,"o":"m 247 881 l 511 950 l 461 722 l 636 722 l 603 547 l 424 547 l 365 275 q 358 226 358 244 q 379 174 358 192 q 436 156 400 156 q 469 159 454 156 q 504 168 485 163 l 478 1 q 358 -12 422 -12 q 169 44 232 -12 q 107 200 107 101 q 115 276 107 235 l 175 547 l 49 547 l 86 722 l 213 722 l 247 881 m 829 1050 l 685 804 l 561 804 l 639 1050 l 829 1050 z "},"ţ":{"ha":582,"x_min":44,"x_max":636,"o":"m 247 881 l 511 950 l 461 722 l 636 722 l 603 547 l 424 547 l 365 275 q 358 226 358 244 q 379 174 358 192 q 436 156 400 156 q 469 159 454 156 q 504 168 485 163 l 478 1 q 358 -12 422 -12 q 169 44 232 -12 q 107 200 107 101 q 115 276 107 235 l 175 547 l 49 547 l 86 722 l 213 722 l 247 881 m 424 -86 l 179 -329 l 44 -329 l 189 -86 l 424 -86 z "},"ț":{"ha":582,"x_min":44,"x_max":636,"o":"m 247 881 l 511 950 l 461 722 l 636 722 l 603 547 l 424 547 l 365 275 q 358 226 358 244 q 379 174 358 192 q 436 156 400 156 q 469 159 454 156 q 504 168 485 163 l 478 1 q 358 -12 422 -12 q 169 44 232 -12 q 107 200 107 101 q 115 276 107 235 l 175 547 l 49 547 l 86 722 l 213 722 l 247 881 m 424 -86 l 179 -329 l 44 -329 l 189 -86 l 424 -86 z "},"ŧ":{"ha":582,"x_min":49,"x_max":636,"o":"m 247 881 l 511 950 l 461 722 l 636 722 l 603 547 l 424 547 l 404 461 l 529 461 l 508 363 l 383 363 l 365 275 q 358 226 358 244 q 379 174 358 192 q 436 156 400 156 q 469 159 454 156 q 504 168 485 163 l 478 1 q 358 -12 422 -12 q 169 44 232 -12 q 107 200 107 101 q 115 276 107 235 l 133 363 l 50 363 l 71 461 l 156 461 l 175 547 l 49 547 l 86 722 l 213 722 l 247 881 z "},"þ":{"ha":915,"x_min":-61,"x_max":868,"o":"m 496 567 q 399 531 443 567 q 331 437 356 496 q 306 308 306 378 q 342 201 306 244 q 438 158 378 158 q 533 196 493 158 q 595 294 574 233 q 617 425 617 354 q 589 525 617 483 q 496 567 561 567 m 267 121 l 264 121 q 248 35 258 89 q 229 -58 238 -18 l 181 -292 l -61 -292 l 222 1050 l 469 1050 l 413 800 q 390 707 403 756 q 368 626 376 658 l 371 626 q 473 710 414 679 q 601 740 532 740 q 803 661 738 740 q 868 443 868 582 q 841 265 868 349 q 763 118 814 182 q 640 18 711 54 q 478 -18 568 -18 q 341 22 393 -18 q 267 121 289 61 z "},"ù":{"ha":915,"x_min":57,"x_max":904,"o":"m 547 104 l 544 104 q 432 13 493 44 q 297 -18 371 -18 q 121 49 185 -18 q 57 232 57 117 q 63 313 57 272 q 78 397 68 354 l 146 722 l 390 722 l 321 388 q 311 334 315 365 q 307 286 307 303 q 331 208 307 236 q 401 179 354 179 q 515 233 467 179 q 583 376 564 288 l 656 722 l 904 722 l 786 160 q 772 83 779 125 q 760 0 765 40 l 532 0 q 547 104 536 53 m 494 804 l 329 1050 l 544 1050 l 615 804 l 494 804 z "},"ú":{"ha":915,"x_min":57,"x_max":904,"o":"m 547 104 l 544 104 q 432 13 493 44 q 297 -18 371 -18 q 121 49 185 -18 q 57 232 57 117 q 63 313 57 272 q 78 397 68 354 l 146 722 l 390 722 l 321 388 q 311 334 315 365 q 307 286 307 303 q 331 208 307 236 q 401 179 354 179 q 515 233 467 179 q 583 376 564 288 l 656 722 l 904 722 l 786 160 q 772 83 779 125 q 760 0 765 40 l 532 0 q 547 104 536 53 m 846 1050 l 576 804 l 433 804 l 594 1050 l 846 1050 z "},"û":{"ha":915,"x_min":57,"x_max":904,"o":"m 547 104 l 544 104 q 432 13 493 44 q 297 -18 371 -18 q 121 49 185 -18 q 57 232 57 117 q 63 313 57 272 q 78 397 68 354 l 146 722 l 390 722 l 321 388 q 311 334 315 365 q 307 286 307 303 q 331 208 307 236 q 401 179 354 179 q 515 233 467 179 q 583 376 564 288 l 656 722 l 904 722 l 786 160 q 772 83 779 125 q 760 0 765 40 l 532 0 q 547 104 536 53 m 774 804 l 644 804 l 579 936 l 463 804 l 314 804 l 525 1050 l 678 1050 l 774 804 z "},"ũ":{"ha":915,"x_min":57,"x_max":904,"o":"m 547 104 l 544 104 q 432 13 493 44 q 297 -18 371 -18 q 121 49 185 -18 q 57 232 57 117 q 63 313 57 272 q 78 397 68 354 l 146 722 l 390 722 l 321 388 q 311 334 315 365 q 307 286 307 303 q 331 208 307 236 q 401 179 354 179 q 515 233 467 179 q 583 376 564 288 l 656 722 l 904 722 l 786 160 q 772 83 779 125 q 760 0 765 40 l 532 0 q 547 104 536 53 m 392 815 l 297 815 q 358 957 314 901 q 465 1013 401 1013 q 516 1003 493 1013 q 569 975 539 994 q 624 946 604 954 q 663 938 644 938 q 703 953 689 938 q 728 1008 718 969 l 824 1008 q 767 866 807 922 q 660 810 726 810 q 603 820 629 810 q 543 850 576 831 q 496 876 515 867 q 458 885 476 885 q 421 868 439 885 q 392 815 403 851 z "},"ü":{"ha":915,"x_min":57,"x_max":904,"o":"m 547 104 l 544 104 q 432 13 493 44 q 297 -18 371 -18 q 121 49 185 -18 q 57 232 57 117 q 63 313 57 272 q 78 397 68 354 l 146 722 l 390 722 l 321 388 q 311 334 315 365 q 307 286 307 303 q 331 208 307 236 q 401 179 354 179 q 515 233 467 179 q 583 376 564 288 l 656 722 l 904 722 l 786 160 q 772 83 779 125 q 760 0 765 40 l 532 0 q 547 104 536 53 m 510 1014 l 471 831 l 281 831 l 321 1014 l 510 1014 m 818 1014 l 779 831 l 589 831 l 629 1014 l 818 1014 z "},"ū":{"ha":915,"x_min":57,"x_max":904,"o":"m 547 104 l 544 104 q 432 13 493 44 q 297 -18 371 -18 q 121 49 185 -18 q 57 232 57 117 q 63 313 57 272 q 78 397 68 354 l 146 722 l 390 722 l 321 388 q 311 334 315 365 q 307 286 307 303 q 331 208 307 236 q 401 179 354 179 q 515 233 467 179 q 583 376 564 288 l 656 722 l 904 722 l 786 160 q 772 83 779 125 q 760 0 765 40 l 532 0 q 547 104 536 53 m 319 874 l 342 978 l 779 978 l 757 874 l 319 874 z "},"ŭ":{"ha":915,"x_min":57,"x_max":904,"o":"m 547 104 l 544 104 q 432 13 493 44 q 297 -18 371 -18 q 121 49 185 -18 q 57 232 57 117 q 63 313 57 272 q 78 397 68 354 l 146 722 l 390 722 l 321 388 q 311 334 315 365 q 307 286 307 303 q 331 208 307 236 q 401 179 354 179 q 515 233 467 179 q 583 376 564 288 l 656 722 l 904 722 l 786 160 q 772 83 779 125 q 760 0 765 40 l 532 0 q 547 104 536 53 m 686 1050 l 810 1050 q 713 881 779 947 q 522 815 646 815 q 404 842 449 815 q 340 914 360 869 q 321 1007 321 958 q 322 1029 321 1018 q 324 1050 322 1040 l 438 1050 q 435 1036 436 1043 q 435 1022 435 1029 q 459 951 435 979 q 533 924 483 924 q 633 960 596 924 q 686 1050 671 996 z "},"ů":{"ha":915,"x_min":57,"x_max":904,"o":"m 547 104 l 544 104 q 432 13 493 44 q 297 -18 371 -18 q 121 49 185 -18 q 57 232 57 117 q 63 313 57 272 q 78 397 68 354 l 146 722 l 390 722 l 321 388 q 311 334 315 365 q 307 286 307 303 q 331 208 307 236 q 401 179 354 179 q 515 233 467 179 q 583 376 564 288 l 656 722 l 904 722 l 786 160 q 772 83 779 125 q 760 0 765 40 l 532 0 q 547 104 536 53 m 550 849 q 603 872 582 849 q 624 926 624 894 q 602 978 624 956 q 550 1000 581 1000 q 498 978 519 1000 q 476 926 476 956 q 498 872 476 894 q 550 849 519 849 m 550 782 q 446 822 490 782 q 401 926 401 863 q 445 1028 401 988 q 550 1068 489 1068 q 655 1028 611 1068 q 699 926 699 988 q 655 822 699 863 q 550 782 611 782 z "},"ű":{"ha":915,"x_min":57,"x_max":982,"o":"m 547 104 l 544 104 q 432 13 493 44 q 297 -18 371 -18 q 121 49 185 -18 q 57 232 57 117 q 63 313 57 272 q 78 397 68 354 l 146 722 l 390 722 l 321 388 q 311 334 315 365 q 307 286 307 303 q 331 208 307 236 q 401 179 354 179 q 515 233 467 179 q 583 376 564 288 l 656 722 l 904 722 l 786 160 q 772 83 779 125 q 760 0 765 40 l 532 0 q 547 104 536 53 m 982 1050 l 706 804 l 568 804 l 764 1050 l 982 1050 m 661 1050 l 413 804 l 281 804 l 442 1050 l 661 1050 z "},"ų":{"ha":915,"x_min":57,"x_max":904,"o":"m 547 104 l 544 104 q 432 12 493 44 q 297 -21 371 -21 q 121 48 185 -21 q 57 232 57 117 q 63 313 57 272 q 78 397 68 354 l 146 722 l 390 722 l 321 388 q 311 334 315 365 q 307 286 307 303 q 331 208 307 236 q 401 179 354 179 q 515 233 467 179 q 583 376 564 288 l 656 722 l 904 722 l 786 160 q 772 83 779 125 q 760 0 765 40 l 653 0 q 573 -77 606 -39 q 540 -154 540 -115 q 600 -206 540 -206 q 633 -203 615 -206 q 672 -194 650 -200 l 667 -289 q 608 -301 636 -297 q 547 -306 579 -306 q 442 -280 486 -306 q 397 -194 397 -254 q 433 -90 397 -137 q 532 0 469 -43 q 547 104 536 53 z "},"ŵ":{"ha":1306,"x_min":78,"x_max":1392,"o":"m 464 0 l 158 0 l 78 722 l 324 722 q 338 467 332 567 q 346 308 343 367 q 350 220 349 250 q 351 175 351 190 l 354 175 q 371 219 360 190 q 405 306 382 249 q 471 464 428 364 q 583 722 514 564 l 874 722 q 881 474 878 574 q 887 314 885 375 q 890 220 889 253 q 890 172 890 188 l 893 172 q 910 217 900 188 q 945 303 921 246 q 1015 463 969 361 q 1135 722 1060 564 l 1392 722 l 1008 0 l 703 0 q 696 247 699 150 q 692 400 693 343 q 690 486 690 457 q 689 531 689 515 l 688 531 q 674 494 683 518 q 642 415 665 469 q 577 260 619 360 q 464 0 535 161 m 969 804 l 840 804 l 775 936 l 658 804 l 510 804 l 721 1050 l 874 1050 l 969 804 z "},"ẃ":{"ha":1306,"x_min":78,"x_max":1392,"o":"m 464 0 l 158 0 l 78 722 l 324 722 q 338 467 332 567 q 346 308 343 367 q 350 220 349 250 q 351 175 351 190 l 354 175 q 371 219 360 190 q 405 306 382 249 q 471 464 428 364 q 583 722 514 564 l 874 722 q 881 474 878 574 q 887 314 885 375 q 890 220 889 253 q 890 172 890 188 l 893 172 q 910 217 900 188 q 945 303 921 246 q 1015 463 969 361 q 1135 722 1060 564 l 1392 722 l 1008 0 l 703 0 q 696 247 699 150 q 692 400 693 343 q 690 486 690 457 q 689 531 689 515 l 688 531 q 674 494 683 518 q 642 415 665 469 q 577 260 619 360 q 464 0 535 161 m 1043 1050 l 774 804 l 631 804 l 792 1050 l 1043 1050 z "},"ẅ":{"ha":1306,"x_min":78,"x_max":1392,"o":"m 464 0 l 158 0 l 78 722 l 324 722 q 338 467 332 567 q 346 308 343 367 q 350 220 349 250 q 351 175 351 190 l 354 175 q 371 219 360 190 q 405 306 382 249 q 471 464 428 364 q 583 722 514 564 l 874 722 q 881 474 878 574 q 887 314 885 375 q 890 220 889 253 q 890 172 890 188 l 893 172 q 910 217 900 188 q 945 303 921 246 q 1015 463 969 361 q 1135 722 1060 564 l 1392 722 l 1008 0 l 703 0 q 696 247 699 150 q 692 400 693 343 q 690 486 690 457 q 689 531 689 515 l 688 531 q 674 494 683 518 q 642 415 665 469 q 577 260 619 360 q 464 0 535 161 m 729 1014 l 690 831 l 500 831 l 540 1014 l 729 1014 m 1038 1014 l 999 831 l 808 831 l 849 1014 l 1038 1014 z "},"ẁ":{"ha":1306,"x_min":78,"x_max":1392,"o":"m 464 0 l 158 0 l 78 722 l 324 722 q 338 467 332 567 q 346 308 343 367 q 350 220 349 250 q 351 175 351 190 l 354 175 q 371 219 360 190 q 405 306 382 249 q 471 464 428 364 q 583 722 514 564 l 874 722 q 881 474 878 574 q 887 314 885 375 q 890 220 889 253 q 890 172 890 188 l 893 172 q 910 217 900 188 q 945 303 921 246 q 1015 463 969 361 q 1135 722 1060 564 l 1392 722 l 1008 0 l 703 0 q 696 247 699 150 q 692 400 693 343 q 690 486 690 457 q 689 531 689 515 l 688 531 q 674 494 683 518 q 642 415 665 469 q 577 260 619 360 q 464 0 535 161 m 665 804 l 500 1050 l 715 1050 l 786 804 l 665 804 z "},"ý":{"ha":843,"x_min":-64,"x_max":918,"o":"m 83 722 l 338 722 q 366 469 356 568 q 382 314 376 371 q 390 228 388 257 q 393 185 393 200 l 396 185 q 415 228 401 200 q 455 314 428 257 q 531 469 482 371 q 656 722 579 568 l 918 722 l 492 -42 q 392 -190 442 -131 q 274 -278 342 -249 q 101 -308 206 -308 q 15 -299 61 -308 q -64 -276 -31 -290 l -14 -104 q 29 -117 6 -111 q 79 -122 53 -122 q 169 -96 136 -122 q 225 -17 203 -69 l 83 722 m 811 1050 l 542 804 l 399 804 l 560 1050 l 811 1050 z "},"ŷ":{"ha":843,"x_min":-64,"x_max":918,"o":"m 83 722 l 338 722 q 366 469 356 568 q 382 314 376 371 q 390 228 388 257 q 393 185 393 200 l 396 185 q 415 228 401 200 q 455 314 428 257 q 531 469 482 371 q 656 722 579 568 l 918 722 l 492 -42 q 392 -190 442 -131 q 274 -278 342 -249 q 101 -308 206 -308 q 15 -299 61 -308 q -64 -276 -31 -290 l -14 -104 q 29 -117 6 -111 q 79 -122 53 -122 q 169 -96 136 -122 q 225 -17 203 -69 l 83 722 m 731 804 l 601 804 l 536 936 l 419 804 l 271 804 l 482 1050 l 635 1050 l 731 804 z "},"ÿ":{"ha":843,"x_min":-64,"x_max":918,"o":"m 83 722 l 338 722 q 366 469 356 568 q 382 314 376 371 q 390 228 388 257 q 393 185 393 200 l 396 185 q 415 228 401 200 q 455 314 428 257 q 531 469 482 371 q 656 722 579 568 l 918 722 l 492 -42 q 392 -190 442 -131 q 274 -278 342 -249 q 101 -308 206 -308 q 15 -299 61 -308 q -64 -276 -31 -290 l -14 -104 q 29 -117 6 -111 q 79 -122 53 -122 q 169 -96 136 -122 q 225 -17 203 -69 l 83 722 m 493 1014 l 454 831 l 264 831 l 304 1014 l 493 1014 m 801 1014 l 763 831 l 572 831 l 613 1014 l 801 1014 z "},"ỳ":{"ha":843,"x_min":-64,"x_max":918,"o":"m 83 722 l 338 722 q 366 469 356 568 q 382 314 376 371 q 390 228 388 257 q 393 185 393 200 l 396 185 q 415 228 401 200 q 455 314 428 257 q 531 469 482 371 q 656 722 579 568 l 918 722 l 492 -42 q 392 -190 442 -131 q 274 -278 342 -249 q 101 -308 206 -308 q 15 -299 61 -308 q -64 -276 -31 -290 l -14 -104 q 29 -117 6 -111 q 79 -122 53 -122 q 169 -96 136 -122 q 225 -17 203 -69 l 83 722 m 468 804 l 303 1050 l 518 1050 l 589 804 l 468 804 z "},"ź":{"ha":713,"x_min":-35,"x_max":753,"o":"m 742 722 l 700 526 q 438 297 544 388 q 303 183 332 206 l 303 181 l 636 181 l 599 0 l -35 0 l 6 189 q 183 349 113 285 q 298 451 254 413 q 365 511 342 490 q 399 540 388 532 l 399 543 l 89 543 l 131 722 l 742 722 m 753 1050 l 483 804 l 340 804 l 501 1050 l 753 1050 z "},"ž":{"ha":713,"x_min":-35,"x_max":742,"o":"m 742 722 l 700 526 q 438 297 544 388 q 303 183 332 206 l 303 181 l 636 181 l 599 0 l -35 0 l 6 189 q 183 349 113 285 q 298 451 254 413 q 365 511 342 490 q 399 540 388 532 l 399 543 l 89 543 l 131 722 l 742 722 m 263 1050 l 392 1050 l 457 918 l 574 1050 l 722 1050 l 511 804 l 358 804 l 263 1050 z "},"ż":{"ha":713,"x_min":-35,"x_max":742,"o":"m 742 722 l 700 526 q 438 297 544 388 q 303 183 332 206 l 303 181 l 636 181 l 599 0 l -35 0 l 6 189 q 183 349 113 285 q 298 451 254 413 q 365 511 342 490 q 399 540 388 532 l 399 543 l 89 543 l 131 722 l 742 722 m 597 1014 l 558 831 l 307 831 l 347 1014 l 597 1014 z "},"Ĳ":{"ha":983,"x_min":11,"x_max":1040,"o":"m 217 969 l 475 969 l 269 0 l 11 0 l 217 969 m 781 969 l 1040 969 l 892 271 q 834 128 875 193 q 720 23 793 63 q 533 -17 647 -17 q 449 -10 494 -17 q 360 10 404 -4 l 413 206 q 454 194 432 199 q 501 189 476 189 q 600 226 569 189 q 651 361 631 264 l 781 969 z "},"ﬁ":{"ha":986,"x_min":38,"x_max":1039,"o":"m 711 1036 l 669 872 q 637 881 653 878 q 601 883 621 883 q 524 849 554 883 q 478 740 494 814 l 474 722 l 640 722 l 603 547 l 436 547 l 321 0 l 69 0 q 78 33 74 14 q 90 84 82 51 q 109 174 97 117 q 140 322 121 231 q 186 547 158 413 l 38 547 l 76 722 l 224 722 l 235 769 q 292 918 254 854 q 395 1019 329 982 q 565 1056 461 1056 q 638 1051 603 1056 q 711 1036 672 1047 m 1039 1014 l 1000 831 l 749 831 l 789 1014 l 1039 1014 m 829 0 l 576 0 l 731 722 l 982 722 l 829 0 z "},"ﬂ":{"ha":986,"x_min":38,"x_max":1050,"o":"m 711 1036 l 669 872 q 637 881 653 878 q 601 883 621 883 q 524 849 554 883 q 478 740 494 814 l 474 722 l 640 722 l 603 547 l 436 547 l 321 0 l 69 0 q 78 33 74 14 q 90 84 82 51 q 109 174 97 117 q 140 322 121 231 q 186 547 158 413 l 38 547 l 76 722 l 224 722 l 235 769 q 292 918 254 854 q 395 1019 329 982 q 565 1056 461 1056 q 638 1051 603 1056 q 711 1036 672 1047 m 800 1050 l 1050 1050 l 828 0 l 576 0 l 800 1050 z "},"ĳ":{"ha":819,"x_min":7,"x_max":876,"o":"m 469 1014 l 431 831 l 179 831 l 219 1014 l 469 1014 m 260 0 l 7 0 l 161 722 l 413 722 l 260 0 m 876 1014 l 838 831 l 586 831 l 626 1014 l 876 1014 m 564 722 l 815 722 l 657 -32 q 603 -181 639 -119 q 504 -276 568 -243 q 332 -308 440 -308 q 272 -303 304 -308 q 215 -292 239 -297 l 257 -106 q 284 -112 269 -110 q 308 -114 299 -114 q 374 -92 350 -114 q 407 -21 397 -69 l 564 722 z "},"ﬄ":{"ha":1481,"x_min":38,"x_max":1544,"o":"m 1294 1050 l 1544 1050 l 1322 0 l 1071 0 l 1294 1050 m 1206 1036 l 1164 872 q 1131 881 1147 878 q 1096 883 1115 883 q 1019 849 1049 883 q 972 740 989 814 l 968 722 l 1135 722 l 1097 547 l 931 547 l 815 0 l 564 0 l 681 547 l 436 547 l 321 0 l 69 0 l 186 547 l 38 547 l 76 722 l 224 722 l 235 769 q 292 918 254 854 q 395 1019 329 982 q 565 1056 461 1056 q 638 1051 603 1056 q 711 1036 672 1047 l 669 872 q 637 881 653 878 q 601 883 621 883 q 524 849 554 883 q 478 740 494 814 l 474 722 l 718 722 l 729 769 q 786 918 749 854 q 890 1019 824 982 q 1060 1056 956 1056 q 1132 1051 1097 1056 q 1206 1036 1167 1047 z "},"ﬃ":{"ha":1481,"x_min":38,"x_max":1533,"o":"m 1533 1014 l 1494 831 l 1243 831 l 1283 1014 l 1533 1014 m 1324 0 l 1071 0 l 1225 722 l 1476 722 l 1324 0 m 1206 1036 l 1164 872 q 1131 881 1147 878 q 1096 883 1115 883 q 1019 849 1049 883 q 972 740 989 814 l 968 722 l 1135 722 l 1097 547 l 931 547 l 815 0 l 564 0 l 681 547 l 436 547 l 321 0 l 69 0 l 186 547 l 38 547 l 76 722 l 224 722 l 235 769 q 292 918 254 854 q 395 1019 329 982 q 565 1056 461 1056 q 638 1051 603 1056 q 711 1036 672 1047 l 669 872 q 637 881 653 878 q 601 883 621 883 q 524 849 554 883 q 478 740 494 814 l 474 722 l 718 722 l 729 769 q 786 918 749 854 q 890 1019 824 982 q 1060 1056 956 1056 q 1132 1051 1097 1056 q 1206 1036 1167 1047 z "},"ﬀ":{"ha":1064,"x_min":38,"x_max":1206,"o":"m 1206 1036 l 1164 872 q 1131 881 1147 878 q 1096 883 1115 883 q 1019 849 1049 883 q 972 740 989 814 l 968 722 l 1135 722 l 1097 547 l 931 547 l 815 0 l 564 0 l 681 547 l 436 547 l 321 0 l 69 0 l 186 547 l 38 547 l 76 722 l 224 722 l 235 769 q 292 918 254 854 q 395 1019 329 982 q 565 1056 461 1056 q 638 1051 603 1056 q 711 1036 672 1047 l 669 872 q 637 881 653 878 q 601 883 621 883 q 524 849 554 883 q 478 740 494 814 l 474 722 l 718 722 l 729 769 q 786 918 749 854 q 890 1019 824 982 q 1060 1056 956 1056 q 1132 1051 1097 1056 q 1206 1036 1167 1047 z "},"":{"ha":986,"x_min":38,"x_max":1039,"o":"m 711 1036 l 669 872 q 637 881 653 878 q 601 883 621 883 q 524 849 554 883 q 478 740 494 814 l 474 722 l 640 722 l 603 547 l 436 547 l 321 0 l 69 0 q 78 33 74 14 q 90 84 82 51 q 109 174 97 117 q 140 322 121 231 q 186 547 158 413 l 38 547 l 76 722 l 224 722 l 235 769 q 292 918 254 854 q 395 1019 329 982 q 565 1056 461 1056 q 638 1051 603 1056 q 711 1036 672 1047 m 1039 1014 l 1000 831 l 749 831 l 789 1014 l 1039 1014 m 829 0 l 576 0 l 731 722 l 982 722 l 829 0 z "},"":{"ha":986,"x_min":38,"x_max":1050,"o":"m 711 1036 l 669 872 q 637 881 653 878 q 601 883 621 883 q 524 849 554 883 q 478 740 494 814 l 474 722 l 640 722 l 603 547 l 436 547 l 321 0 l 69 0 q 78 33 74 14 q 90 84 82 51 q 109 174 97 117 q 140 322 121 231 q 186 547 158 413 l 38 547 l 76 722 l 224 722 l 235 769 q 292 918 254 854 q 395 1019 329 982 q 565 1056 461 1056 q 638 1051 603 1056 q 711 1036 672 1047 m 800 1050 l 1050 1050 l 828 0 l 576 0 l 800 1050 z "},"´":{"ha":694,"x_min":328,"x_max":740,"o":"m 740 1050 l 471 804 l 328 804 l 489 1050 l 740 1050 z "},"ˆ":{"ha":694,"x_min":207,"x_max":667,"o":"m 667 804 l 538 804 l 472 936 l 356 804 l 207 804 l 418 1050 l 571 1050 l 667 804 z "},"ˇ":{"ha":694,"x_min":260,"x_max":719,"o":"m 260 1050 l 389 1050 l 454 918 l 571 1050 l 719 1050 l 508 804 l 356 804 l 260 1050 z "},"˜":{"ha":694,"x_min":185,"x_max":711,"o":"m 279 815 l 185 815 q 245 957 201 901 q 353 1013 289 1013 q 403 1003 381 1013 q 457 975 426 994 q 512 946 492 954 q 550 938 532 938 q 591 953 576 938 q 615 1008 606 969 l 711 1008 q 654 866 694 922 q 547 810 614 810 q 490 820 517 810 q 431 850 464 831 q 383 876 403 867 q 346 885 364 885 q 308 868 326 885 q 279 815 290 851 z "},"¨":{"ha":694,"x_min":199,"x_max":736,"o":"m 428 1014 l 389 831 l 199 831 l 239 1014 l 428 1014 m 736 1014 l 697 831 l 507 831 l 547 1014 l 736 1014 z "},"¯":{"ha":694,"x_min":246,"x_max":706,"o":"m 246 874 l 268 978 l 706 978 l 683 874 l 246 874 z "},"ˉ":{"ha":694,"x_min":246,"x_max":706,"o":"m 246 874 l 268 978 l 706 978 l 683 874 l 246 874 z "},"˘":{"ha":694,"x_min":242,"x_max":731,"o":"m 607 1050 l 731 1050 q 633 881 700 947 q 443 815 567 815 q 325 842 369 815 q 261 914 281 869 q 242 1007 242 958 q 242 1029 242 1018 q 244 1050 243 1040 l 358 1050 q 356 1036 357 1043 q 356 1022 356 1029 q 380 951 356 979 q 454 924 404 924 q 554 960 517 924 q 607 1050 592 996 z "},"˚":{"ha":694,"x_min":294,"x_max":592,"o":"m 443 849 q 496 872 475 849 q 517 926 517 894 q 495 978 517 956 q 443 1000 474 1000 q 391 978 413 1000 q 369 926 369 956 q 391 872 369 894 q 443 849 413 849 m 443 782 q 339 822 383 782 q 294 926 294 863 q 338 1028 294 988 q 443 1068 382 1068 q 548 1028 504 1068 q 592 926 592 988 q 548 822 592 863 q 443 782 504 782 z "},"˝":{"ha":694,"x_min":186,"x_max":888,"o":"m 888 1050 l 611 804 l 474 804 l 669 1050 l 888 1050 m 567 1050 l 318 804 l 186 804 l 347 1050 l 567 1050 z "},"˙":{"ha":694,"x_min":319,"x_max":610,"o":"m 610 1014 l 571 831 l 319 831 l 360 1014 l 610 1014 z "},"¸":{"ha":694,"x_min":106,"x_max":417,"o":"m 303 13 l 264 -86 q 280 -85 271 -85 q 294 -85 289 -85 q 384 -110 351 -85 q 417 -182 417 -135 q 385 -262 417 -232 q 306 -306 354 -293 q 203 -319 257 -319 q 151 -317 175 -319 q 106 -310 128 -314 l 129 -237 q 201 -244 171 -244 q 240 -241 218 -244 q 279 -226 263 -237 q 296 -196 296 -215 q 274 -163 296 -171 q 219 -156 251 -156 q 191 -157 208 -156 q 156 -162 174 -158 l 210 13 l 303 13 z "},"˛":{"ha":694,"x_min":125,"x_max":417,"o":"m 306 29 l 417 29 q 313 -62 358 -17 q 268 -154 268 -108 q 328 -206 268 -206 q 360 -203 343 -206 q 400 -194 378 -200 l 394 -289 q 335 -301 364 -297 q 275 -306 307 -306 q 169 -280 214 -306 q 125 -194 125 -254 q 174 -74 125 -128 q 306 29 224 -21 z "},"…":{"ha":1389,"x_min":49,"x_max":1253,"o":"m 93 231 l 328 231 l 282 0 l 49 0 l 93 231 m 553 231 l 788 231 l 742 0 l 508 0 l 553 231 m 1018 231 l 1253 231 l 1207 0 l 974 0 l 1018 231 z "},"­":{"ha":451,"x_min":32,"x_max":444,"o":"m 69 479 l 444 479 l 408 297 l 32 297 l 69 479 z "},"¡":{"ha":500,"x_min":-3,"x_max":447,"o":"m 268 -249 l -3 -249 l 169 403 l 374 403 l 268 -249 m 403 499 l 168 499 l 214 721 l 447 721 l 403 499 z "},"¿":{"ha":735,"x_min":1,"x_max":604,"o":"m 604 -44 l 583 -233 q 467 -257 524 -249 q 357 -265 411 -265 q 95 -204 189 -265 q 1 -35 1 -143 q 15 62 1 19 q 69 149 29 104 q 183 250 108 193 q 253 310 229 285 q 286 356 276 335 q 300 400 296 378 l 303 417 l 510 417 l 507 401 q 488 324 500 360 q 446 250 476 289 q 351 158 415 211 q 269 74 289 106 q 250 11 250 43 q 292 -65 250 -40 q 406 -89 333 -89 q 506 -78 454 -89 q 604 -44 557 -67 m 535 500 l 300 500 l 346 722 l 579 722 l 535 500 z "},"‘":{"ha":444,"x_min":124,"x_max":517,"o":"m 517 1018 l 353 667 l 124 667 l 333 1018 l 517 1018 z "},"’":{"ha":444,"x_min":129,"x_max":522,"o":"m 129 667 l 293 1018 l 522 1018 l 313 667 l 129 667 z "},"“":{"ha":756,"x_min":124,"x_max":828,"o":"m 828 1018 l 664 667 l 435 667 l 644 1018 l 828 1018 m 517 1018 l 354 667 l 124 667 l 333 1018 l 517 1018 z "},"”":{"ha":756,"x_min":129,"x_max":833,"o":"m 129 667 l 293 1018 l 522 1018 l 313 667 l 129 667 m 440 667 l 603 1018 l 833 1018 l 624 667 l 440 667 z "},"‚":{"ha":444,"x_min":-46,"x_max":347,"o":"m -46 -181 l 118 171 l 347 171 l 138 -181 l -46 -181 z "},"„":{"ha":756,"x_min":-46,"x_max":658,"o":"m -46 -181 l 118 171 l 347 171 l 138 -181 l -46 -181 m 265 -181 l 428 171 l 658 171 l 449 -181 l 265 -181 z "},"‹":{"ha":447,"x_min":42,"x_max":468,"o":"m 468 647 l 261 364 l 347 82 l 149 82 l 42 364 l 258 647 l 468 647 z "},"›":{"ha":447,"x_min":-17,"x_max":410,"o":"m -17 82 l 190 365 l 104 647 l 303 647 l 410 365 l 193 82 l -17 82 z "},"«":{"ha":781,"x_min":42,"x_max":801,"o":"m 468 647 l 261 364 l 347 82 l 149 82 l 42 364 l 258 647 l 468 647 m 801 647 l 594 364 l 681 82 l 482 82 l 375 364 l 592 647 l 801 647 z "},"»":{"ha":781,"x_min":-17,"x_max":743,"o":"m -17 82 l 190 365 l 104 647 l 303 647 l 410 365 l 193 82 l -17 82 m 317 82 l 524 365 l 438 647 l 636 647 l 743 365 l 526 82 l 317 82 z "},"–":{"ha":694,"x_min":-1,"x_max":728,"o":"m 728 476 l 693 304 l -1 304 l 33 476 l 728 476 z "},"—":{"ha":1389,"x_min":164,"x_max":1256,"o":"m 1256 476 l 1219 304 l 164 304 l 200 476 l 1256 476 z "},"•":{"ha":694,"x_min":135,"x_max":617,"o":"m 379 724 q 498 691 444 724 q 584 603 551 658 q 617 483 617 549 q 584 362 617 417 q 497 274 551 307 q 376 242 443 242 q 255 274 310 242 q 167 363 200 307 q 135 485 135 418 q 167 606 135 551 q 256 692 200 660 q 379 724 311 724 z "},"·":{"ha":385,"x_min":69,"x_max":349,"o":"m 114 506 l 349 506 l 303 275 l 69 275 l 114 506 z "},"∙":{"ha":385,"x_min":69,"x_max":349,"o":"m 114 506 l 349 506 l 303 275 l 69 275 l 114 506 z "},"†":{"ha":850,"x_min":172,"x_max":818,"o":"m 460 0 l 251 0 l 374 582 l 172 582 l 208 740 l 411 740 l 458 969 l 667 969 l 621 740 l 818 740 l 783 582 l 583 582 l 460 0 z "},"‡":{"ha":850,"x_min":89,"x_max":828,"o":"m 125 351 l 328 351 l 383 619 l 182 619 l 218 778 l 421 778 l 461 969 l 669 969 l 631 778 l 828 778 l 793 619 l 593 619 l 536 351 l 735 351 l 700 193 l 503 193 l 463 0 l 254 0 l 294 193 l 89 193 l 125 351 z "},"§":{"ha":850,"x_min":0,"x_max":835,"o":"m 835 931 l 776 757 q 665 804 725 788 q 542 821 604 821 q 462 805 494 821 q 429 753 429 789 q 440 719 429 733 q 486 683 451 704 q 590 624 521 663 q 729 521 689 569 q 769 411 769 472 q 724 278 769 333 q 599 196 679 224 q 652 133 635 169 q 669 53 669 96 q 629 -75 669 -21 q 516 -158 589 -129 q 347 -187 443 -187 q 164 -170 254 -187 q 0 -118 74 -153 l 61 60 q 220 2 144 17 q 339 -12 296 -12 q 432 46 432 -12 q 396 103 432 75 q 268 183 360 131 q 188 239 226 208 q 126 310 150 269 q 101 401 101 350 q 155 531 101 479 q 279 604 208 583 q 216 676 233 640 q 199 753 199 711 q 242 881 199 829 q 362 960 285 933 q 538 988 439 988 q 688 976 610 988 q 835 931 767 965 m 483 279 q 540 323 524 299 q 556 376 556 347 q 524 440 556 408 q 397 519 493 472 q 338 488 360 513 q 317 435 317 464 q 328 392 317 411 q 376 347 340 372 q 483 279 413 321 z "},"¶":{"ha":1000,"x_min":96,"x_max":1032,"o":"m 999 806 l 929 806 l 699 -283 l 503 -283 l 733 806 l 614 806 l 382 -283 l 188 -283 l 311 301 q 205 345 254 315 q 126 424 156 375 q 96 546 96 474 q 135 729 96 650 q 241 862 174 808 q 397 942 308 915 q 585 968 485 968 l 1032 968 l 999 806 z "},"¦":{"ha":356,"x_min":115,"x_max":293,"o":"m 115 536 l 115 1092 l 293 1092 l 293 536 l 115 536 m 115 -297 l 115 258 l 293 258 l 293 -297 l 115 -297 z "},"©":{"ha":1250,"x_min":136,"x_max":1114,"o":"m 821 779 l 810 651 q 738 677 772 671 q 671 683 704 683 q 540 631 590 683 q 490 496 490 578 q 543 357 490 410 q 678 304 596 304 q 743 309 708 304 q 817 336 778 314 l 825 213 q 748 190 788 197 q 676 183 708 183 q 507 219 582 183 q 390 324 432 254 q 347 496 347 394 q 390 655 347 586 q 506 763 433 724 q 671 801 579 801 q 744 797 706 801 q 821 779 782 793 m 625 918 q 456 884 533 918 q 319 790 378 850 q 227 653 260 731 q 194 486 194 575 q 227 318 194 397 q 319 179 260 239 q 456 85 378 119 q 625 51 533 51 q 794 85 717 51 q 931 180 872 119 q 1023 319 990 240 q 1056 489 1056 399 q 1023 654 1056 576 q 931 791 990 732 q 794 884 872 850 q 625 918 717 918 m 625 974 q 815 936 726 974 q 971 832 904 899 q 1076 677 1038 765 q 1114 486 1114 589 q 1076 295 1114 385 q 971 139 1038 206 q 815 34 904 72 q 625 -4 726 -4 q 435 34 524 -4 q 279 140 346 72 q 174 297 213 207 q 136 489 136 386 q 174 678 136 590 q 279 833 213 767 q 435 936 346 899 q 625 974 524 974 z "},"®":{"ha":694,"x_min":169,"x_max":658,"o":"m 381 808 l 381 744 l 390 744 q 438 752 424 744 q 453 779 453 760 q 438 803 453 797 q 390 808 424 808 l 381 808 m 419 961 q 539 928 485 961 q 626 840 593 894 q 658 718 658 785 q 626 594 658 650 q 538 505 593 538 q 415 472 483 472 q 291 506 347 472 q 202 595 235 539 q 169 719 169 651 q 203 842 169 788 q 292 928 236 896 q 419 961 349 961 m 411 921 q 311 893 357 921 q 238 819 265 865 q 210 718 210 774 q 238 615 210 661 q 312 540 265 568 q 414 513 358 513 q 517 540 471 513 q 590 615 563 568 q 618 719 618 663 q 590 821 618 775 q 515 894 563 867 q 411 921 468 921 m 308 578 l 308 868 l 404 868 q 492 851 456 868 q 528 783 528 835 q 515 740 528 758 q 474 717 501 721 l 474 714 q 493 702 486 710 q 504 685 500 694 l 553 578 l 469 578 l 432 667 q 419 685 426 679 q 389 690 411 690 l 381 690 l 381 578 l 308 578 z "},"™":{"ha":1381,"x_min":190,"x_max":1265,"o":"m 332 461 l 332 842 l 190 842 l 190 947 l 606 947 l 606 842 l 465 842 l 465 461 l 332 461 m 672 461 l 672 947 l 881 947 l 972 622 l 1074 947 l 1265 947 l 1265 461 l 1143 461 l 1143 844 l 1021 461 l 911 461 l 792 844 l 792 461 l 672 461 z "},"¤":{"ha":850,"x_min":92,"x_max":824,"o":"m 458 356 q 551 393 515 356 q 588 485 588 431 q 551 576 588 539 q 458 614 515 614 q 366 576 403 614 q 329 485 329 539 q 366 393 329 431 q 458 356 403 356 m 92 254 l 189 351 q 160 485 160 410 q 167 553 160 521 q 189 617 175 586 l 92 715 l 228 851 l 325 753 q 389 776 356 768 q 458 783 422 783 q 528 776 494 783 q 590 754 561 768 l 688 851 l 824 715 l 726 618 q 757 485 757 554 q 726 350 757 414 l 824 254 l 688 119 l 590 215 q 528 194 561 201 q 458 186 494 186 q 388 194 422 186 q 325 215 354 201 l 228 119 l 92 254 z "},"€":{"ha":850,"x_min":49,"x_max":915,"o":"m 131 658 l 206 658 q 399 894 265 806 q 728 982 532 982 q 831 976 781 982 q 915 961 882 971 l 849 775 q 783 791 819 786 q 717 796 746 796 q 558 759 622 796 q 460 658 493 722 l 794 658 l 749 533 l 419 533 q 411 451 411 494 l 724 451 l 678 326 l 422 326 q 504 218 446 250 q 640 186 563 186 q 699 189 667 186 q 761 199 732 192 l 726 3 q 585 -10 664 -10 q 303 81 403 -10 q 176 326 203 171 l 49 326 l 86 451 l 168 451 q 170 493 168 472 q 175 533 172 514 l 93 533 l 131 658 z "},"¢":{"ha":850,"x_min":135,"x_max":792,"o":"m 792 700 l 738 521 q 643 547 689 543 l 525 172 l 551 172 q 617 177 585 172 q 689 196 650 182 l 656 10 q 575 -6 613 -1 q 496 -11 538 -11 q 481 -11 489 -11 q 467 -10 474 -11 l 414 -176 l 339 -176 l 394 -1 q 203 103 272 22 q 135 313 135 183 q 190 534 135 439 q 345 682 244 629 q 582 735 446 735 q 605 735 593 735 q 628 733 617 735 l 682 904 l 757 904 l 700 726 q 747 716 724 722 q 792 700 769 710 m 390 326 q 456 193 390 229 l 568 546 q 437 473 483 533 q 390 326 390 413 z "},"£":{"ha":850,"x_min":26,"x_max":914,"o":"m 135 574 l 254 574 l 265 626 q 413 897 303 806 q 694 989 522 989 q 799 982 747 989 q 914 957 850 975 l 858 775 q 786 792 815 788 q 724 797 757 797 q 588 747 644 797 q 510 599 532 697 l 504 574 l 715 574 l 689 447 l 479 447 l 424 178 l 771 178 l 732 0 l 26 0 l 64 178 l 168 178 l 225 447 l 106 447 l 135 574 z "},"ƒ":{"ha":850,"x_min":-8,"x_max":843,"o":"m 732 447 l 572 447 l 475 -3 q 359 -236 440 -167 q 136 -306 278 -306 q -8 -287 64 -306 l 35 -119 q 64 -128 49 -125 q 96 -132 79 -132 q 180 -89 158 -132 q 218 32 201 -46 l 307 447 l 164 447 l 194 574 l 335 574 l 360 689 q 477 922 396 853 q 699 992 558 992 q 843 974 771 992 l 800 806 q 771 815 786 811 q 739 818 756 818 q 655 775 676 818 q 617 654 633 732 l 599 574 l 763 574 l 732 447 z "},"¥":{"ha":850,"x_min":53,"x_max":978,"o":"m 385 969 l 424 772 q 438 697 431 742 q 451 609 444 651 q 461 543 458 567 l 464 543 q 504 611 479 568 q 556 699 529 654 q 601 772 582 743 l 728 969 l 978 969 l 683 561 l 826 561 l 799 432 l 592 432 l 558 388 l 549 350 l 781 350 l 754 221 l 522 221 l 475 0 l 228 0 l 275 221 l 53 221 l 79 350 l 301 350 l 311 388 l 294 432 l 97 432 l 125 561 l 267 561 l 142 969 l 385 969 z "},"ª":{"ha":642,"x_min":85,"x_max":658,"o":"m 471 664 q 449 667 461 667 q 425 667 436 667 q 264 586 264 667 q 282 544 264 560 q 331 528 300 528 q 424 565 386 528 q 471 664 463 601 m 454 501 l 451 501 q 260 413 388 413 q 133 455 181 413 q 85 569 85 497 q 169 715 85 667 q 404 764 253 764 q 442 763 424 764 q 485 760 460 763 q 488 778 488 768 q 375 861 488 861 q 284 851 333 861 q 199 821 235 840 l 214 950 q 320 976 271 969 q 421 982 369 982 q 597 938 535 982 q 658 806 658 893 q 652 744 658 783 q 637 662 646 706 q 620 579 628 618 q 608 517 613 540 q 602 472 606 499 q 599 422 599 446 l 446 422 q 448 463 446 446 q 454 501 450 479 z "},"º":{"ha":675,"x_min":115,"x_max":717,"o":"m 456 988 q 646 917 575 988 q 717 733 717 846 q 674 563 717 635 q 557 453 632 492 q 382 414 482 414 q 185 479 256 414 q 115 660 115 544 q 158 831 115 757 q 276 946 200 904 q 456 988 353 988 m 440 857 q 371 831 403 857 q 319 760 339 804 q 300 664 300 717 q 326 576 300 608 q 396 543 351 543 q 495 599 457 543 q 533 742 533 656 q 509 826 533 794 q 440 857 485 857 z "},"⁄":{"ha":249,"x_min":-286,"x_max":617,"o":"m -286 -31 l 461 1021 l 617 1021 l -129 -31 l -286 -31 z "},"∕":{"ha":249,"x_min":-286,"x_max":617,"o":"m -286 -31 l 461 1021 l 617 1021 l -129 -31 l -286 -31 z "},"¼":{"ha":1304,"x_min":143,"x_max":1261,"o":"m 397 390 l 226 390 l 281 636 q 295 697 286 661 q 313 765 304 732 q 326 814 322 799 l 325 814 q 284 783 315 804 q 204 728 253 761 l 143 847 l 369 972 l 522 972 l 397 390 m 242 -31 l 989 1021 l 1144 1021 l 399 -31 l 242 -31 m 1133 0 l 968 0 l 994 111 l 756 111 l 788 251 l 1075 582 l 1258 582 l 1181 224 l 1261 224 l 1235 111 l 1157 111 l 1133 0 m 1022 224 l 1038 285 q 1058 364 1044 317 q 1082 450 1071 411 l 1079 450 q 1057 416 1074 438 q 1019 367 1040 394 l 904 224 l 1022 224 z "},"½":{"ha":1304,"x_min":143,"x_max":1257,"o":"m 397 390 l 226 390 l 281 636 q 295 697 286 661 q 313 765 304 732 q 326 814 322 799 l 325 814 q 284 783 315 804 q 204 728 253 761 l 143 847 l 369 972 l 522 972 l 397 390 m 242 -31 l 989 1021 l 1144 1021 l 399 -31 l 242 -31 m 1183 0 l 747 0 l 767 103 q 964 235 892 182 q 1066 326 1036 288 q 1096 404 1096 365 q 1072 459 1096 443 q 1013 475 1049 475 q 941 464 982 475 q 865 431 900 453 l 876 558 q 963 585 914 576 q 1053 593 1013 593 q 1151 576 1104 593 q 1227 521 1197 558 q 1257 422 1257 483 q 1201 273 1257 336 q 1047 144 1146 210 q 1022 128 1036 136 q 993 114 1007 121 l 993 113 q 1049 114 1022 114 q 1113 114 1076 114 q 1207 114 1150 114 l 1183 0 z "},"¾":{"ha":1304,"x_min":58,"x_max":1261,"o":"m 522 565 q 453 431 522 481 q 263 381 385 381 q 156 390 208 381 q 58 419 104 400 l 90 543 q 165 516 124 525 q 246 507 207 507 q 330 525 299 507 q 361 576 361 543 q 330 619 361 606 q 250 633 299 633 q 230 633 242 633 q 206 631 218 632 l 228 744 q 256 743 243 743 q 278 743 268 743 q 383 756 351 743 q 415 801 415 768 q 306 864 415 864 q 172 843 238 864 l 189 967 q 269 980 226 976 q 347 983 313 983 q 510 947 450 983 q 571 832 571 910 q 551 751 571 781 q 498 706 531 721 q 426 685 465 692 l 426 682 q 501 638 479 664 q 522 565 522 611 m 242 -31 l 989 1021 l 1144 1021 l 399 -31 l 242 -31 m 1133 0 l 968 0 l 994 111 l 756 111 l 788 251 l 1075 582 l 1258 582 l 1181 224 l 1261 224 l 1235 111 l 1157 111 l 1133 0 m 1022 224 l 1038 285 q 1058 364 1044 317 q 1082 450 1071 411 l 1079 450 q 1057 416 1074 438 q 1019 367 1040 394 l 904 224 l 1022 224 z "},"‰":{"ha":1868,"x_min":118,"x_max":1806,"o":"m 1006 1031 l 1157 1031 l 374 -31 l 222 -31 l 1006 1031 m 1018 517 q 1177 458 1122 517 q 1232 310 1232 400 q 1215 193 1232 251 q 1164 87 1199 135 q 1076 10 1129 39 q 950 -18 1022 -18 q 788 36 843 -18 q 732 186 732 90 q 767 347 732 272 q 867 469 803 422 q 1018 517 932 517 m 1010 388 q 952 356 978 388 q 912 278 926 325 q 897 181 897 231 q 911 131 897 150 q 956 113 925 113 q 1013 141 988 113 q 1053 215 1039 169 q 1068 314 1068 261 q 1055 367 1068 346 q 1010 388 1042 388 m 404 988 q 563 929 508 988 q 618 781 618 871 q 601 664 618 722 q 550 558 585 606 q 462 481 515 510 q 336 453 408 453 q 174 507 229 453 q 118 657 118 561 q 153 818 118 743 q 253 940 189 893 q 404 988 318 988 m 396 858 q 338 827 364 858 q 298 749 313 796 q 283 651 283 701 q 297 602 283 621 q 342 583 311 583 q 399 612 374 583 q 440 686 425 640 q 454 785 454 732 q 441 838 454 817 q 396 858 428 858 m 1592 517 q 1751 458 1696 517 q 1806 310 1806 400 q 1789 193 1806 251 q 1738 87 1772 135 q 1649 10 1703 39 q 1524 -18 1596 -18 q 1361 36 1417 -18 q 1306 186 1306 90 q 1341 347 1306 272 q 1441 469 1376 422 q 1592 517 1506 517 m 1583 388 q 1526 356 1551 388 q 1485 278 1500 325 q 1471 181 1471 231 q 1485 131 1471 150 q 1529 113 1499 113 q 1587 141 1561 113 q 1627 215 1613 169 q 1642 314 1642 261 q 1628 367 1642 346 q 1583 388 1615 388 z "},"−":{"ha":850,"x_min":69,"x_max":819,"o":"m 819 288 l 69 288 l 69 463 l 819 463 l 819 288 z "},"±":{"ha":850,"x_min":83,"x_max":833,"o":"m 369 193 l 369 408 l 83 408 l 83 583 l 369 583 l 369 811 l 547 811 l 547 583 l 833 583 l 833 408 l 547 408 l 547 193 l 369 193 m 83 -46 l 83 129 l 833 129 l 833 -46 l 83 -46 z "},"×":{"ha":850,"x_min":88,"x_max":819,"o":"m 88 144 l 318 375 l 88 606 l 224 742 l 454 511 l 683 742 l 819 606 l 590 375 l 819 144 l 683 10 l 454 239 l 224 10 l 88 144 z "},"÷":{"ha":850,"x_min":69,"x_max":819,"o":"m 69 288 l 69 463 l 819 463 l 819 288 l 69 288 m 342 14 l 342 204 l 547 204 l 547 14 l 342 14 m 342 547 l 342 738 l 547 738 l 547 547 l 342 547 z "},"≠":{"ha":850,"x_min":82,"x_max":832,"o":"m 82 454 l 82 629 l 472 629 l 574 849 l 774 849 l 672 629 l 832 629 l 832 454 l 593 454 l 521 296 l 832 296 l 832 121 l 440 121 l 340 -99 l 140 -99 l 240 121 l 82 121 l 82 296 l 321 296 l 393 454 l 82 454 z "},"≈":{"ha":850,"x_min":96,"x_max":815,"o":"m 815 681 l 815 479 q 733 415 783 440 q 628 389 683 389 q 524 408 569 389 q 440 450 479 426 q 359 492 400 474 q 268 511 318 511 q 167 478 211 511 q 96 401 124 444 l 96 603 q 178 668 128 643 q 283 693 228 693 q 387 674 342 693 q 472 632 432 656 q 552 590 511 608 q 643 571 593 571 q 744 604 700 571 q 815 681 788 638 m 815 325 l 815 124 q 733 59 783 85 q 628 33 683 33 q 524 52 569 33 q 440 94 479 71 q 359 137 400 118 q 268 156 318 156 q 167 122 211 156 q 96 46 124 89 l 96 247 q 178 313 128 288 q 283 338 228 338 q 387 319 342 338 q 472 276 432 300 q 552 234 511 253 q 643 215 593 215 q 744 249 700 215 q 815 325 788 282 z "},"≤":{"ha":850,"x_min":78,"x_max":828,"o":"m 828 618 l 535 558 q 468 545 508 553 q 382 528 428 538 q 296 513 336 519 q 229 503 256 506 l 229 500 q 296 489 256 496 q 382 473 336 482 q 468 456 428 464 q 535 440 508 447 l 828 369 l 828 181 l 78 385 l 78 618 l 828 808 l 828 618 m 78 122 l 828 122 l 828 -53 l 78 -53 l 78 122 z "},"≥":{"ha":850,"x_min":81,"x_max":831,"o":"m 374 558 l 81 618 l 81 808 l 831 618 l 831 385 l 81 181 l 81 369 l 374 440 q 440 456 400 447 q 526 473 481 464 q 613 489 572 482 q 679 500 653 496 l 679 503 q 613 513 653 506 q 526 528 572 519 q 440 545 481 538 q 374 558 400 553 m 81 122 l 831 122 l 831 -53 l 81 -53 l 81 122 z "},"¬":{"ha":850,"x_min":81,"x_max":817,"o":"m 81 454 l 81 629 l 817 629 l 817 107 l 639 107 l 639 454 l 81 454 z "},"∆":{"ha":1008,"x_min":-40,"x_max":949,"o":"m -3 200 l 486 969 l 792 969 l 949 197 l 910 0 l -40 0 l -3 200 m 471 533 l 265 190 l 683 190 l 631 531 q 620 608 626 561 q 610 699 614 654 q 604 769 606 744 l 601 769 q 565 699 589 744 q 515 608 540 654 q 471 533 489 563 z "},"Ω":{"ha":1089,"x_min":-21,"x_max":1074,"o":"m 968 0 l 529 0 l 568 200 q 742 398 675 297 q 810 621 810 499 q 763 751 810 700 q 622 803 717 803 q 508 776 556 803 q 433 706 461 750 q 391 610 404 663 q 378 504 378 557 q 392 360 378 431 q 451 200 407 290 l 406 0 l -21 0 l 25 200 l 65 200 q 151 199 114 200 q 229 194 188 199 l 233 197 q 187 270 215 221 q 137 386 158 319 q 115 528 115 453 q 182 766 115 663 q 369 928 249 869 q 654 988 490 988 q 872 943 778 988 q 1020 818 967 899 q 1074 628 1074 738 q 1001 390 1074 493 q 813 197 928 286 l 811 194 q 888 199 856 199 q 976 200 921 200 l 1014 200 l 968 0 z "},"µ":{"ha":936,"x_min":-61,"x_max":908,"o":"m 849 199 l 818 -1 q 778 -6 804 -4 q 738 -8 753 -8 q 628 11 665 -8 q 578 64 592 31 q 558 139 564 97 l 556 139 q 495 67 529 103 q 416 7 461 31 q 313 -17 371 -17 q 267 -11 290 -17 q 231 6 243 -6 l 226 3 q 210 -103 221 -35 q 186 -240 200 -171 l 176 -292 l -61 -292 l 154 722 l 399 722 l 315 326 q 310 259 308 293 q 330 201 311 225 q 393 178 349 178 q 499 224 456 178 q 571 344 542 269 q 618 506 600 419 l 664 722 l 908 722 l 807 238 q 807 210 804 224 q 829 197 810 197 q 838 197 833 197 q 849 199 843 197 z "},"°":{"ha":544,"x_min":126,"x_max":597,"o":"m 365 992 q 484 959 432 992 q 567 873 536 926 q 597 756 597 819 q 567 637 597 690 q 483 551 536 583 q 363 519 431 519 q 241 551 294 519 q 157 638 188 583 q 126 757 126 692 q 158 876 126 822 q 243 960 189 929 q 365 992 297 992 m 361 844 q 300 818 324 844 q 276 756 276 792 q 300 693 276 719 q 361 667 324 667 q 424 693 400 667 q 447 756 447 719 q 424 818 447 792 q 361 844 400 844 z "},"ℓ":{"ha":693,"x_min":-4,"x_max":728,"o":"m 121 506 q 196 758 151 649 q 315 929 240 867 q 508 992 389 992 q 640 961 592 992 q 708 881 688 931 q 728 778 728 832 q 676 558 728 657 q 535 383 625 460 q 332 251 446 307 q 367 194 342 211 q 438 176 393 176 q 498 183 467 176 q 556 197 529 189 l 528 14 q 441 -2 488 4 q 347 -8 394 -8 q 176 34 238 -8 q 97 165 115 76 q 47 153 72 160 q -4 142 21 147 l 33 321 q 64 328 49 324 q 93 336 79 332 q 103 416 96 374 q 121 506 111 458 m 358 519 l 344 454 q 463 590 419 511 q 507 775 507 669 q 478 818 507 818 q 415 743 439 818 q 358 519 390 668 z "},"℮":{"ha":1185,"x_min":85,"x_max":1167,"o":"m 969 189 l 1064 189 q 954 88 1017 135 q 807 13 892 42 q 606 -17 722 -17 q 409 17 503 -17 q 242 114 315 50 q 127 269 169 178 q 85 478 85 361 q 129 682 85 589 q 251 843 174 775 q 428 949 328 911 q 639 986 528 986 q 871 942 772 986 q 1035 826 969 899 q 1134 665 1101 754 q 1167 486 1167 576 l 1167 481 l 315 481 l 304 467 l 304 147 q 450 60 371 88 q 614 33 529 33 q 822 78 735 33 q 969 189 910 122 m 938 531 l 949 543 l 949 828 q 797 916 876 896 q 639 936 717 936 q 472 913 561 936 q 304 815 382 889 l 304 543 l 315 531 l 938 531 z "},"∞":{"ha":1306,"x_min":76,"x_max":1271,"o":"m 764 375 q 833 258 793 303 q 939 214 872 214 q 1031 258 1001 214 q 1061 361 1061 301 q 1030 464 1061 422 q 929 506 999 506 q 764 375 824 506 m 646 186 q 528 43 590 88 q 367 -1 465 -1 q 205 44 269 -1 q 108 171 140 90 q 76 356 76 251 q 115 548 76 465 q 227 677 154 631 q 400 724 300 724 q 572 683 497 724 q 701 536 646 642 q 819 679 757 635 q 979 724 882 724 q 1142 678 1078 724 q 1239 551 1207 632 q 1271 367 1271 471 q 1232 174 1271 257 q 1121 45 1193 92 q 947 -1 1049 -1 q 776 40 850 -1 q 646 186 701 81 m 583 347 q 515 465 554 421 q 408 508 475 508 q 316 465 346 508 q 286 361 286 421 q 318 259 286 301 q 418 217 350 217 q 583 347 524 217 z "},"∂":{"ha":926,"x_min":56,"x_max":904,"o":"m 639 621 q 566 783 619 717 q 444 895 513 849 q 311 979 376 942 l 469 1081 q 626 990 549 1047 q 767 855 704 933 q 867 679 829 776 q 904 467 904 582 q 845 209 904 318 q 681 41 786 100 q 438 -18 576 -18 q 235 22 321 -18 q 103 135 150 61 q 56 307 56 208 q 101 508 56 422 q 227 643 147 594 q 411 692 307 692 q 532 675 474 692 q 636 619 590 658 l 639 621 m 504 535 q 406 504 449 535 q 338 421 363 474 q 313 300 313 368 q 348 191 313 229 q 450 153 383 153 q 548 185 506 153 q 615 275 590 218 q 639 404 639 332 q 603 500 639 465 q 504 535 567 535 z "},"∫":{"ha":544,"x_min":4,"x_max":604,"o":"m 422 761 l 422 -29 q 353 -238 422 -171 q 133 -306 283 -306 q 71 -302 99 -306 q 4 -290 43 -299 l 18 -124 q 53 -132 40 -129 q 81 -135 65 -135 q 152 -105 126 -135 q 178 -15 178 -75 l 178 775 q 249 984 178 917 q 471 1051 319 1051 q 536 1048 507 1051 q 604 1036 565 1044 l 590 869 q 524 881 551 881 q 449 851 476 881 q 422 761 422 821 z "},"√":{"ha":906,"x_min":60,"x_max":958,"o":"m 375 386 l 463 96 q 476 47 467 79 q 495 -24 485 14 q 514 -95 506 -61 q 526 -150 522 -129 l 529 -150 q 542 -70 533 -119 q 559 28 550 -21 q 572 103 568 76 l 753 1064 l 958 1064 l 675 -294 l 382 -294 l 224 211 l 60 211 l 60 386 l 375 386 z "},"∑":{"ha":996,"x_min":65,"x_max":958,"o":"m 733 414 l 511 131 q 442 45 479 90 q 369 -40 404 0 q 311 -104 335 -79 l 313 -106 q 390 -103 340 -104 q 494 -100 439 -101 q 599 -99 550 -99 l 958 -99 l 958 -294 l 65 -294 l 65 -101 l 468 393 l 88 883 l 88 1064 l 939 1064 l 939 882 l 636 882 q 547 883 600 882 q 442 886 493 885 q 364 888 392 888 l 363 886 q 444 800 399 850 q 531 696 490 750 l 733 414 z "},"∏":{"ha":1072,"x_min":114,"x_max":1028,"o":"m 1028 1064 l 1028 -292 l 779 -292 l 779 882 l 363 882 l 363 -292 l 114 -292 l 114 1064 l 1028 1064 z "},"◊":{"ha":749,"x_min":44,"x_max":761,"o":"m 263 0 l 44 485 l 263 969 l 543 969 l 761 485 l 543 0 l 263 0 m 333 642 l 261 485 l 332 331 q 355 276 342 310 q 381 210 368 243 q 401 158 394 178 l 404 158 q 424 210 411 178 q 449 276 436 243 q 472 331 463 310 l 542 482 l 469 642 q 449 696 461 663 q 425 763 436 729 q 408 815 414 796 l 406 815 q 385 762 399 796 q 358 694 372 728 q 333 642 344 661 z "},"":{"ha":711,"x_min":0,"x_max":711,"o":"m 386 163 l 308 163 l 308 256 l 386 256 l 386 163 m 376 325 l 313 325 l 310 349 q 328 461 310 426 q 353 500 338 479 q 392 543 369 521 q 449 609 436 586 q 461 658 461 632 q 430 742 461 708 q 356 776 399 776 q 281 746 313 776 q 242 644 250 715 l 172 656 q 233 800 182 754 q 360 846 285 846 q 483 796 433 846 q 532 664 532 746 q 515 583 532 619 q 444 497 497 546 q 385 425 393 451 q 376 325 376 399 m 69 69 l 642 69 l 642 926 l 69 926 l 69 69 m 0 997 l 711 997 l 711 0 l 0 0 l 0 997 z "},"Ω":{"ha":1089,"x_min":-21,"x_max":1074,"o":"m 968 0 l 529 0 l 568 200 q 742 398 675 297 q 810 621 810 499 q 763 751 810 700 q 622 803 717 803 q 508 776 556 803 q 433 706 461 750 q 391 610 404 663 q 378 504 378 557 q 392 360 378 431 q 451 200 407 290 l 406 0 l -21 0 l 25 200 l 65 200 q 151 199 114 200 q 229 194 188 199 l 233 197 q 187 270 215 221 q 137 386 158 319 q 115 528 115 453 q 182 766 115 663 q 369 928 249 869 q 654 988 490 988 q 872 943 778 988 q 1020 818 967 899 q 1074 628 1074 738 q 1001 390 1074 493 q 813 197 928 286 l 811 194 q 888 199 856 199 q 976 200 921 200 l 1014 200 l 968 0 z "},"μ":{"ha":936,"x_min":-61,"x_max":908,"o":"m 849 199 l 818 -1 q 778 -6 804 -4 q 738 -8 753 -8 q 628 11 665 -8 q 578 64 592 31 q 558 139 564 97 l 556 139 q 495 67 529 103 q 416 7 461 31 q 313 -17 371 -17 q 267 -11 290 -17 q 231 6 243 -6 l 226 3 q 210 -103 221 -35 q 186 -240 200 -171 l 176 -292 l -61 -292 l 154 722 l 399 722 l 315 326 q 310 259 308 293 q 330 201 311 225 q 393 178 349 178 q 499 224 456 178 q 571 344 542 269 q 618 506 600 419 l 664 722 l 908 722 l 807 238 q 807 210 804 224 q 829 197 810 197 q 838 197 833 197 q 849 199 843 197 z "},"π":{"ha":1026,"x_min":33,"x_max":1036,"o":"m 933 167 l 899 0 q 842 -6 875 -4 q 786 -8 808 -8 q 673 6 725 -8 q 590 58 621 21 q 558 161 558 94 q 562 207 558 182 q 571 253 565 232 l 639 540 l 460 540 l 299 0 l 33 0 l 244 540 l 74 540 l 117 722 l 1036 722 l 993 540 l 863 540 l 806 288 q 800 255 801 269 q 799 228 799 240 q 820 177 799 192 q 876 163 842 163 q 906 164 888 163 q 933 167 924 165 z "},"Δ":{"ha":1008,"x_min":-40,"x_max":949,"o":"m -3 200 l 486 969 l 792 969 l 949 197 l 910 0 l -40 0 l -3 200 m 471 533 l 265 190 l 683 190 l 631 531 q 620 608 626 561 q 610 699 614 654 q 604 769 606 744 l 601 769 q 565 699 589 744 q 515 608 540 654 q 471 533 489 563 z "},"₀":{"ha":528,"x_min":-28,"x_max":457,"o":"m 457 169 q 444 42 457 111 q 400 -88 431 -26 q 316 -190 369 -150 q 181 -231 263 -231 q 27 -173 82 -231 q -28 -10 -28 -115 q -12 117 -28 50 q 35 244 3 185 q 120 342 68 304 q 246 379 172 379 q 399 324 340 379 q 457 169 457 269 m 299 193 q 288 253 299 233 q 250 272 278 272 q 199 242 222 272 q 160 163 176 211 q 136 60 144 115 q 128 -43 128 6 q 176 -124 128 -124 q 222 -97 203 -124 q 256 -28 242 -69 q 281 59 271 14 q 294 141 290 104 q 299 193 299 178 z "},"₁":{"ha":528,"x_min":19,"x_max":399,"o":"m 274 -215 l 103 -215 l 157 31 q 172 91 163 56 q 190 160 181 126 q 203 208 199 193 l 201 208 q 160 177 192 199 q 81 122 129 156 l 19 242 l 246 367 l 399 367 l 274 -215 z "},"₂":{"ha":528,"x_min":-68,"x_max":442,"o":"m 368 -215 l -68 -215 l -49 -112 q 148 19 76 -33 q 250 111 219 72 q 281 189 281 150 q 257 244 281 228 q 197 260 233 260 q 126 249 167 260 q 50 215 85 238 l 61 343 q 148 369 99 361 q 238 378 197 378 q 335 360 289 378 q 412 306 382 343 q 442 207 442 268 q 386 58 442 121 q 232 -71 331 -6 q 206 -87 221 -79 q 178 -101 192 -94 l 178 -103 q 234 -101 207 -101 q 298 -101 261 -101 q 392 -101 335 -101 l 368 -215 z "},"₃":{"ha":528,"x_min":-65,"x_max":447,"o":"m 399 -40 q 330 -175 399 -125 q 139 -225 261 -225 q 33 -215 85 -225 q -65 -186 -19 -206 l -33 -62 q 42 -90 0 -81 q 122 -99 83 -99 q 206 -81 175 -99 q 238 -29 238 -62 q 206 14 238 0 q 126 28 175 28 q 106 27 118 28 q 82 25 94 26 l 104 139 q 132 138 119 138 q 154 138 144 138 q 260 150 228 138 q 292 196 292 163 q 182 258 292 258 q 49 238 114 258 l 65 361 q 146 374 103 371 q 224 378 189 378 q 387 341 326 378 q 447 226 447 304 q 427 145 447 175 q 374 101 407 115 q 303 79 342 86 l 303 76 q 377 32 356 58 q 399 -40 399 6 z "},"₄":{"ha":528,"x_min":-60,"x_max":446,"o":"m 318 -215 l 153 -215 l 179 -104 l -60 -104 l -28 36 l 260 367 l 443 367 l 365 8 l 446 8 l 419 -104 l 342 -104 l 318 -215 m 207 8 l 222 69 q 242 149 229 101 q 267 235 256 196 l 264 235 q 242 201 258 222 q 204 151 225 179 l 89 8 l 207 8 z "},"₅":{"ha":528,"x_min":-40,"x_max":469,"o":"m 413 3 q 372 -124 413 -74 q 267 -200 332 -175 q 129 -225 203 -225 q 41 -217 90 -225 q -40 -194 -8 -208 l -15 -72 q 54 -94 19 -87 q 125 -100 89 -100 q 183 -92 156 -100 q 230 -64 211 -85 q 249 -7 249 -43 q 213 52 249 32 q 121 72 178 72 q 67 69 93 72 q 13 57 40 67 l 74 367 l 469 367 l 451 253 l 197 253 l 181 169 l 206 169 q 352 126 292 169 q 413 3 413 83 z "},"₆":{"ha":528,"x_min":-22,"x_max":446,"o":"m 415 3 q 383 -121 415 -69 q 301 -200 351 -172 q 190 -228 250 -228 q 63 -197 110 -228 q -3 -115 17 -165 q -22 -12 -22 -65 q -3 123 -22 54 q 56 249 17 192 q 153 341 94 306 q 289 376 211 376 q 372 369 331 376 q 446 347 413 363 l 408 236 q 358 258 385 251 q 310 264 331 264 q 197 223 238 264 q 144 119 157 182 l 147 119 q 194 153 167 140 q 256 165 222 165 q 370 121 325 165 q 415 3 415 76 m 268 -12 q 252 39 268 18 q 207 60 236 60 q 143 28 167 60 q 119 -43 119 -3 q 135 -96 119 -72 q 185 -119 150 -119 q 247 -88 225 -119 q 268 -12 268 -57 z "},"₇":{"ha":528,"x_min":-35,"x_max":486,"o":"m 154 -215 l -35 -215 l 293 247 l 22 247 l 47 367 l 486 367 l 458 231 l 154 -215 z "},"₈":{"ha":528,"x_min":-40,"x_max":444,"o":"m 414 -46 q 381 -152 414 -112 q 293 -209 347 -192 q 178 -226 239 -226 q 71 -209 121 -226 q -10 -158 21 -192 q -40 -72 -40 -124 q -4 32 -40 -6 q 93 89 32 69 q 32 147 50 115 q 14 211 14 178 q 73 331 14 283 q 238 379 132 379 q 339 365 292 379 q 415 319 386 350 q 444 238 444 288 q 420 144 444 185 q 322 75 396 104 q 387 28 360 57 q 414 -46 414 -1 m 261 -44 q 247 -3 261 -21 q 197 29 232 15 q 128 -6 149 17 q 108 -56 108 -28 q 128 -101 108 -83 q 179 -118 149 -118 q 240 -97 219 -118 q 261 -44 261 -76 m 299 219 q 281 263 299 247 q 235 279 263 279 q 179 260 201 279 q 157 210 157 240 q 173 167 157 188 q 217 132 189 146 q 277 167 256 144 q 299 219 299 189 z "},"₉":{"ha":528,"x_min":-32,"x_max":436,"o":"m -1 147 q 31 271 -1 219 q 113 350 63 322 q 224 378 164 378 q 351 347 306 378 q 417 266 397 315 q 436 163 436 217 q 417 27 436 96 q 358 -99 397 -42 q 261 -191 319 -156 q 125 -226 203 -226 q 42 -219 83 -226 q -32 -197 1 -212 l 6 -86 q 56 -107 29 -100 q 104 -114 83 -114 q 217 -74 176 -114 q 269 33 257 -33 l 267 33 q 158 -12 225 -12 q 44 31 90 -12 q -1 147 -1 74 m 146 163 q 163 113 146 132 q 210 93 181 93 q 271 126 250 93 q 292 199 292 158 q 278 249 292 228 q 229 269 264 269 q 168 238 190 269 q 146 163 146 207 z "},"⁰":{"ha":528,"x_min":131,"x_max":615,"o":"m 615 979 q 602 852 615 921 q 558 722 589 783 q 474 619 528 660 q 339 579 421 579 q 185 637 240 579 q 131 800 131 694 q 146 927 131 860 q 194 1054 161 994 q 278 1151 226 1114 q 404 1189 331 1189 q 557 1134 499 1189 q 615 979 615 1079 m 457 1003 q 447 1063 457 1043 q 408 1082 436 1082 q 358 1051 381 1082 q 319 973 335 1021 q 294 870 303 925 q 286 767 286 815 q 335 686 286 686 q 381 713 361 686 q 415 782 400 740 q 439 869 429 824 q 453 951 449 914 q 457 1003 457 988 z "},"¹":{"ha":528,"x_min":178,"x_max":557,"o":"m 432 594 l 261 594 l 315 840 q 330 901 321 865 q 348 969 339 936 q 361 1018 357 1003 l 360 1018 q 319 987 350 1008 q 239 932 288 965 l 178 1051 l 404 1176 l 557 1176 l 432 594 z "},"²":{"ha":528,"x_min":90,"x_max":600,"o":"m 526 594 l 90 594 l 110 697 q 307 829 235 776 q 409 921 379 882 q 439 999 439 960 q 415 1053 439 1038 q 356 1069 392 1069 q 284 1058 325 1069 q 208 1025 243 1047 l 219 1153 q 306 1179 257 1171 q 396 1188 356 1188 q 494 1170 447 1188 q 570 1115 540 1153 q 600 1017 600 1078 q 544 867 600 931 q 390 739 489 804 q 365 723 379 731 q 336 708 350 715 l 336 707 q 392 708 365 708 q 456 708 419 708 q 550 708 493 708 l 526 594 z "},"³":{"ha":528,"x_min":93,"x_max":606,"o":"m 557 769 q 488 635 557 685 q 297 585 419 585 q 191 594 243 585 q 93 624 139 604 l 125 747 q 200 720 158 729 q 281 711 242 711 q 365 729 333 711 q 396 781 396 747 q 365 824 396 810 q 285 838 333 838 q 265 837 276 838 q 240 835 253 836 l 263 949 q 290 947 278 947 q 313 947 303 947 q 418 960 386 947 q 450 1006 450 972 q 340 1068 450 1068 q 207 1047 272 1068 l 224 1171 q 304 1184 261 1181 q 382 1188 347 1188 q 545 1151 485 1188 q 606 1036 606 1114 q 585 955 606 985 q 533 910 565 925 q 461 889 500 896 l 461 886 q 535 842 514 868 q 557 769 557 815 z "},"⁴":{"ha":528,"x_min":99,"x_max":604,"o":"m 476 594 l 311 594 l 338 706 l 99 706 l 131 846 l 418 1176 l 601 1176 l 524 818 l 604 818 l 578 706 l 500 706 l 476 594 m 365 818 l 381 879 q 401 958 388 911 q 425 1044 414 1006 l 422 1044 q 400 1010 417 1032 q 363 961 383 989 l 247 818 l 365 818 z "},"⁵":{"ha":528,"x_min":118,"x_max":628,"o":"m 571 813 q 531 685 571 736 q 426 610 490 635 q 288 585 361 585 q 199 593 249 585 q 118 615 150 601 l 143 738 q 213 716 178 722 q 283 710 247 710 q 342 717 314 710 q 388 746 369 725 q 407 803 407 767 q 372 862 407 842 q 279 882 336 882 q 225 879 251 882 q 171 867 199 876 l 232 1176 l 628 1176 l 610 1063 l 356 1063 l 339 979 l 364 979 q 510 936 450 979 q 571 813 571 893 z "},"⁶":{"ha":528,"x_min":136,"x_max":604,"o":"m 574 813 q 542 689 574 740 q 459 610 510 638 q 349 582 408 582 q 222 613 268 582 q 156 694 175 644 q 136 797 136 744 q 156 933 136 864 q 214 1058 175 1001 q 311 1151 253 1115 q 447 1186 369 1186 q 530 1179 489 1186 q 604 1157 571 1172 l 567 1046 q 516 1067 543 1061 q 468 1074 489 1074 q 356 1033 396 1074 q 303 929 315 992 l 306 929 q 353 963 325 950 q 414 975 381 975 q 528 931 483 975 q 574 813 574 886 m 426 797 q 410 849 426 828 q 365 869 394 869 q 301 838 325 869 q 278 767 278 807 q 293 714 278 738 q 343 690 308 690 q 405 722 383 690 q 426 797 426 753 z "},"⁷":{"ha":528,"x_min":124,"x_max":644,"o":"m 313 594 l 124 594 l 451 1057 l 181 1057 l 206 1176 l 644 1176 l 617 1040 l 313 594 z "},"⁸":{"ha":528,"x_min":118,"x_max":603,"o":"m 572 764 q 539 657 572 696 q 451 601 506 618 q 336 583 397 583 q 229 601 279 583 q 149 652 179 618 q 118 738 118 686 q 154 842 118 804 q 251 899 190 879 q 190 956 208 925 q 172 1021 172 988 q 231 1141 172 1093 q 396 1189 290 1189 q 497 1174 450 1189 q 574 1128 544 1160 q 603 1047 603 1097 q 578 954 603 994 q 481 885 554 914 q 545 838 518 867 q 572 764 572 808 m 419 765 q 405 807 419 789 q 356 839 390 825 q 287 804 307 826 q 267 754 267 782 q 287 709 267 726 q 338 692 307 692 q 399 713 378 692 q 419 765 419 733 m 457 1029 q 439 1073 457 1057 q 393 1089 421 1089 q 338 1069 360 1089 q 315 1019 315 1050 q 331 976 315 997 q 375 942 347 956 q 435 976 414 954 q 457 1029 457 999 z "},"⁹":{"ha":528,"x_min":126,"x_max":594,"o":"m 157 957 q 189 1081 157 1029 q 272 1160 221 1132 q 382 1188 324 1188 q 510 1156 464 1188 q 575 1076 556 1125 q 594 972 594 1026 q 575 837 594 906 q 517 711 556 768 q 419 619 478 654 q 283 583 361 583 q 201 590 242 583 q 126 613 160 597 l 164 724 q 215 703 188 710 q 263 696 242 696 q 375 736 335 696 q 428 843 415 776 l 425 843 q 317 797 383 797 q 203 840 249 797 q 157 957 157 883 m 304 972 q 322 922 304 942 q 368 903 339 903 q 429 935 408 903 q 450 1008 450 968 q 436 1058 450 1038 q 388 1079 422 1079 q 326 1048 349 1079 q 304 972 304 1017 z "},"‽":{"ha":721,"x_min":136,"x_max":760,"o":"m 136 760 l 160 953 q 281 979 218 971 q 403 988 343 988 q 666 927 572 988 q 760 747 760 867 q 713 597 760 663 q 568 458 665 532 q 485 384 508 414 q 456 322 463 354 l 453 307 l 214 307 l 235 707 l 446 707 l 403 513 l 408 513 q 428 545 419 532 q 451 572 438 558 q 514 642 496 617 q 532 701 532 668 q 481 782 532 758 q 357 806 431 806 q 136 760 251 806 m 206 231 l 458 231 l 411 0 l 161 0 l 206 231 z "},"℅":{"ha":1317,"x_min":124,"x_max":1242,"o":"m 583 964 l 544 824 q 499 838 519 835 q 458 842 478 842 q 354 802 394 842 q 314 700 314 763 q 342 622 314 651 q 418 593 369 593 q 460 597 440 593 q 508 611 481 600 l 488 461 q 375 447 431 447 q 194 508 265 447 q 124 686 124 568 q 164 845 124 778 q 275 950 204 913 q 438 988 346 988 q 583 964 522 988 m 1006 1031 l 1157 1031 l 374 -31 l 222 -31 l 1006 1031 m 1028 517 q 1187 458 1132 517 q 1242 310 1242 400 q 1225 193 1242 251 q 1174 87 1208 135 q 1085 10 1139 39 q 960 -18 1032 -18 q 797 36 853 -18 q 742 186 742 90 q 777 347 742 272 q 877 469 813 422 q 1028 517 942 517 m 1019 388 q 962 356 988 388 q 922 278 936 325 q 907 181 907 231 q 921 131 907 150 q 965 113 935 113 q 1023 141 997 113 q 1063 215 1049 169 q 1078 314 1078 261 q 1065 367 1078 346 q 1019 388 1051 388 z "},"℗":{"ha":1250,"x_min":136,"x_max":1114,"o":"m 625 918 q 456 884 533 918 q 319 790 378 850 q 227 653 260 731 q 194 486 194 575 q 227 318 194 397 q 319 179 260 239 q 456 85 378 119 q 625 51 533 51 q 794 85 717 51 q 931 180 872 119 q 1023 319 990 240 q 1056 489 1056 399 q 1023 654 1056 576 q 931 791 990 732 q 794 884 872 850 q 625 918 717 918 m 625 974 q 815 936 726 974 q 971 832 904 899 q 1076 677 1038 765 q 1114 486 1114 589 q 1076 295 1114 385 q 971 139 1038 206 q 815 34 904 72 q 625 -4 726 -4 q 435 34 524 -4 q 279 140 346 72 q 174 297 213 207 q 136 489 136 386 q 174 678 136 590 q 279 833 213 767 q 435 936 346 899 q 625 974 524 974 m 446 190 l 446 776 l 628 776 q 756 758 699 776 q 848 697 814 739 q 882 581 882 654 q 847 465 882 507 q 752 404 811 422 q 624 386 693 386 l 581 386 l 581 190 l 446 190 m 581 675 l 581 488 l 613 488 q 708 506 671 488 q 746 581 746 525 q 710 655 746 635 q 611 675 674 675 l 581 675 z "},"І":{"ha":425,"x_min":11,"x_max":475,"o":"m 217 969 l 475 969 l 269 0 l 11 0 l 217 969 z "},"і":{"ha":417,"x_min":7,"x_max":469,"o":"m 469 1014 l 431 831 l 179 831 l 219 1014 l 469 1014 m 260 0 l 7 0 l 161 722 l 413 722 l 260 0 z "},"Ј":{"ha":572,"x_min":-51,"x_max":629,"o":"m 369 969 l 629 969 l 481 271 q 423 128 464 193 q 309 23 382 63 q 122 -17 236 -17 q 38 -10 83 -17 q -51 10 -7 -4 l 1 206 q 43 194 21 199 q 90 189 65 189 q 189 226 158 189 q 240 361 219 264 l 369 969 z "},"ј":{"ha":417,"x_min":-187,"x_max":474,"o":"m 474 1014 l 435 831 l 183 831 l 224 1014 l 474 1014 m 161 722 l 413 722 l 254 -32 q 201 -181 236 -119 q 101 -276 165 -243 q -71 -308 38 -308 q -131 -303 -99 -308 q -187 -292 -164 -297 l -146 -106 q -119 -112 -133 -110 q -94 -114 -104 -114 q -29 -92 -53 -114 q 4 -21 -6 -69 l 161 722 z "},"А":{"ha":1069,"x_min":-65,"x_max":999,"o":"m 832 969 l 999 0 l 735 0 l 707 208 l 336 208 l 218 0 l -65 0 l 521 969 l 832 969 m 435 389 l 689 389 q 664 592 674 513 q 651 717 654 671 q 646 783 647 763 l 643 783 q 612 717 635 763 q 547 593 589 672 q 435 389 504 514 z "},"Б":{"ha":901,"x_min":11,"x_max":885,"o":"m 11 0 l 217 969 l 885 969 l 844 788 l 435 788 l 393 589 l 513 589 q 688 563 613 589 q 804 481 763 536 q 846 339 846 426 q 787 144 846 218 q 627 35 728 69 q 403 0 526 0 l 11 0 m 306 181 l 390 181 q 530 210 474 181 q 586 322 586 240 q 546 397 586 375 q 435 419 506 419 l 357 419 l 306 181 z "},"В":{"ha":892,"x_min":11,"x_max":903,"o":"m 217 969 l 538 969 q 726 953 643 969 q 856 889 808 936 q 903 749 903 842 q 835 585 903 651 q 654 501 768 519 l 654 499 q 794 434 746 485 q 843 301 843 383 q 803 157 843 215 q 699 64 764 99 q 557 15 633 29 q 406 0 481 0 l 11 0 l 217 969 m 431 797 l 385 581 l 444 581 q 509 585 474 581 q 576 601 544 589 q 627 638 607 614 q 647 704 647 663 q 610 775 647 753 q 479 797 574 797 l 431 797 m 351 414 l 299 176 l 358 176 q 477 187 426 176 q 556 227 528 197 q 585 315 585 257 q 540 392 585 371 q 396 414 496 414 l 351 414 z "},"Г":{"ha":735,"x_min":11,"x_max":847,"o":"m 11 0 l 217 969 l 847 969 l 806 779 l 433 779 l 269 0 l 11 0 z "},"Д":{"ha":1036,"x_min":-128,"x_max":1061,"o":"m -128 -214 l -43 189 l 32 189 q 166 390 107 268 q 253 649 225 513 l 321 969 l 1061 969 l 894 189 l 994 189 l 908 -214 l 674 -214 l 719 0 l 151 0 l 106 -214 l -128 -214 m 297 189 l 638 189 l 761 783 l 518 783 l 486 626 q 411 384 460 499 q 297 189 363 269 z "},"Е":{"ha":796,"x_min":11,"x_max":860,"o":"m 217 969 l 860 969 l 824 788 l 426 788 l 385 586 l 760 586 l 722 404 l 346 404 l 300 186 l 708 186 l 672 0 l 11 0 l 217 969 z "},"Ж":{"ha":1439,"x_min":-89,"x_max":1542,"o":"m 632 529 q 677 750 654 640 q 722 969 700 860 l 982 969 l 885 531 l 888 531 q 997 670 908 563 q 1243 969 1085 778 l 1542 969 l 1125 494 l 1381 0 l 1090 0 q 956 286 1008 169 q 875 472 903 403 l 872 472 l 776 0 l 517 0 l 621 476 l 618 476 q 562 406 590 442 q 501 333 533 371 l 226 0 l -89 0 l 385 529 l 164 969 l 443 969 l 550 722 q 590 626 569 679 q 629 529 611 572 l 632 529 z "},"З":{"ha":814,"x_min":-15,"x_max":811,"o":"m 303 -17 q 132 -1 218 -14 q -15 39 46 13 l 36 228 q 156 187 89 204 q 292 169 224 169 q 378 179 333 169 q 454 217 424 189 q 485 303 485 246 q 454 375 485 351 q 377 407 424 399 q 285 415 331 415 q 252 415 271 415 q 221 414 233 415 l 261 583 q 292 581 272 582 q 329 581 311 581 q 436 590 382 581 q 528 628 490 600 q 565 708 565 656 q 542 766 565 744 q 485 797 519 788 q 417 806 451 806 q 328 801 378 806 q 232 788 279 797 q 149 764 185 779 l 175 944 q 313 971 236 960 q 460 982 389 982 q 637 958 557 982 q 764 883 717 935 q 811 743 811 831 q 747 582 811 646 q 571 496 682 518 l 571 493 q 699 426 650 478 q 747 296 747 374 q 712 151 747 211 q 614 54 676 92 q 472 0 551 17 q 303 -17 392 -17 z "},"И":{"ha":1031,"x_min":11,"x_max":1081,"o":"m 11 0 l 217 969 l 467 969 l 403 675 q 363 505 386 599 q 319 336 339 411 l 322 336 l 790 969 l 1081 969 l 875 0 l 625 0 l 688 293 q 705 371 694 325 q 728 465 715 417 q 751 558 740 514 q 771 632 763 603 l 768 632 l 293 0 l 11 0 z "},"Й":{"ha":1031,"x_min":11,"x_max":1081,"o":"m 658 1043 q 538 1069 588 1043 q 458 1138 488 1096 q 419 1226 429 1181 l 522 1283 q 567 1213 538 1244 q 665 1181 597 1181 q 772 1213 732 1181 q 839 1283 813 1246 l 925 1226 q 869 1138 906 1181 q 781 1069 833 1096 q 658 1043 729 1043 m 11 0 l 217 969 l 467 969 l 403 675 q 363 505 386 599 q 319 336 339 411 l 322 336 l 790 969 l 1081 969 l 875 0 l 625 0 l 688 293 q 705 371 694 325 q 728 465 715 417 q 751 558 740 514 q 771 632 763 603 l 768 632 l 293 0 l 11 0 z "},"К":{"ha":947,"x_min":11,"x_max":1081,"o":"m 361 465 l 267 0 l 11 0 l 217 969 l 472 969 l 386 574 l 389 574 q 489 688 407 594 q 746 969 571 782 l 1081 969 l 614 503 l 906 0 l 607 0 q 458 281 519 161 q 364 465 396 400 l 361 465 z "},"Л":{"ha":1043,"x_min":-72,"x_max":1093,"o":"m 90 -10 q -72 13 -8 -10 l -24 199 q 10 190 -10 193 q 47 188 29 188 q 132 224 96 188 q 202 347 168 260 q 274 587 236 435 q 364 969 313 739 l 1093 969 l 886 0 l 629 0 l 794 783 l 565 783 q 479 431 521 581 q 388 184 438 282 q 266 38 338 86 q 90 -10 194 -10 z "},"М":{"ha":1351,"x_min":7,"x_max":1401,"o":"m 226 969 l 622 969 q 630 814 626 899 q 637 644 633 729 q 643 485 640 560 q 647 359 646 411 q 649 290 649 307 l 651 290 q 686 369 664 321 q 747 496 708 418 q 846 690 786 574 q 992 969 906 806 l 1401 969 l 1196 0 l 938 0 l 1047 499 q 1067 583 1054 531 q 1093 694 1079 636 q 1119 797 1107 753 l 1117 797 q 1067 698 1106 774 q 972 510 1029 622 q 847 267 915 399 q 708 0 779 135 l 458 0 q 447 183 453 85 q 435 380 440 282 q 425 563 429 478 q 418 710 421 649 q 415 793 415 771 l 413 793 q 401 734 408 772 q 384 651 393 696 q 366 565 375 606 q 351 499 357 524 l 244 0 l 7 0 l 226 969 z "},"Н":{"ha":1013,"x_min":11,"x_max":1063,"o":"m 217 969 l 475 969 l 399 604 l 728 604 l 804 969 l 1063 969 l 856 0 l 599 0 l 686 410 l 357 410 l 268 0 l 11 0 l 217 969 z "},"О":{"ha":1075,"x_min":72,"x_max":1067,"o":"m 644 988 q 959 885 851 988 q 1067 589 1067 782 q 1030 354 1067 464 q 921 161 993 244 q 742 30 849 78 q 496 -18 636 -18 q 186 85 300 -18 q 72 385 72 188 q 112 617 72 508 q 226 810 151 726 q 406 940 300 893 q 644 988 511 988 m 626 803 q 516 770 568 803 q 424 680 464 738 q 362 547 385 622 q 339 385 339 471 q 383 224 339 279 q 507 168 426 168 q 656 224 589 168 q 762 377 722 281 q 801 593 801 474 q 756 750 801 697 q 626 803 711 803 z "},"П":{"ha":1000,"x_min":11,"x_max":1050,"o":"m 11 0 l 217 969 l 1050 969 l 844 0 l 586 0 l 753 783 l 435 783 l 269 0 l 11 0 z "},"Р":{"ha":851,"x_min":11,"x_max":894,"o":"m 340 346 l 268 0 l 11 0 l 217 969 l 493 969 q 651 958 578 969 q 778 917 724 946 q 864 833 833 888 q 894 693 894 779 q 833 494 894 572 q 667 380 772 417 q 426 343 561 343 q 384 344 404 343 q 340 346 364 344 m 433 792 l 378 528 q 401 526 389 526 q 422 526 413 526 q 583 563 528 526 q 639 683 639 599 q 613 755 639 732 q 545 785 588 778 q 453 792 503 792 l 433 792 z "},"С":{"ha":892,"x_min":69,"x_max":951,"o":"m 951 935 l 894 740 q 799 773 849 763 q 689 783 750 783 q 502 738 582 783 q 378 615 422 693 q 335 439 335 538 q 410 248 335 313 q 608 183 486 183 q 701 192 653 183 q 803 224 750 201 l 771 18 q 547 -11 679 -11 q 364 15 450 -11 q 211 93 278 40 q 107 227 144 146 q 69 419 69 308 q 117 646 69 543 q 247 823 164 749 q 441 938 331 897 q 679 979 551 979 q 951 935 835 979 z "},"Т":{"ha":761,"x_min":104,"x_max":889,"o":"m 185 0 l 351 781 l 104 781 l 146 969 l 889 969 l 847 781 l 610 781 l 443 0 l 185 0 z "},"У":{"ha":983,"x_min":60,"x_max":1117,"o":"m 233 -14 q 131 -9 175 -14 q 60 3 88 -4 l 104 193 q 146 184 119 189 q 207 179 172 179 q 283 203 254 179 q 346 271 313 228 l 128 969 l 400 969 l 521 499 l 819 969 l 1117 969 l 574 213 q 481 99 528 150 q 374 17 433 47 q 233 -14 315 -14 z "},"Ф":{"ha":1276,"x_min":58,"x_max":1281,"o":"m 432 -15 l 454 90 q 229 148 317 100 q 100 274 142 196 q 58 451 58 353 q 122 681 58 581 q 313 838 186 781 q 626 896 439 896 l 644 986 l 903 986 l 885 896 q 1114 842 1026 889 q 1241 718 1201 794 q 1281 546 1281 642 q 1215 310 1281 413 q 1023 151 1150 208 q 713 90 896 93 l 690 -15 l 432 -15 m 496 265 l 592 722 q 390 644 461 721 q 318 440 318 567 q 496 265 318 282 m 746 265 q 946 344 869 269 q 1022 551 1022 418 q 978 670 1022 625 q 842 721 933 715 l 746 265 z "},"Х":{"ha":992,"x_min":-62,"x_max":1097,"o":"m 551 653 q 627 759 575 686 q 782 969 679 832 l 1097 969 l 706 506 l 921 0 l 639 0 q 561 213 593 119 q 514 353 529 307 q 413 213 482 307 q 249 0 343 119 l -62 0 l 368 514 l 167 969 l 439 969 q 516 760 492 835 q 551 653 540 686 z "},"Ц":{"ha":1025,"x_min":11,"x_max":1050,"o":"m 663 -214 l 708 0 l 11 0 l 217 969 l 475 969 l 310 189 l 626 189 l 792 969 l 1050 969 l 885 189 l 983 189 l 897 -214 l 663 -214 z "},"Ч":{"ha":919,"x_min":94,"x_max":969,"o":"m 506 0 l 581 361 q 528 351 565 357 q 447 340 490 344 q 365 335 403 335 q 167 386 240 335 q 94 569 94 438 q 98 633 94 599 q 110 706 101 667 l 167 969 l 421 969 l 363 697 q 354 629 354 660 q 384 553 354 578 q 482 528 414 528 q 562 535 522 528 q 621 547 601 542 l 711 969 l 969 969 l 764 0 l 506 0 z "},"Ш":{"ha":1482,"x_min":11,"x_max":1532,"o":"m 11 0 l 217 969 l 475 969 l 308 189 l 579 189 l 746 969 l 1003 969 l 838 189 l 1108 189 l 1275 969 l 1532 969 l 1326 0 l 11 0 z "},"Щ":{"ha":1507,"x_min":11,"x_max":1532,"o":"m 1146 -214 l 1192 0 l 11 0 l 217 969 l 475 969 l 310 189 l 581 189 l 746 969 l 1003 969 l 838 189 l 1110 189 l 1275 969 l 1532 969 l 1367 189 l 1467 189 l 1381 -214 l 1146 -214 z "},"Ъ":{"ha":1042,"x_min":101,"x_max":1011,"o":"m 160 0 l 325 783 l 101 783 l 142 969 l 622 969 l 549 622 l 685 622 q 924 550 838 622 q 1011 354 1011 478 q 974 186 1011 254 q 872 77 936 118 q 726 18 808 36 q 556 0 644 0 l 160 0 m 451 182 l 550 182 q 652 194 606 182 q 727 242 699 207 q 756 340 756 276 q 718 418 756 389 q 597 447 681 447 l 508 447 l 451 182 z "},"Ы":{"ha":1290,"x_min":11,"x_max":1340,"o":"m 11 0 l 217 969 l 475 969 l 400 622 l 522 622 q 762 550 675 622 q 849 354 849 478 q 811 186 849 254 q 710 77 774 118 q 564 18 646 36 q 393 0 482 0 l 11 0 m 303 182 l 388 182 q 490 194 443 182 q 565 242 536 207 q 593 340 593 276 q 556 418 593 389 q 435 447 518 447 l 360 447 l 303 182 m 876 0 l 1082 969 l 1340 969 l 1135 0 l 876 0 z "},"Ь":{"ha":893,"x_min":11,"x_max":863,"o":"m 11 0 l 217 969 l 475 969 l 400 622 l 536 622 q 776 550 689 622 q 863 354 863 478 q 825 186 863 254 q 724 77 788 118 q 578 18 660 36 q 407 0 496 0 l 11 0 m 303 182 l 401 182 q 503 194 457 182 q 578 242 550 207 q 607 340 607 276 q 569 418 607 389 q 449 447 532 447 l 360 447 l 303 182 z "},"Э":{"ha":878,"x_min":-11,"x_max":869,"o":"m 268 -12 q 117 -2 188 -12 q -11 31 46 8 q 15 127 1 79 q 42 224 28 175 q 146 192 88 201 q 258 182 204 182 q 469 244 383 182 q 586 407 554 306 l 194 407 l 232 581 l 600 581 q 511 738 585 683 q 328 792 438 792 q 233 783 285 792 q 129 753 182 775 q 144 851 136 801 q 161 950 153 900 q 263 972 201 963 q 389 982 324 982 q 573 954 486 982 q 726 871 660 926 q 831 730 793 815 q 869 528 869 644 q 824 311 869 410 q 697 140 779 213 q 506 27 615 67 q 268 -12 396 -12 z "},"Ю":{"ha":1467,"x_min":11,"x_max":1458,"o":"m 914 -18 q 699 27 790 -18 q 557 160 607 72 q 507 374 507 247 q 507 392 507 381 q 507 410 507 404 l 357 410 l 269 0 l 11 0 l 217 969 l 475 969 l 397 604 l 543 604 q 649 799 579 713 q 822 937 719 886 q 1054 988 924 988 q 1354 888 1250 988 q 1458 600 1458 788 q 1425 370 1458 481 q 1324 172 1392 260 q 1154 33 1257 85 q 914 -18 1051 -18 m 931 167 q 1040 207 990 167 q 1124 313 1089 247 q 1178 456 1160 379 q 1197 608 1197 533 q 1158 753 1197 701 q 1039 806 1118 806 q 928 768 978 806 q 842 667 878 731 q 788 526 807 604 q 769 368 769 449 q 813 221 769 275 q 931 167 856 167 z "},"Я":{"ha":914,"x_min":-71,"x_max":964,"o":"m -71 0 l 254 385 q 111 615 111 451 q 149 783 111 715 q 250 892 186 851 q 396 951 314 933 q 567 969 478 969 l 964 969 l 758 0 l 500 0 l 574 347 l 504 347 l 246 0 l -71 0 m 526 522 l 615 522 l 671 789 l 572 789 q 471 776 518 789 q 395 730 424 764 q 367 631 367 696 q 404 551 367 581 q 526 522 442 522 z "},"а":{"ha":822,"x_min":7,"x_max":768,"o":"m 519 321 q 490 324 506 324 q 460 325 474 325 q 297 298 350 325 q 244 217 244 271 q 268 161 244 182 q 333 140 292 140 q 458 189 407 140 q 519 321 510 238 m 497 106 l 494 106 q 240 -14 410 -14 q 71 43 135 -14 q 7 194 7 100 q 119 388 7 324 q 431 453 231 453 q 481 451 456 453 q 539 447 506 450 q 542 472 542 458 q 505 556 542 531 q 393 581 468 581 q 272 566 338 581 q 158 526 206 551 l 178 699 q 319 731 254 722 q 453 740 385 740 q 686 683 604 740 q 768 508 768 625 q 760 427 768 478 q 740 319 751 376 q 718 209 729 261 q 703 125 707 157 q 694 65 699 100 q 690 0 690 31 l 486 0 q 497 106 488 54 z "},"б":{"ha":900,"x_min":64,"x_max":938,"o":"m 417 -18 q 228 26 307 -18 q 106 146 149 69 q 64 322 64 222 q 81 486 64 396 q 131 667 97 576 q 216 833 165 757 q 335 956 267 910 q 488 1017 404 1001 q 674 1038 572 1033 q 813 1044 739 1040 q 938 1058 888 1047 l 894 863 q 801 850 856 854 q 697 844 747 846 q 617 842 646 843 q 452 817 524 840 q 333 736 381 794 q 258 565 285 678 l 263 565 q 375 674 303 626 q 549 722 447 722 q 778 641 699 722 q 858 419 858 560 q 804 193 858 290 q 651 40 750 96 q 417 -18 553 -15 m 429 158 q 533 199 492 158 q 595 300 575 239 q 615 424 615 361 q 587 526 615 490 q 501 563 558 563 q 396 524 439 563 q 331 425 353 485 q 308 301 308 365 q 341 194 308 231 q 429 158 374 158 z "},"в":{"ha":831,"x_min":6,"x_max":796,"o":"m 6 0 l 158 722 l 521 722 q 662 708 600 722 q 760 658 724 694 q 796 556 796 622 q 745 435 796 483 q 611 375 694 388 l 611 372 q 715 318 678 356 q 751 219 751 281 q 706 93 751 142 q 585 22 660 44 q 424 0 510 0 l 6 0 m 278 143 l 364 143 q 476 164 433 143 q 518 238 518 185 q 483 291 518 278 q 388 304 449 304 l 313 304 l 278 143 m 340 440 l 413 440 q 519 460 478 440 q 560 529 560 481 q 532 575 560 563 q 443 588 504 588 l 372 588 l 340 440 z "},"г":{"ha":660,"x_min":6,"x_max":711,"o":"m 6 0 l 158 722 l 711 722 l 674 546 l 368 546 l 253 0 l 6 0 z "},"д":{"ha":894,"x_min":-106,"x_max":875,"o":"m -106 -182 l -32 178 l 26 178 q 114 311 76 232 q 179 521 151 390 l 222 722 l 875 722 l 758 178 l 839 178 l 763 -182 l 549 -182 l 588 0 l 146 0 l 108 -182 l -106 -182 m 269 178 l 511 178 l 589 546 l 406 546 l 396 493 q 347 315 378 396 q 269 178 315 235 z "},"е":{"ha":838,"x_min":46,"x_max":817,"o":"m 799 297 l 282 297 q 281 287 281 292 q 281 279 281 282 q 333 180 281 213 q 471 147 386 147 q 594 162 528 147 q 717 203 660 176 l 690 29 q 571 -6 640 7 q 440 -18 501 -18 q 149 67 251 -18 q 46 303 46 151 q 97 524 46 425 q 247 681 147 622 q 490 740 346 740 q 728 663 640 740 q 817 453 817 585 q 799 297 817 383 m 299 433 l 597 433 q 599 450 599 440 q 600 469 600 460 q 569 565 600 535 q 479 594 538 594 q 365 553 413 594 q 299 433 317 511 z "},"ж":{"ha":1231,"x_min":-82,"x_max":1282,"o":"m 493 389 q 528 555 511 471 q 563 722 546 639 l 814 722 l 740 388 l 743 388 q 820 489 754 403 q 1010 722 886 575 l 1282 722 q 1128 541 1206 632 q 975 360 1051 450 l 1161 0 l 881 0 q 793 212 831 115 q 738 363 756 308 l 735 363 l 660 0 l 410 0 q 449 181 429 90 q 488 363 469 272 l 485 363 q 365 201 433 290 q 211 0 297 113 l -82 0 q 83 197 0 99 q 249 392 167 294 l 88 722 l 356 722 l 431 539 q 463 460 446 500 q 490 389 479 421 l 493 389 z "},"з":{"ha":713,"x_min":-28,"x_max":676,"o":"m 265 -15 q 106 -4 181 -15 q -28 29 31 7 l 21 200 q 110 169 53 186 q 232 153 167 153 q 343 176 300 153 q 386 244 386 199 q 351 294 386 283 q 251 306 315 304 q 213 305 233 306 q 182 303 193 304 l 213 446 q 249 444 231 444 q 282 443 267 443 q 349 448 315 443 q 405 471 382 453 q 428 525 428 489 q 389 570 428 561 q 303 579 350 579 q 180 563 239 579 q 86 536 121 547 l 113 699 q 234 725 158 713 q 396 738 310 738 q 600 701 524 738 q 676 572 676 664 q 624 449 676 499 q 490 383 572 400 l 489 381 q 592 329 554 371 q 631 226 631 288 q 583 88 631 142 q 452 10 535 35 q 265 -15 369 -15 z "},"и":{"ha":926,"x_min":6,"x_max":915,"o":"m 6 0 l 158 722 l 399 722 l 367 574 q 333 431 349 490 q 300 310 318 372 l 303 310 l 667 722 l 915 722 l 763 0 l 521 0 l 554 150 q 585 280 569 215 q 618 408 600 344 l 615 408 l 254 0 l 6 0 z "},"й":{"ha":926,"x_min":6,"x_max":915,"o":"m 560 800 q 439 826 486 800 q 365 893 392 853 q 328 974 339 933 l 425 1026 q 468 959 439 990 q 563 928 497 928 q 665 960 626 928 q 728 1026 704 992 l 811 974 q 758 891 793 931 q 674 826 724 851 q 560 800 625 800 m 6 0 l 158 722 l 399 722 l 367 574 q 333 431 349 490 q 300 310 318 372 l 303 310 l 667 722 l 915 722 l 763 0 l 521 0 l 554 150 q 585 280 569 215 q 618 408 600 344 l 615 408 l 254 0 l 6 0 z "},"к":{"ha":854,"x_min":11,"x_max":921,"o":"m 333 351 l 261 0 l 11 0 l 164 722 l 414 722 l 344 401 l 347 401 q 422 494 360 418 q 617 722 485 571 l 921 722 l 586 361 l 796 0 l 510 0 q 430 157 461 94 q 380 257 399 219 q 351 316 361 294 q 336 351 342 338 l 333 351 z "},"л":{"ha":913,"x_min":-74,"x_max":900,"o":"m 65 -12 q 17 -10 44 -12 q -36 -5 -11 -8 q -74 3 -61 -1 l -29 183 q -6 179 -22 181 q 22 178 11 178 q 82 199 56 178 q 133 276 108 219 q 188 441 158 333 q 254 722 217 549 l 900 722 l 747 0 l 500 0 l 615 546 l 446 546 q 385 303 415 408 q 314 128 354 199 q 215 23 274 58 q 65 -12 156 -12 z "},"м":{"ha":1158,"x_min":6,"x_max":1147,"o":"m 6 0 l 158 722 l 503 722 l 539 217 l 789 722 l 1147 722 l 994 0 l 772 0 l 825 256 q 862 415 840 329 q 901 572 883 500 l 899 572 l 603 0 l 393 0 l 343 572 l 340 572 q 311 411 328 497 q 279 249 294 325 l 228 0 l 6 0 z "},"н":{"ha":914,"x_min":6,"x_max":903,"o":"m 6 0 l 158 722 l 406 722 l 347 456 l 599 456 l 656 722 l 903 722 l 750 0 l 503 0 l 563 281 l 311 281 l 253 0 l 6 0 z "},"о":{"ha":903,"x_min":44,"x_max":857,"o":"m 504 740 q 692 698 613 740 q 814 581 771 656 q 857 406 857 506 q 800 178 857 274 q 641 33 743 83 q 406 -18 539 -18 q 140 67 235 -18 q 44 306 44 151 q 101 529 44 431 q 262 684 158 628 q 504 740 365 740 m 483 569 q 389 535 432 569 q 319 442 346 500 q 293 313 293 383 q 328 194 293 238 q 424 151 363 151 q 520 186 478 151 q 586 281 563 221 q 610 415 610 340 q 577 527 610 485 q 483 569 544 569 z "},"п":{"ha":901,"x_min":6,"x_max":890,"o":"m 6 0 l 158 722 l 890 722 l 738 0 l 492 0 l 607 546 l 368 546 l 253 0 l 6 0 z "},"р":{"ha":915,"x_min":-61,"x_max":874,"o":"m 228 -58 l 179 -292 l -61 -292 l 128 601 q 140 666 135 636 q 147 722 144 696 l 378 722 q 369 661 374 690 q 358 604 365 632 l 361 604 q 471 706 404 671 q 607 740 538 740 q 758 701 699 740 q 845 595 817 663 q 874 443 874 528 q 847 265 874 349 q 768 118 819 182 q 645 18 717 54 q 483 -18 574 -18 q 344 22 404 -18 q 264 124 283 63 l 261 124 q 246 37 256 92 q 228 -58 236 -18 m 501 567 q 405 531 449 567 q 336 437 361 496 q 311 308 311 378 q 345 201 311 244 q 439 158 379 158 q 533 194 492 158 q 599 290 575 231 q 622 418 622 349 q 592 523 622 479 q 501 567 563 567 z "},"с":{"ha":672,"x_min":44,"x_max":701,"o":"m 701 697 l 647 518 q 580 540 613 533 q 517 546 547 546 q 355 485 414 546 q 296 329 296 425 q 338 216 296 260 q 461 172 381 172 q 527 177 494 172 q 599 196 560 182 l 565 10 q 485 -6 522 -1 q 406 -11 447 -11 q 141 76 238 -11 q 44 317 44 164 q 101 535 44 442 q 259 681 157 629 q 497 732 361 732 q 606 723 556 732 q 701 697 657 714 z "},"т":{"ha":728,"x_min":42,"x_max":775,"o":"m 154 0 l 269 546 l 42 546 l 79 722 l 775 722 l 738 546 l 517 546 l 401 0 l 154 0 z "},"у":{"ha":843,"x_min":-64,"x_max":918,"o":"m 83 722 l 338 722 q 366 469 356 568 q 382 314 376 371 q 390 228 388 257 q 393 185 393 200 l 396 185 q 415 228 401 200 q 455 314 428 257 q 531 469 482 371 q 656 722 579 568 l 918 722 l 492 -42 q 392 -190 442 -131 q 274 -278 342 -249 q 101 -308 206 -308 q 15 -299 61 -308 q -64 -276 -31 -290 l -14 -104 q 29 -117 6 -111 q 79 -122 53 -122 q 169 -96 136 -122 q 225 -17 203 -69 l 83 722 z "},"ф":{"ha":1264,"x_min":49,"x_max":1210,"o":"m 367 -294 l 442 53 q 264 -15 365 -15 q 139 25 186 -15 q 70 130 92 65 q 49 265 49 194 q 74 447 49 361 q 146 598 99 532 q 260 701 193 664 q 410 739 326 739 q 508 721 467 739 q 571 667 549 703 l 650 1040 l 899 1040 l 819 668 q 898 720 853 701 q 993 739 943 739 q 1121 699 1074 739 q 1189 594 1168 658 q 1210 457 1210 529 q 1185 281 1210 365 q 1115 129 1161 196 q 1003 24 1069 63 q 854 -15 938 -15 q 758 3 800 -15 q 690 60 715 21 l 615 -294 l 367 -294 m 388 158 q 438 170 415 158 q 478 201 461 182 l 546 518 q 519 549 536 538 q 474 561 503 561 q 394 532 428 561 q 340 458 361 503 q 309 362 319 413 q 299 269 299 311 q 318 191 299 224 q 388 158 338 158 m 788 158 q 866 188 833 158 q 919 265 899 218 q 951 361 940 311 q 961 451 961 411 q 942 529 961 497 q 872 561 922 561 q 821 549 843 561 q 783 518 799 538 l 714 201 q 742 170 725 182 q 788 158 758 158 z "},"х":{"ha":838,"x_min":-64,"x_max":906,"o":"m 451 500 q 503 574 467 525 q 614 722 539 624 l 906 722 l 593 369 l 772 0 l 499 0 q 442 142 464 81 q 410 235 421 204 q 347 144 390 204 q 238 0 303 83 l -64 0 l 267 379 l 101 722 l 369 722 q 426 575 408 625 q 451 500 443 525 z "},"ц":{"ha":921,"x_min":6,"x_max":901,"o":"m 576 -182 l 615 0 l 6 0 l 158 722 l 406 722 l 289 178 l 539 178 l 654 722 l 901 722 l 786 178 l 867 178 l 792 -182 l 576 -182 z "},"ч":{"ha":833,"x_min":71,"x_max":822,"o":"m 421 0 l 475 261 q 388 241 444 251 q 274 231 332 231 q 117 284 164 231 q 71 418 71 338 q 74 458 71 438 q 81 499 76 478 l 128 722 l 367 722 l 321 504 q 317 483 319 493 q 315 464 315 472 q 397 399 315 399 q 462 406 426 399 q 510 418 497 413 l 574 722 l 822 722 l 669 0 l 421 0 z "},"ш":{"ha":1301,"x_min":6,"x_max":1289,"o":"m 6 0 l 158 722 l 406 722 l 289 178 l 483 178 l 600 722 l 846 722 l 731 178 l 925 178 l 1040 722 l 1289 722 l 1136 0 l 6 0 z "},"щ":{"ha":1307,"x_min":6,"x_max":1288,"o":"m 963 -182 l 1001 0 l 6 0 l 158 722 l 406 722 l 289 178 l 483 178 l 600 722 l 846 722 l 731 178 l 925 178 l 1040 722 l 1288 722 l 1172 178 l 1253 178 l 1178 -182 l 963 -182 z "},"ъ":{"ha":907,"x_min":46,"x_max":867,"o":"m 113 0 l 228 546 l 46 546 l 83 722 l 513 722 l 461 481 l 613 481 q 797 427 728 481 q 867 274 867 374 q 817 112 867 172 q 688 26 767 51 q 519 0 608 0 l 113 0 m 388 154 l 493 154 q 589 178 550 154 q 628 261 628 201 q 603 313 628 293 q 525 333 578 333 l 426 333 l 388 154 z "},"ы":{"ha":1174,"x_min":6,"x_max":1163,"o":"m 6 0 l 158 722 l 406 722 l 354 481 l 492 481 q 676 427 607 481 q 744 274 744 374 q 694 112 744 172 q 566 26 644 51 q 399 0 488 0 l 6 0 m 281 154 l 371 154 q 467 178 428 154 q 507 261 507 201 q 482 313 507 293 q 404 333 457 333 l 318 333 l 281 154 m 763 0 l 915 722 l 1163 722 l 1010 0 l 763 0 z "},"ь":{"ha":800,"x_min":6,"x_max":758,"o":"m 6 0 l 158 722 l 406 722 l 354 481 l 506 481 q 690 427 621 481 q 758 274 758 374 q 708 112 758 172 q 580 26 658 51 q 413 0 501 0 l 6 0 m 281 154 l 385 154 q 481 178 442 154 q 521 261 521 201 q 496 313 521 293 q 418 333 471 333 l 318 333 l 281 154 z "},"э":{"ha":693,"x_min":-24,"x_max":644,"o":"m 201 -18 q -24 18 68 -18 l 26 179 q 103 159 64 164 q 174 154 143 154 q 307 194 251 154 q 388 299 363 235 l 139 299 l 169 447 l 400 447 q 345 538 389 504 q 226 572 301 572 q 82 546 161 572 l 103 711 q 194 730 147 722 q 283 738 242 738 q 473 701 392 738 q 599 592 554 664 q 644 418 644 521 q 590 194 644 293 q 437 39 536 96 q 201 -18 338 -18 z "},"ю":{"ha":1236,"x_min":6,"x_max":1188,"o":"m 751 -18 q 573 22 646 -18 q 460 131 500 63 q 414 288 419 200 l 314 288 l 253 0 l 6 0 q 83 361 44 181 q 158 722 121 542 l 406 722 l 350 461 l 442 461 q 538 610 475 547 q 683 706 601 672 q 850 739 764 739 q 1027 700 951 739 q 1145 590 1103 661 q 1188 424 1188 519 q 1154 249 1188 329 q 1062 108 1121 168 q 924 15 1003 49 q 751 -18 844 -18 m 758 156 q 855 197 814 156 q 919 302 896 238 q 943 438 943 367 q 917 533 943 499 q 843 567 892 567 q 748 529 792 567 q 678 429 704 492 q 653 289 653 367 q 681 192 653 228 q 758 156 708 156 z "},"я":{"ha":839,"x_min":-79,"x_max":828,"o":"m -79 0 l 186 276 q 76 456 76 326 q 126 613 76 554 q 256 697 176 671 q 422 722 335 722 l 828 722 l 675 0 l 428 0 l 479 243 l 428 243 l 224 0 l -79 0 m 415 389 l 515 389 l 553 569 l 447 569 q 351 545 390 569 q 313 461 313 521 q 337 409 313 429 q 415 389 361 389 z "},"Ґ":{"ha":735,"x_min":11,"x_max":885,"o":"m 11 0 l 217 969 l 644 969 l 682 1144 l 885 1144 l 808 783 l 435 783 l 269 0 l 11 0 z "},"ґ":{"ha":663,"x_min":6,"x_max":746,"o":"m 6 0 l 158 722 l 510 722 l 544 888 l 746 888 l 674 551 l 368 551 l 253 0 l 6 0 z "},"Ѓ":{"ha":735,"x_min":11,"x_max":847,"o":"m 11 0 l 217 969 l 847 969 l 806 779 l 433 779 l 269 0 l 11 0 m 797 1261 l 526 1042 l 381 1042 l 543 1261 l 797 1261 z "},"ѓ":{"ha":660,"x_min":6,"x_max":711,"o":"m 6 0 l 158 722 l 711 722 l 674 546 l 368 546 l 253 0 l 6 0 m 674 1050 l 404 804 l 261 804 l 422 1050 l 674 1050 z "},"Ѕ":{"ha":826,"x_min":-4,"x_max":856,"o":"m 856 946 l 793 753 q 686 788 746 775 q 568 800 626 800 q 440 774 486 800 q 393 701 393 749 q 430 637 393 664 q 546 579 467 610 q 662 522 611 554 q 742 440 713 489 q 772 313 772 390 q 717 137 772 211 q 561 22 663 63 q 322 -18 460 -18 q 153 -5 231 -18 q -4 35 75 8 l 57 232 q 190 189 126 203 q 310 175 254 175 q 499 286 499 175 q 469 351 499 322 q 349 415 439 381 q 235 472 286 439 q 155 552 185 504 q 125 668 125 600 q 164 820 125 758 q 268 919 203 882 q 413 972 333 956 q 576 989 493 989 q 727 978 654 989 q 856 946 800 967 z "}}}
